<?xml version="1.0" encoding="utf-8"?>
<!-- Generator: Adobe Illustrator 19.0.0, SVG Export Plug-In . SVG Version: 6.00 Build 0)  -->
<!DOCTYPE svg PUBLIC "-//W3C//DTD SVG 1.1//EN" "http://www.w3.org/Graphics/SVG/1.1/DTD/svg11.dtd">
<svg version="1.1" id="Layer_1" xmlns="http://www.w3.org/2000/svg" xmlns:xlink="http://www.w3.org/1999/xlink" x="0px" y="0px"
	 viewBox="0 0 1280 2500" style="enable-background:new 0 0 1280 2500;" xml:space="preserve">
<style type="text/css">
	.st0{fill:#808080;}
	.st1{fill:#BFBFBF;}
	.st2{fill:#393434;}
	.st3{fill:#FFFFFF;}
</style>
<rect id="XMLID_27_" class="st0" width="1280" height="100"/>
<rect id="XMLID_28_" y="100" class="st1" width="1280" height="500"/>
<g id="XMLID_37_">
	<circle id="XMLID_29_" class="st1" cx="250.8" cy="891.9" r="100"/>
	<g id="XMLID_1330_">
		<path id="XMLID_1331_" d="M138.3,1051v-25h20v25H138.3z"/>
		<path id="XMLID_1333_" d="M158.3,1051v-25h20v25H158.3z"/>
		<path id="XMLID_1335_" d="M178.3,1051v-25h20v25H178.3z"/>
		<path id="XMLID_1337_" d="M198.3,1051v-25h20v25H198.3z"/>
		<path id="XMLID_1339_" d="M218.3,1051v-25h20v25H218.3z"/>
		<path id="XMLID_1341_" d="M248.3,1051v-25h20v25H248.3z"/>
		<path id="XMLID_1343_" d="M268.3,1051v-25h20v25H268.3z"/>
		<path id="XMLID_1345_" d="M288.3,1051v-25h20v25H288.3z"/>
		<path id="XMLID_1347_" d="M308.3,1051v-25h20v25H308.3z"/>
		<path id="XMLID_1349_" d="M338.3,1051v-25h20v25H338.3z"/>
		<path id="XMLID_1351_" d="M113.3,1094v-25h20v25H113.3z"/>
		<path id="XMLID_1353_" d="M133.3,1094v-25h20v25H133.3z"/>
		<path id="XMLID_1355_" d="M153.3,1094v-25h20v25H153.3z"/>
		<path id="XMLID_1357_" d="M183.3,1094v-25h20v25H183.3z"/>
		<path id="XMLID_1359_" d="M203.3,1094v-25h20v25H203.3z"/>
		<path id="XMLID_1361_" d="M223.3,1094v-25h20v25H223.3z"/>
		<path id="XMLID_1363_" d="M243.3,1094v-25h20v25H243.3z"/>
		<path id="XMLID_1365_" d="M263.3,1094v-25h20v25H263.3z"/>
		<path id="XMLID_1367_" d="M283.3,1094v-25h20v25H283.3z"/>
		<path id="XMLID_1369_" d="M323.3,1094v-25h20v25H323.3z"/>
		<path id="XMLID_1371_" d="M343.3,1094v-25h20v25H343.3z"/>
		<path id="XMLID_1373_" d="M363.3,1094v-25h20v25H363.3z"/>
		<path id="XMLID_1375_" d="M128.3,1137v-25h20v25H128.3z"/>
		<path id="XMLID_1377_" d="M148.3,1137v-25h20v25H148.3z"/>
		<path id="XMLID_1379_" d="M168.3,1137v-25h20v25H168.3z"/>
		<path id="XMLID_1381_" d="M188.3,1137v-25h20v25H188.3z"/>
		<path id="XMLID_1383_" d="M218.3,1137v-25h20v25H218.3z"/>
		<path id="XMLID_1385_" d="M238.3,1137v-25h20v25H238.3z"/>
		<path id="XMLID_1387_" d="M258.3,1137v-25h20v25H258.3z"/>
		<path id="XMLID_1389_" d="M278.3,1137v-25h20v25H278.3z"/>
		<path id="XMLID_1391_" d="M298.3,1137v-25h20v25H298.3z"/>
		<path id="XMLID_1393_" d="M328.3,1137v-25h20v25H328.3z"/>
		<path id="XMLID_1395_" d="M348.3,1137v-25h20v25H348.3z"/>
		<path id="XMLID_1397_" d="M213.3,1180v-25h20v25H213.3z"/>
		<path id="XMLID_1399_" d="M233.3,1180v-25h20v25H233.3z"/>
		<path id="XMLID_1401_" d="M263.3,1180v-25h20v25H263.3z"/>
	</g>
</g>
<g id="XMLID_36_">
	<circle id="XMLID_33_" class="st1" cx="640.8" cy="891.9" r="100"/>
	<g id="XMLID_1257_">
		<path id="XMLID_1258_" d="M528.3,1051v-25h20v25H528.3z"/>
		<path id="XMLID_1260_" d="M548.3,1051v-25h20v25H548.3z"/>
		<path id="XMLID_1262_" d="M568.3,1051v-25h20v25H568.3z"/>
		<path id="XMLID_1264_" d="M588.3,1051v-25h20v25H588.3z"/>
		<path id="XMLID_1266_" d="M608.3,1051v-25h20v25H608.3z"/>
		<path id="XMLID_1268_" d="M638.3,1051v-25h20v25H638.3z"/>
		<path id="XMLID_1270_" d="M658.3,1051v-25h20v25H658.3z"/>
		<path id="XMLID_1272_" d="M678.3,1051v-25h20v25H678.3z"/>
		<path id="XMLID_1274_" d="M698.3,1051v-25h20v25H698.3z"/>
		<path id="XMLID_1276_" d="M728.3,1051v-25h20v25H728.3z"/>
		<path id="XMLID_1278_" d="M503.3,1094v-25h20v25H503.3z"/>
		<path id="XMLID_1280_" d="M523.3,1094v-25h20v25H523.3z"/>
		<path id="XMLID_1282_" d="M543.3,1094v-25h20v25H543.3z"/>
		<path id="XMLID_1284_" d="M573.3,1094v-25h20v25H573.3z"/>
		<path id="XMLID_1286_" d="M593.3,1094v-25h20v25H593.3z"/>
		<path id="XMLID_1288_" d="M613.3,1094v-25h20v25H613.3z"/>
		<path id="XMLID_1290_" d="M633.3,1094v-25h20v25H633.3z"/>
		<path id="XMLID_1292_" d="M653.3,1094v-25h20v25H653.3z"/>
		<path id="XMLID_1294_" d="M673.3,1094v-25h20v25H673.3z"/>
		<path id="XMLID_1296_" d="M713.3,1094v-25h20v25H713.3z"/>
		<path id="XMLID_1298_" d="M733.3,1094v-25h20v25H733.3z"/>
		<path id="XMLID_1300_" d="M753.3,1094v-25h20v25H753.3z"/>
		<path id="XMLID_1302_" d="M518.3,1137v-25h20v25H518.3z"/>
		<path id="XMLID_1304_" d="M538.3,1137v-25h20v25H538.3z"/>
		<path id="XMLID_1306_" d="M558.3,1137v-25h20v25H558.3z"/>
		<path id="XMLID_1308_" d="M578.3,1137v-25h20v25H578.3z"/>
		<path id="XMLID_1310_" d="M608.3,1137v-25h20v25H608.3z"/>
		<path id="XMLID_1312_" d="M628.3,1137v-25h20v25H628.3z"/>
		<path id="XMLID_1314_" d="M648.3,1137v-25h20v25H648.3z"/>
		<path id="XMLID_1316_" d="M668.3,1137v-25h20v25H668.3z"/>
		<path id="XMLID_1318_" d="M688.3,1137v-25h20v25H688.3z"/>
		<path id="XMLID_1320_" d="M718.3,1137v-25h20v25H718.3z"/>
		<path id="XMLID_1322_" d="M738.3,1137v-25h20v25H738.3z"/>
		<path id="XMLID_1324_" d="M603.3,1180v-25h20v25H603.3z"/>
		<path id="XMLID_1326_" d="M623.3,1180v-25h20v25H623.3z"/>
		<path id="XMLID_1328_" d="M653.3,1180v-25h20v25H653.3z"/>
	</g>
</g>
<g id="XMLID_31_">
	<circle id="XMLID_35_" class="st1" cx="1030.8" cy="891.9" r="100"/>
	<g id="XMLID_1184_">
		<path id="XMLID_1185_" d="M918.3,1051v-25h20v25H918.3z"/>
		<path id="XMLID_1187_" d="M938.3,1051v-25h20v25H938.3z"/>
		<path id="XMLID_1189_" d="M958.3,1051v-25h20v25H958.3z"/>
		<path id="XMLID_1191_" d="M978.3,1051v-25h20v25H978.3z"/>
		<path id="XMLID_1193_" d="M998.3,1051v-25h20v25H998.3z"/>
		<path id="XMLID_1195_" d="M1028.3,1051v-25h20v25H1028.3z"/>
		<path id="XMLID_1197_" d="M1048.3,1051v-25h20v25H1048.3z"/>
		<path id="XMLID_1199_" d="M1068.3,1051v-25h20v25H1068.3z"/>
		<path id="XMLID_1201_" d="M1088.3,1051v-25h20v25H1088.3z"/>
		<path id="XMLID_1203_" d="M1118.3,1051v-25h20v25H1118.3z"/>
		<path id="XMLID_1205_" d="M893.3,1094v-25h20v25H893.3z"/>
		<path id="XMLID_1207_" d="M913.3,1094v-25h20v25H913.3z"/>
		<path id="XMLID_1209_" d="M933.3,1094v-25h20v25H933.3z"/>
		<path id="XMLID_1211_" d="M963.3,1094v-25h20v25H963.3z"/>
		<path id="XMLID_1213_" d="M983.3,1094v-25h20v25H983.3z"/>
		<path id="XMLID_1215_" d="M1003.3,1094v-25h20v25H1003.3z"/>
		<path id="XMLID_1217_" d="M1023.3,1094v-25h20v25H1023.3z"/>
		<path id="XMLID_1219_" d="M1043.3,1094v-25h20v25H1043.3z"/>
		<path id="XMLID_1221_" d="M1063.3,1094v-25h20v25H1063.3z"/>
		<path id="XMLID_1223_" d="M1103.3,1094v-25h20v25H1103.3z"/>
		<path id="XMLID_1225_" d="M1123.3,1094v-25h20v25H1123.3z"/>
		<path id="XMLID_1227_" d="M1143.3,1094v-25h20v25H1143.3z"/>
		<path id="XMLID_1229_" d="M908.3,1137v-25h20v25H908.3z"/>
		<path id="XMLID_1231_" d="M928.3,1137v-25h20v25H928.3z"/>
		<path id="XMLID_1233_" d="M948.3,1137v-25h20v25H948.3z"/>
		<path id="XMLID_1235_" d="M968.3,1137v-25h20v25H968.3z"/>
		<path id="XMLID_1237_" d="M998.3,1137v-25h20v25H998.3z"/>
		<path id="XMLID_1239_" d="M1018.3,1137v-25h20v25H1018.3z"/>
		<path id="XMLID_1241_" d="M1038.3,1137v-25h20v25H1038.3z"/>
		<path id="XMLID_1243_" d="M1058.3,1137v-25h20v25H1058.3z"/>
		<path id="XMLID_1245_" d="M1078.3,1137v-25h20v25H1078.3z"/>
		<path id="XMLID_1247_" d="M1108.3,1137v-25h20v25H1108.3z"/>
		<path id="XMLID_1249_" d="M1128.3,1137v-25h20v25H1128.3z"/>
		<path id="XMLID_1251_" d="M993.3,1180v-25h20v25H993.3z"/>
		<path id="XMLID_1253_" d="M1013.3,1180v-25h20v25H1013.3z"/>
		<path id="XMLID_1255_" d="M1043.3,1180v-25h20v25H1043.3z"/>
	</g>
</g>
<g id="XMLID_1067_">
	<path id="XMLID_1068_" d="M148.3,396.8v-25h20v25H148.3z"/>
	<path id="XMLID_1070_" d="M168.3,396.8v-25h20v25H168.3z"/>
	<path id="XMLID_1072_" d="M188.3,396.8v-25h20v25H188.3z"/>
	<path id="XMLID_1074_" d="M208.3,396.8v-25h20v25H208.3z"/>
	<path id="XMLID_1076_" d="M228.3,396.8v-25h20v25H228.3z"/>
	<path id="XMLID_1078_" d="M248.3,396.8v-25h20v25H248.3z"/>
	<path id="XMLID_1080_" d="M278.3,396.8v-25h20v25H278.3z"/>
	<path id="XMLID_1082_" d="M298.3,396.8v-25h20v25H298.3z"/>
	<path id="XMLID_1084_" d="M318.3,396.8v-25h20v25H318.3z"/>
	<path id="XMLID_1086_" d="M338.3,396.8v-25h20v25H338.3z"/>
	<path id="XMLID_1088_" d="M358.3,396.8v-25h20v25H358.3z"/>
	<path id="XMLID_1090_" d="M388.3,396.8v-25h20v25H388.3z"/>
	<path id="XMLID_1092_" d="M408.3,396.8v-25h20v25H408.3z"/>
	<path id="XMLID_1094_" d="M428.3,396.8v-25h20v25H428.3z"/>
	<path id="XMLID_1096_" d="M448.3,396.8v-25h20v25H448.3z"/>
	<path id="XMLID_1098_" d="M468.3,396.8v-25h20v25H468.3z"/>
	<path id="XMLID_1100_" d="M488.3,396.8v-25h20v25H488.3z"/>
	<path id="XMLID_1102_" d="M508.3,396.8v-25h20v25H508.3z"/>
	<path id="XMLID_1104_" d="M528.3,396.8v-25h20v25H528.3z"/>
	<path id="XMLID_1106_" d="M548.3,396.8v-25h20v25H548.3z"/>
	<path id="XMLID_1108_" d="M568.3,396.8v-25h20v25H568.3z"/>
	<path id="XMLID_1110_" d="M598.3,396.8v-25h20v25H598.3z"/>
	<path id="XMLID_1112_" d="M618.3,396.8v-25h20v25H618.3z"/>
	<path id="XMLID_1114_" d="M638.3,396.8v-25h20v25H638.3z"/>
	<path id="XMLID_1116_" d="M658.3,396.8v-25h20v25H658.3z"/>
	<path id="XMLID_1118_" d="M148.3,439.8v-25h20v25H148.3z"/>
	<path id="XMLID_1120_" d="M168.3,439.8v-25h20v25H168.3z"/>
	<path id="XMLID_1122_" d="M188.3,439.8v-25h20v25H188.3z"/>
	<path id="XMLID_1124_" d="M208.3,439.8v-25h20v25H208.3z"/>
	<path id="XMLID_1126_" d="M228.3,439.8v-25h20v25H228.3z"/>
	<path id="XMLID_1128_" d="M258.3,439.8v-25h20v25H258.3z"/>
	<path id="XMLID_1130_" d="M278.3,439.8v-25h20v25H278.3z"/>
	<path id="XMLID_1132_" d="M298.3,439.8v-25h20v25H298.3z"/>
	<path id="XMLID_1134_" d="M318.3,439.8v-25h20v25H318.3z"/>
	<path id="XMLID_1136_" d="M348.3,439.8v-25h20v25H348.3z"/>
	<path id="XMLID_1138_" d="M368.3,439.8v-25h20v25H368.3z"/>
	<path id="XMLID_1140_" d="M388.3,439.8v-25h20v25H388.3z"/>
	<path id="XMLID_1142_" d="M408.3,439.8v-25h20v25H408.3z"/>
	<path id="XMLID_1144_" d="M428.3,439.8v-25h20v25H428.3z"/>
	<path id="XMLID_1146_" d="M448.3,439.8v-25h20v25H448.3z"/>
	<path id="XMLID_1148_" d="M478.3,439.8v-25h20v25H478.3z"/>
	<path id="XMLID_1150_" d="M498.3,439.8v-25h20v25H498.3z"/>
	<path id="XMLID_1152_" d="M148.3,482.8v-25h20v25H148.3z"/>
	<path id="XMLID_1154_" d="M168.3,482.8v-25h20v25H168.3z"/>
	<path id="XMLID_1156_" d="M188.3,482.8v-25h20v25H188.3z"/>
	<path id="XMLID_1158_" d="M208.3,482.8v-25h20v25H208.3z"/>
	<path id="XMLID_1160_" d="M228.3,482.8v-25h20v25H228.3z"/>
	<path id="XMLID_1162_" d="M258.3,482.8v-25h20v25H258.3z"/>
	<path id="XMLID_1164_" d="M278.3,482.8v-25h20v25H278.3z"/>
	<path id="XMLID_1166_" d="M298.3,482.8v-25h20v25H298.3z"/>
	<path id="XMLID_1168_" d="M318.3,482.8v-25h20v25H318.3z"/>
	<path id="XMLID_1170_" d="M338.3,482.8v-25h20v25H338.3z"/>
	<path id="XMLID_1172_" d="M358.3,482.8v-25h20v25H358.3z"/>
	<path id="XMLID_1174_" d="M378.3,482.8v-25h20v25H378.3z"/>
	<path id="XMLID_1176_" d="M408.3,482.8v-25h20v25H408.3z"/>
	<path id="XMLID_1178_" d="M428.3,482.8v-25h20v25H428.3z"/>
	<path id="XMLID_1180_" d="M448.3,482.8v-25h20v25H448.3z"/>
	<path id="XMLID_1182_" d="M468.3,482.8v-25h20v25H468.3z"/>
</g>
<g id="XMLID_1016_">
	<path id="XMLID_1017_" d="M147,309.8v-37.5h30v37.5H147z"/>
	<path id="XMLID_1019_" d="M177,309.8v-37.5h30v37.5H177z"/>
	<path id="XMLID_1021_" d="M207,309.8v-37.5h30v37.5H207z"/>
	<path id="XMLID_1023_" d="M237,309.8v-37.5h30v37.5H237z"/>
	<path id="XMLID_1025_" d="M267,309.8v-37.5h30v37.5H267z"/>
	<path id="XMLID_1027_" d="M297,309.8v-37.5h30v37.5H297z"/>
	<path id="XMLID_1029_" d="M327,309.8v-37.5h30v37.5H327z"/>
	<path id="XMLID_1031_" d="M357,309.8v-37.5h30v37.5H357z"/>
	<path id="XMLID_1033_" d="M387,309.8v-37.5h30v37.5H387z"/>
	<path id="XMLID_1035_" d="M432,309.8v-37.5h30v37.5H432z"/>
	<path id="XMLID_1037_" d="M462,309.8v-37.5h30v37.5H462z"/>
	<path id="XMLID_1039_" d="M492,309.8v-37.5h30v37.5H492z"/>
	<path id="XMLID_1041_" d="M522,309.8v-37.5h30v37.5H522z"/>
	<path id="XMLID_1043_" d="M567,309.8v-37.5h30v37.5H567z"/>
	<path id="XMLID_1045_" d="M597,309.8v-37.5h30v37.5H597z"/>
	<path id="XMLID_1047_" d="M642,309.8v-37.5h30v37.5H642z"/>
	<path id="XMLID_1049_" d="M672,309.8v-37.5h30v37.5H672z"/>
	<path id="XMLID_1051_" d="M702,309.8v-37.5h30v37.5H702z"/>
	<path id="XMLID_1053_" d="M747,309.8v-37.5h30v37.5H747z"/>
	<path id="XMLID_1055_" d="M777,309.8v-37.5h30v37.5H777z"/>
	<path id="XMLID_1057_" d="M807,309.8v-37.5h30v37.5H807z"/>
	<path id="XMLID_1059_" d="M837,309.8v-37.5h30v37.5H837z"/>
	<path id="XMLID_1061_" d="M867,309.8v-37.5h30v37.5H867z"/>
	<path id="XMLID_1063_" d="M897,309.8v-37.5h30v37.5H897z"/>
	<path id="XMLID_1065_" d="M927,309.8v-37.5h30v37.5H927z"/>
</g>
<g id="XMLID_937_">
	<path id="XMLID_938_" d="M293.3,1431.9v-45h36v45H293.3z"/>
	<path id="XMLID_940_" d="M329.3,1431.9v-45h36v45H329.3z"/>
	<path id="XMLID_942_" d="M365.3,1431.9v-45h36v45H365.3z"/>
	<path id="XMLID_944_" d="M401.3,1431.9v-45h36v45H401.3z"/>
	<path id="XMLID_946_" d="M437.3,1431.9v-45h36v45H437.3z"/>
	<path id="XMLID_948_" d="M473.3,1431.9v-45h36v45H473.3z"/>
	<path id="XMLID_950_" d="M509.3,1431.9v-45h36v45H509.3z"/>
	<path id="XMLID_952_" d="M545.3,1431.9v-45h36v45H545.3z"/>
	<path id="XMLID_954_" d="M599.3,1431.9v-45h36v45H599.3z"/>
	<path id="XMLID_956_" d="M635.3,1431.9v-45h36v45H635.3z"/>
	<path id="XMLID_958_" d="M671.3,1431.9v-45h36v45H671.3z"/>
	<path id="XMLID_960_" d="M707.3,1431.9v-45h36v45H707.3z"/>
	<path id="XMLID_962_" d="M761.3,1431.9v-45h36v45H761.3z"/>
	<path id="XMLID_964_" d="M797.3,1431.9v-45h36v45H797.3z"/>
	<path id="XMLID_966_" d="M833.3,1431.9v-45h36v45H833.3z"/>
	<path id="XMLID_968_" d="M338.3,1487.9v-45h36v45H338.3z"/>
	<path id="XMLID_970_" d="M374.3,1487.9v-45h36v45H374.3z"/>
	<path id="XMLID_972_" d="M410.3,1487.9v-45h36v45H410.3z"/>
	<path id="XMLID_974_" d="M464.3,1487.9v-45h36v45H464.3z"/>
	<path id="XMLID_976_" d="M500.3,1487.9v-45h36v45H500.3z"/>
	<path id="XMLID_978_" d="M536.3,1487.9v-45h36v45H536.3z"/>
	<path id="XMLID_980_" d="M572.3,1487.9v-45h36v45H572.3z"/>
	<path id="XMLID_982_" d="M608.3,1487.9v-45h36v45H608.3z"/>
	<path id="XMLID_984_" d="M644.3,1487.9v-45h36v45H644.3z"/>
	<path id="XMLID_986_" d="M698.3,1487.9v-45h36v45H698.3z"/>
	<path id="XMLID_988_" d="M734.3,1487.9v-45h36v45H734.3z"/>
	<path id="XMLID_990_" d="M788.3,1487.9v-45h36v45H788.3z"/>
	<path id="XMLID_992_" d="M329.3,1543.9v-45h36v45H329.3z"/>
	<path id="XMLID_994_" d="M365.3,1543.9v-45h36v45H365.3z"/>
	<path id="XMLID_996_" d="M419.3,1543.9v-45h36v45H419.3z"/>
	<path id="XMLID_998_" d="M455.3,1543.9v-45h36v45H455.3z"/>
	<path id="XMLID_1000_" d="M509.3,1543.9v-45h36v45H509.3z"/>
	<path id="XMLID_1002_" d="M545.3,1543.9v-45h36v45H545.3z"/>
	<path id="XMLID_1004_" d="M581.3,1543.9v-45h36v45H581.3z"/>
	<path id="XMLID_1006_" d="M635.3,1543.9v-45h36v45H635.3z"/>
	<path id="XMLID_1008_" d="M671.3,1543.9v-45h36v45H671.3z"/>
	<path id="XMLID_1010_" d="M707.3,1543.9v-45h36v45H707.3z"/>
	<path id="XMLID_1012_" d="M761.3,1543.9v-45h36v45H761.3z"/>
	<path id="XMLID_1014_" d="M797.3,1543.9v-45h36v45H797.3z"/>
</g>
<path id="XMLID_41_" class="st2" d="M788.3,1776.9h-405c-13.2,0-24-10.8-24-24v-102c0-13.2,10.8-24,24-24h405c13.2,0,24,10.8,24,24
	v102C812.3,1766.1,801.5,1776.9,788.3,1776.9z"/>
<g id="XMLID_918_">
	<path id="XMLID_919_" class="st3" d="M410.3,1728.9v-45h36v45H410.3z"/>
	<path id="XMLID_921_" class="st3" d="M446.3,1728.9v-45h36v45H446.3z"/>
	<path id="XMLID_923_" class="st3" d="M482.3,1728.9v-45h36v45H482.3z"/>
	<path id="XMLID_925_" class="st3" d="M536.3,1728.9v-45h36v45H536.3z"/>
	<path id="XMLID_927_" class="st3" d="M572.3,1728.9v-45h36v45H572.3z"/>
	<path id="XMLID_929_" class="st3" d="M608.3,1728.9v-45h36v45H608.3z"/>
	<path id="XMLID_931_" class="st3" d="M662.3,1728.9v-45h36v45H662.3z"/>
	<path id="XMLID_933_" class="st3" d="M698.3,1728.9v-45h36v45H698.3z"/>
	<path id="XMLID_935_" class="st3" d="M734.3,1728.9v-45h36v45H734.3z"/>
</g>
<g id="XMLID_873_">
	<path id="XMLID_874_" d="M146.3,2044v-45h36v45H146.3z"/>
	<path id="XMLID_876_" d="M200.3,2044v-45h36v45H200.3z"/>
	<path id="XMLID_878_" d="M236.3,2044v-45h36v45H236.3z"/>
	<path id="XMLID_880_" d="M272.3,2044v-45h36v45H272.3z"/>
	<path id="XMLID_882_" d="M308.3,2044v-45h36v45H308.3z"/>
	<path id="XMLID_884_" d="M344.3,2044v-45h36v45H344.3z"/>
	<path id="XMLID_886_" d="M380.3,2044v-45h36v45H380.3z"/>
	<path id="XMLID_888_" d="M434.3,2044v-45h36v45H434.3z"/>
	<path id="XMLID_890_" d="M470.3,2044v-45h36v45H470.3z"/>
	<path id="XMLID_892_" d="M506.3,2044v-45h36v45H506.3z"/>
	<path id="XMLID_894_" d="M542.3,2044v-45h36v45H542.3z"/>
	<path id="XMLID_896_" d="M578.3,2044v-45h36v45H578.3z"/>
	<path id="XMLID_898_" d="M614.3,2044v-45h36v45H614.3z"/>
	<path id="XMLID_900_" d="M650.3,2044v-45h36v45H650.3z"/>
	<path id="XMLID_902_" d="M686.3,2044v-45h36v45H686.3z"/>
	<path id="XMLID_904_" d="M722.3,2044v-45h36v45H722.3z"/>
	<path id="XMLID_906_" d="M776.3,2044v-45h36v45H776.3z"/>
	<path id="XMLID_908_" d="M812.3,2044v-45h36v45H812.3z"/>
	<path id="XMLID_910_" d="M848.3,2044v-45h36v45H848.3z"/>
	<path id="XMLID_912_" d="M884.3,2044v-45h36v45H884.3z"/>
	<path id="XMLID_914_" d="M938.3,2044v-45h36v45H938.3z"/>
	<path id="XMLID_916_" d="M974.3,2044v-45h36v45H974.3z"/>
</g>
<g id="XMLID_46_">
	<path id="XMLID_47_" d="M149.3,2122v-15h12v15H149.3z"/>
	<path id="XMLID_49_" d="M161.3,2122v-15h12v15H161.3z"/>
	<path id="XMLID_51_" d="M173.3,2122v-15h12v15H173.3z"/>
	<path id="XMLID_53_" d="M185.3,2122v-15h12v15H185.3z"/>
	<path id="XMLID_55_" d="M197.3,2122v-15h12v15H197.3z"/>
	<path id="XMLID_57_" d="M215.3,2122v-15h12v15H215.3z"/>
	<path id="XMLID_59_" d="M227.3,2122v-15h12v15H227.3z"/>
	<path id="XMLID_61_" d="M239.3,2122v-15h12v15H239.3z"/>
	<path id="XMLID_63_" d="M257.3,2122v-15h12v15H257.3z"/>
	<path id="XMLID_65_" d="M269.3,2122v-15h12v15H269.3z"/>
	<path id="XMLID_67_" d="M281.3,2122v-15h12v15H281.3z"/>
	<path id="XMLID_69_" d="M293.3,2122v-15h12v15H293.3z"/>
	<path id="XMLID_71_" d="M305.3,2122v-15h12v15H305.3z"/>
	<path id="XMLID_73_" d="M317.3,2122v-15h12v15H317.3z"/>
	<path id="XMLID_75_" d="M335.3,2122v-15h12v15H335.3z"/>
	<path id="XMLID_77_" d="M347.3,2122v-15h12v15H347.3z"/>
	<path id="XMLID_79_" d="M359.3,2122v-15h12v15H359.3z"/>
	<path id="XMLID_81_" d="M383.3,2122v-15h12v15H383.3z"/>
	<path id="XMLID_83_" d="M395.3,2122v-15h12v15H395.3z"/>
	<path id="XMLID_85_" d="M407.3,2122v-15h12v15H407.3z"/>
	<path id="XMLID_87_" d="M425.3,2122v-15h12v15H425.3z"/>
	<path id="XMLID_89_" d="M443.3,2122v-15h12v15H443.3z"/>
	<path id="XMLID_91_" d="M455.3,2122v-15h12v15H455.3z"/>
	<path id="XMLID_93_" d="M467.3,2122v-15h12v15H467.3z"/>
	<path id="XMLID_95_" d="M479.3,2122v-15h12v15H479.3z"/>
	<path id="XMLID_97_" d="M491.3,2122v-15h12v15H491.3z"/>
	<path id="XMLID_99_" d="M503.3,2122v-15h12v15H503.3z"/>
	<path id="XMLID_101_" d="M515.3,2122v-15h12v15H515.3z"/>
	<path id="XMLID_103_" d="M527.3,2122v-15h12v15H527.3z"/>
	<path id="XMLID_105_" d="M545.3,2122v-15h12v15H545.3z"/>
	<path id="XMLID_107_" d="M557.3,2122v-15h12v15H557.3z"/>
	<path id="XMLID_109_" d="M569.3,2122v-15h12v15H569.3z"/>
	<path id="XMLID_111_" d="M581.3,2122v-15h12v15H581.3z"/>
	<path id="XMLID_113_" d="M593.3,2122v-15h12v15H593.3z"/>
	<path id="XMLID_115_" d="M605.3,2122v-15h12v15H605.3z"/>
	<path id="XMLID_117_" d="M617.3,2122v-15h12v15H617.3z"/>
	<path id="XMLID_119_" d="M629.3,2122v-15h12v15H629.3z"/>
	<path id="XMLID_121_" d="M641.3,2122v-15h12v15H641.3z"/>
	<path id="XMLID_123_" d="M659.3,2122v-15h12v15H659.3z"/>
	<path id="XMLID_125_" d="M671.3,2122v-15h12v15H671.3z"/>
	<path id="XMLID_127_" d="M683.3,2122v-15h12v15H683.3z"/>
	<path id="XMLID_129_" d="M701.3,2122v-15h12v15H701.3z"/>
	<path id="XMLID_131_" d="M713.3,2122v-15h12v15H713.3z"/>
	<path id="XMLID_133_" d="M725.3,2122v-15h12v15H725.3z"/>
	<path id="XMLID_135_" d="M737.3,2122v-15h12v15H737.3z"/>
	<path id="XMLID_137_" d="M749.3,2122v-15h12v15H749.3z"/>
	<path id="XMLID_139_" d="M761.3,2122v-15h12v15H761.3z"/>
	<path id="XMLID_141_" d="M773.3,2122v-15h12v15H773.3z"/>
	<path id="XMLID_143_" d="M785.3,2122v-15h12v15H785.3z"/>
	<path id="XMLID_145_" d="M803.3,2122v-15h12v15H803.3z"/>
	<path id="XMLID_147_" d="M815.3,2122v-15h12v15H815.3z"/>
	<path id="XMLID_149_" d="M827.3,2122v-15h12v15H827.3z"/>
	<path id="XMLID_151_" d="M839.3,2122v-15h12v15H839.3z"/>
	<path id="XMLID_153_" d="M851.3,2122v-15h12v15H851.3z"/>
	<path id="XMLID_155_" d="M869.3,2122v-15h12v15H869.3z"/>
	<path id="XMLID_157_" d="M881.3,2122v-15h12v15H881.3z"/>
	<path id="XMLID_159_" d="M893.3,2122v-15h12v15H893.3z"/>
	<path id="XMLID_161_" d="M905.3,2122v-15h12v15H905.3z"/>
	<path id="XMLID_163_" d="M917.3,2122v-15h12v15H917.3z"/>
	<path id="XMLID_165_" d="M935.3,2122v-15h12v15H935.3z"/>
	<path id="XMLID_167_" d="M947.3,2122v-15h12v15H947.3z"/>
	<path id="XMLID_169_" d="M959.3,2122v-15h12v15H959.3z"/>
	<path id="XMLID_171_" d="M971.3,2122v-15h12v15H971.3z"/>
	<path id="XMLID_173_" d="M983.3,2122v-15h12v15H983.3z"/>
	<path id="XMLID_175_" d="M995.3,2122v-15h12v15H995.3z"/>
	<path id="XMLID_177_" d="M1013.3,2122v-15h12v15H1013.3z"/>
	<path id="XMLID_179_" d="M1025.3,2122v-15h12v15H1025.3z"/>
	<path id="XMLID_181_" d="M1037.3,2122v-15h12v15H1037.3z"/>
	<path id="XMLID_183_" d="M1049.3,2122v-15h12v15H1049.3z"/>
	<path id="XMLID_185_" d="M1067.3,2122v-15h12v15H1067.3z"/>
	<path id="XMLID_187_" d="M1079.3,2122v-15h12v15H1079.3z"/>
	<path id="XMLID_189_" d="M1091.3,2122v-15h12v15H1091.3z"/>
	<path id="XMLID_191_" d="M1103.3,2122v-15h12v15H1103.3z"/>
	<path id="XMLID_193_" d="M1115.3,2122v-15h12v15H1115.3z"/>
	<path id="XMLID_195_" d="M1127.3,2122v-15h12v15H1127.3z"/>
	<path id="XMLID_197_" d="M1139.3,2122v-15h12v15H1139.3z"/>
	<path id="XMLID_199_" d="M1157.3,2122v-15h12v15H1157.3z"/>
	<path id="XMLID_201_" d="M1169.3,2122v-15h12v15H1169.3z"/>
	<path id="XMLID_203_" d="M1181.3,2122v-15h12v15H1181.3z"/>
	<path id="XMLID_205_" d="M149.3,2160v-15h12v15H149.3z"/>
	<path id="XMLID_207_" d="M161.3,2160v-15h12v15H161.3z"/>
	<path id="XMLID_209_" d="M173.3,2160v-15h12v15H173.3z"/>
	<path id="XMLID_211_" d="M191.3,2160v-15h12v15H191.3z"/>
	<path id="XMLID_213_" d="M203.3,2160v-15h12v15H203.3z"/>
	<path id="XMLID_215_" d="M215.3,2160v-15h12v15H215.3z"/>
	<path id="XMLID_217_" d="M233.3,2160v-15h12v15H233.3z"/>
	<path id="XMLID_219_" d="M245.3,2160v-15h12v15H245.3z"/>
	<path id="XMLID_221_" d="M257.3,2160v-15h12v15H257.3z"/>
	<path id="XMLID_223_" d="M269.3,2160v-15h12v15H269.3z"/>
	<path id="XMLID_225_" d="M287.3,2160v-15h12v15H287.3z"/>
	<path id="XMLID_227_" d="M299.3,2160v-15h12v15H299.3z"/>
	<path id="XMLID_229_" d="M311.3,2160v-15h12v15H311.3z"/>
	<path id="XMLID_231_" d="M323.3,2160v-15h12v15H323.3z"/>
	<path id="XMLID_233_" d="M341.3,2160v-15h12v15H341.3z"/>
	<path id="XMLID_235_" d="M353.3,2160v-15h12v15H353.3z"/>
	<path id="XMLID_237_" d="M365.3,2160v-15h12v15H365.3z"/>
	<path id="XMLID_239_" d="M377.3,2160v-15h12v15H377.3z"/>
	<path id="XMLID_241_" d="M389.3,2160v-15h12v15H389.3z"/>
	<path id="XMLID_243_" d="M407.3,2160v-15h12v15H407.3z"/>
	<path id="XMLID_245_" d="M425.3,2160v-15h12v15H425.3z"/>
	<path id="XMLID_247_" d="M437.3,2160v-15h12v15H437.3z"/>
	<path id="XMLID_249_" d="M449.3,2160v-15h12v15H449.3z"/>
	<path id="XMLID_251_" d="M467.3,2160v-15h12v15H467.3z"/>
	<path id="XMLID_253_" d="M485.3,2160v-15h12v15H485.3z"/>
	<path id="XMLID_255_" d="M497.3,2160v-15h12v15H497.3z"/>
	<path id="XMLID_257_" d="M509.3,2160v-15h12v15H509.3z"/>
	<path id="XMLID_259_" d="M521.3,2160v-15h12v15H521.3z"/>
	<path id="XMLID_261_" d="M539.3,2160v-15h12v15H539.3z"/>
	<path id="XMLID_263_" d="M551.3,2160v-15h12v15H551.3z"/>
	<path id="XMLID_265_" d="M563.3,2160v-15h12v15H563.3z"/>
	<path id="XMLID_267_" d="M575.3,2160v-15h12v15H575.3z"/>
	<path id="XMLID_269_" d="M587.3,2160v-15h12v15H587.3z"/>
	<path id="XMLID_271_" d="M599.3,2160v-15h12v15H599.3z"/>
	<path id="XMLID_273_" d="M611.3,2160v-15h12v15H611.3z"/>
	<path id="XMLID_275_" d="M629.3,2160v-15h12v15H629.3z"/>
	<path id="XMLID_277_" d="M641.3,2160v-15h12v15H641.3z"/>
	<path id="XMLID_279_" d="M653.3,2160v-15h12v15H653.3z"/>
	<path id="XMLID_281_" d="M665.3,2160v-15h12v15H665.3z"/>
	<path id="XMLID_283_" d="M677.3,2160v-15h12v15H677.3z"/>
	<path id="XMLID_285_" d="M689.3,2160v-15h12v15H689.3z"/>
	<path id="XMLID_287_" d="M707.3,2160v-15h12v15H707.3z"/>
	<path id="XMLID_289_" d="M725.3,2160v-15h12v15H725.3z"/>
	<path id="XMLID_291_" d="M737.3,2160v-15h12v15H737.3z"/>
	<path id="XMLID_293_" d="M755.3,2160v-15h12v15H755.3z"/>
	<path id="XMLID_295_" d="M767.3,2160v-15h12v15H767.3z"/>
	<path id="XMLID_297_" d="M779.3,2160v-15h12v15H779.3z"/>
	<path id="XMLID_299_" d="M797.3,2160v-15h12v15H797.3z"/>
	<path id="XMLID_301_" d="M809.3,2160v-15h12v15H809.3z"/>
	<path id="XMLID_303_" d="M821.3,2160v-15h12v15H821.3z"/>
	<path id="XMLID_305_" d="M149.3,2198v-15h12v15H149.3z"/>
	<path id="XMLID_307_" d="M161.3,2198v-15h12v15H161.3z"/>
	<path id="XMLID_309_" d="M179.3,2198v-15h12v15H179.3z"/>
	<path id="XMLID_311_" d="M191.3,2198v-15h12v15H191.3z"/>
	<path id="XMLID_313_" d="M203.3,2198v-15h12v15H203.3z"/>
	<path id="XMLID_315_" d="M215.3,2198v-15h12v15H215.3z"/>
	<path id="XMLID_317_" d="M227.3,2198v-15h12v15H227.3z"/>
	<path id="XMLID_319_" d="M257.3,2198v-15h12v15H257.3z"/>
	<path id="XMLID_321_" d="M269.3,2198v-15h12v15H269.3z"/>
	<path id="XMLID_323_" d="M281.3,2198v-15h12v15H281.3z"/>
	<path id="XMLID_325_" d="M293.3,2198v-15h12v15H293.3z"/>
	<path id="XMLID_327_" d="M305.3,2198v-15h12v15H305.3z"/>
	<path id="XMLID_329_" d="M323.3,2198v-15h12v15H323.3z"/>
	<path id="XMLID_331_" d="M335.3,2198v-15h12v15H335.3z"/>
	<path id="XMLID_333_" d="M347.3,2198v-15h12v15H347.3z"/>
	<path id="XMLID_335_" d="M359.3,2198v-15h12v15H359.3z"/>
	<path id="XMLID_337_" d="M377.3,2198v-15h12v15H377.3z"/>
	<path id="XMLID_339_" d="M389.3,2198v-15h12v15H389.3z"/>
	<path id="XMLID_341_" d="M401.3,2198v-15h12v15H401.3z"/>
	<path id="XMLID_343_" d="M413.3,2198v-15h12v15H413.3z"/>
	<path id="XMLID_345_" d="M425.3,2198v-15h12v15H425.3z"/>
	<path id="XMLID_347_" d="M443.3,2198v-15h12v15H443.3z"/>
	<path id="XMLID_349_" d="M455.3,2198v-15h12v15H455.3z"/>
	<path id="XMLID_351_" d="M467.3,2198v-15h12v15H467.3z"/>
	<path id="XMLID_353_" d="M479.3,2198v-15h12v15H479.3z"/>
	<path id="XMLID_355_" d="M497.3,2198v-15h12v15H497.3z"/>
	<path id="XMLID_357_" d="M509.3,2198v-15h12v15H509.3z"/>
	<path id="XMLID_359_" d="M521.3,2198v-15h12v15H521.3z"/>
	<path id="XMLID_361_" d="M533.3,2198v-15h12v15H533.3z"/>
	<path id="XMLID_363_" d="M545.3,2198v-15h12v15H545.3z"/>
	<path id="XMLID_365_" d="M557.3,2198v-15h12v15H557.3z"/>
	<path id="XMLID_367_" d="M587.3,2198v-15h12v15H587.3z"/>
	<path id="XMLID_369_" d="M599.3,2198v-15h12v15H599.3z"/>
	<path id="XMLID_371_" d="M611.3,2198v-15h12v15H611.3z"/>
	<path id="XMLID_373_" d="M623.3,2198v-15h12v15H623.3z"/>
	<path id="XMLID_375_" d="M635.3,2198v-15h12v15H635.3z"/>
	<path id="XMLID_377_" d="M647.3,2198v-15h12v15H647.3z"/>
	<path id="XMLID_379_" d="M659.3,2198v-15h12v15H659.3z"/>
	<path id="XMLID_381_" d="M671.3,2198v-15h12v15H671.3z"/>
	<path id="XMLID_383_" d="M683.3,2198v-15h12v15H683.3z"/>
	<path id="XMLID_385_" d="M701.3,2198v-15h12v15H701.3z"/>
	<path id="XMLID_387_" d="M713.3,2198v-15h12v15H713.3z"/>
	<path id="XMLID_389_" d="M725.3,2198v-15h12v15H725.3z"/>
	<path id="XMLID_391_" d="M737.3,2198v-15h12v15H737.3z"/>
	<path id="XMLID_393_" d="M755.3,2198v-15h12v15H755.3z"/>
	<path id="XMLID_395_" d="M767.3,2198v-15h12v15H767.3z"/>
	<path id="XMLID_397_" d="M779.3,2198v-15h12v15H779.3z"/>
	<path id="XMLID_399_" d="M791.3,2198v-15h12v15H791.3z"/>
	<path id="XMLID_401_" d="M809.3,2198v-15h12v15H809.3z"/>
	<path id="XMLID_403_" d="M821.3,2198v-15h12v15H821.3z"/>
	<path id="XMLID_405_" d="M833.3,2198v-15h12v15H833.3z"/>
	<path id="XMLID_407_" d="M845.3,2198v-15h12v15H845.3z"/>
	<path id="XMLID_409_" d="M857.3,2198v-15h12v15H857.3z"/>
	<path id="XMLID_411_" d="M869.3,2198v-15h12v15H869.3z"/>
	<path id="XMLID_413_" d="M881.3,2198v-15h12v15H881.3z"/>
	<path id="XMLID_415_" d="M899.3,2198v-15h12v15H899.3z"/>
	<path id="XMLID_417_" d="M911.3,2198v-15h12v15H911.3z"/>
	<path id="XMLID_419_" d="M923.3,2198v-15h12v15H923.3z"/>
	<path id="XMLID_421_" d="M941.3,2198v-15h12v15H941.3z"/>
	<path id="XMLID_423_" d="M953.3,2198v-15h12v15H953.3z"/>
	<path id="XMLID_425_" d="M965.3,2198v-15h12v15H965.3z"/>
	<path id="XMLID_427_" d="M977.3,2198v-15h12v15H977.3z"/>
	<path id="XMLID_429_" d="M989.3,2198v-15h12v15H989.3z"/>
	<path id="XMLID_431_" d="M149.3,2236v-15h12v15H149.3z"/>
	<path id="XMLID_433_" d="M161.3,2236v-15h12v15H161.3z"/>
	<path id="XMLID_435_" d="M179.3,2236v-15h12v15H179.3z"/>
	<path id="XMLID_437_" d="M191.3,2236v-15h12v15H191.3z"/>
	<path id="XMLID_439_" d="M203.3,2236v-15h12v15H203.3z"/>
	<path id="XMLID_441_" d="M149.3,2274v-15h12v15H149.3z"/>
	<path id="XMLID_443_" d="M161.3,2274v-15h12v15H161.3z"/>
	<path id="XMLID_445_" d="M173.3,2274v-15h12v15H173.3z"/>
	<path id="XMLID_447_" d="M191.3,2274v-15h12v15H191.3z"/>
	<path id="XMLID_449_" d="M203.3,2274v-15h12v15H203.3z"/>
	<path id="XMLID_451_" d="M215.3,2274v-15h12v15H215.3z"/>
	<path id="XMLID_453_" d="M233.3,2274v-15h12v15H233.3z"/>
	<path id="XMLID_455_" d="M245.3,2274v-15h12v15H245.3z"/>
	<path id="XMLID_457_" d="M263.3,2274v-15h12v15H263.3z"/>
	<path id="XMLID_459_" d="M275.3,2274v-15h12v15H275.3z"/>
	<path id="XMLID_461_" d="M287.3,2274v-15h12v15H287.3z"/>
	<path id="XMLID_463_" d="M299.3,2274v-15h12v15H299.3z"/>
	<path id="XMLID_465_" d="M311.3,2274v-15h12v15H311.3z"/>
	<path id="XMLID_467_" d="M323.3,2274v-15h12v15H323.3z"/>
	<path id="XMLID_469_" d="M341.3,2274v-15h12v15H341.3z"/>
	<path id="XMLID_471_" d="M353.3,2274v-15h12v15H353.3z"/>
	<path id="XMLID_473_" d="M365.3,2274v-15h12v15H365.3z"/>
	<path id="XMLID_475_" d="M383.3,2274v-15h12v15H383.3z"/>
	<path id="XMLID_477_" d="M395.3,2274v-15h12v15H395.3z"/>
	<path id="XMLID_479_" d="M407.3,2274v-15h12v15H407.3z"/>
	<path id="XMLID_481_" d="M419.3,2274v-15h12v15H419.3z"/>
	<path id="XMLID_483_" d="M431.3,2274v-15h12v15H431.3z"/>
	<path id="XMLID_485_" d="M443.3,2274v-15h12v15H443.3z"/>
	<path id="XMLID_487_" d="M455.3,2274v-15h12v15H455.3z"/>
	<path id="XMLID_489_" d="M473.3,2274v-15h12v15H473.3z"/>
	<path id="XMLID_491_" d="M485.3,2274v-15h12v15H485.3z"/>
	<path id="XMLID_493_" d="M497.3,2274v-15h12v15H497.3z"/>
	<path id="XMLID_495_" d="M509.3,2274v-15h12v15H509.3z"/>
	<path id="XMLID_497_" d="M521.3,2274v-15h12v15H521.3z"/>
	<path id="XMLID_499_" d="M533.3,2274v-15h12v15H533.3z"/>
	<path id="XMLID_501_" d="M551.3,2274v-15h12v15H551.3z"/>
	<path id="XMLID_503_" d="M563.3,2274v-15h12v15H563.3z"/>
	<path id="XMLID_505_" d="M575.3,2274v-15h12v15H575.3z"/>
	<path id="XMLID_507_" d="M587.3,2274v-15h12v15H587.3z"/>
	<path id="XMLID_509_" d="M605.3,2274v-15h12v15H605.3z"/>
	<path id="XMLID_511_" d="M617.3,2274v-15h12v15H617.3z"/>
	<path id="XMLID_513_" d="M629.3,2274v-15h12v15H629.3z"/>
	<path id="XMLID_515_" d="M641.3,2274v-15h12v15H641.3z"/>
	<path id="XMLID_517_" d="M653.3,2274v-15h12v15H653.3z"/>
	<path id="XMLID_519_" d="M665.3,2274v-15h12v15H665.3z"/>
	<path id="XMLID_521_" d="M677.3,2274v-15h12v15H677.3z"/>
	<path id="XMLID_523_" d="M695.3,2274v-15h12v15H695.3z"/>
	<path id="XMLID_525_" d="M707.3,2274v-15h12v15H707.3z"/>
	<path id="XMLID_527_" d="M719.3,2274v-15h12v15H719.3z"/>
	<path id="XMLID_529_" d="M731.3,2274v-15h12v15H731.3z"/>
	<path id="XMLID_531_" d="M743.3,2274v-15h12v15H743.3z"/>
	<path id="XMLID_533_" d="M761.3,2274v-15h12v15H761.3z"/>
	<path id="XMLID_535_" d="M773.3,2274v-15h12v15H773.3z"/>
	<path id="XMLID_537_" d="M791.3,2274v-15h12v15H791.3z"/>
	<path id="XMLID_539_" d="M803.3,2274v-15h12v15H803.3z"/>
	<path id="XMLID_541_" d="M821.3,2274v-15h12v15H821.3z"/>
	<path id="XMLID_543_" d="M833.3,2274v-15h12v15H833.3z"/>
	<path id="XMLID_545_" d="M845.3,2274v-15h12v15H845.3z"/>
	<path id="XMLID_547_" d="M857.3,2274v-15h12v15H857.3z"/>
	<path id="XMLID_549_" d="M869.3,2274v-15h12v15H869.3z"/>
	<path id="XMLID_551_" d="M881.3,2274v-15h12v15H881.3z"/>
	<path id="XMLID_553_" d="M893.3,2274v-15h12v15H893.3z"/>
	<path id="XMLID_555_" d="M905.3,2274v-15h12v15H905.3z"/>
	<path id="XMLID_557_" d="M923.3,2274v-15h12v15H923.3z"/>
	<path id="XMLID_559_" d="M935.3,2274v-15h12v15H935.3z"/>
	<path id="XMLID_561_" d="M947.3,2274v-15h12v15H947.3z"/>
	<path id="XMLID_563_" d="M959.3,2274v-15h12v15H959.3z"/>
	<path id="XMLID_565_" d="M971.3,2274v-15h12v15H971.3z"/>
	<path id="XMLID_567_" d="M983.3,2274v-15h12v15H983.3z"/>
	<path id="XMLID_569_" d="M995.3,2274v-15h12v15H995.3z"/>
	<path id="XMLID_571_" d="M1007.3,2274v-15h12v15H1007.3z"/>
	<path id="XMLID_573_" d="M1025.3,2274v-15h12v15H1025.3z"/>
	<path id="XMLID_575_" d="M1037.3,2274v-15h12v15H1037.3z"/>
	<path id="XMLID_577_" d="M1049.3,2274v-15h12v15H1049.3z"/>
	<path id="XMLID_579_" d="M1061.3,2274v-15h12v15H1061.3z"/>
	<path id="XMLID_581_" d="M1073.3,2274v-15h12v15H1073.3z"/>
	<path id="XMLID_583_" d="M1091.3,2274v-15h12v15H1091.3z"/>
	<path id="XMLID_585_" d="M1103.3,2274v-15h12v15H1103.3z"/>
	<path id="XMLID_587_" d="M1115.3,2274v-15h12v15H1115.3z"/>
	<path id="XMLID_589_" d="M1133.3,2274v-15h12v15H1133.3z"/>
	<path id="XMLID_591_" d="M1145.3,2274v-15h12v15H1145.3z"/>
	<path id="XMLID_593_" d="M1157.3,2274v-15h12v15H1157.3z"/>
	<path id="XMLID_595_" d="M149.3,2312v-15h12v15H149.3z"/>
	<path id="XMLID_597_" d="M161.3,2312v-15h12v15H161.3z"/>
	<path id="XMLID_599_" d="M173.3,2312v-15h12v15H173.3z"/>
	<path id="XMLID_601_" d="M191.3,2312v-15h12v15H191.3z"/>
	<path id="XMLID_603_" d="M209.3,2312v-15h12v15H209.3z"/>
	<path id="XMLID_605_" d="M227.3,2312v-15h12v15H227.3z"/>
	<path id="XMLID_607_" d="M239.3,2312v-15h12v15H239.3z"/>
	<path id="XMLID_609_" d="M251.3,2312v-15h12v15H251.3z"/>
	<path id="XMLID_611_" d="M263.3,2312v-15h12v15H263.3z"/>
	<path id="XMLID_613_" d="M281.3,2312v-15h12v15H281.3z"/>
	<path id="XMLID_615_" d="M293.3,2312v-15h12v15H293.3z"/>
	<path id="XMLID_617_" d="M305.3,2312v-15h12v15H305.3z"/>
	<path id="XMLID_619_" d="M323.3,2312v-15h12v15H323.3z"/>
	<path id="XMLID_621_" d="M335.3,2312v-15h12v15H335.3z"/>
	<path id="XMLID_623_" d="M347.3,2312v-15h12v15H347.3z"/>
	<path id="XMLID_625_" d="M359.3,2312v-15h12v15H359.3z"/>
	<path id="XMLID_627_" d="M377.3,2312v-15h12v15H377.3z"/>
	<path id="XMLID_629_" d="M389.3,2312v-15h12v15H389.3z"/>
	<path id="XMLID_631_" d="M401.3,2312v-15h12v15H401.3z"/>
	<path id="XMLID_633_" d="M413.3,2312v-15h12v15H413.3z"/>
	<path id="XMLID_635_" d="M431.3,2312v-15h12v15H431.3z"/>
	<path id="XMLID_637_" d="M443.3,2312v-15h12v15H443.3z"/>
	<path id="XMLID_639_" d="M455.3,2312v-15h12v15H455.3z"/>
	<path id="XMLID_641_" d="M467.3,2312v-15h12v15H467.3z"/>
	<path id="XMLID_643_" d="M479.3,2312v-15h12v15H479.3z"/>
	<path id="XMLID_645_" d="M491.3,2312v-15h12v15H491.3z"/>
	<path id="XMLID_647_" d="M509.3,2312v-15h12v15H509.3z"/>
	<path id="XMLID_649_" d="M521.3,2312v-15h12v15H521.3z"/>
	<path id="XMLID_651_" d="M533.3,2312v-15h12v15H533.3z"/>
	<path id="XMLID_653_" d="M545.3,2312v-15h12v15H545.3z"/>
	<path id="XMLID_655_" d="M563.3,2312v-15h12v15H563.3z"/>
	<path id="XMLID_657_" d="M575.3,2312v-15h12v15H575.3z"/>
	<path id="XMLID_659_" d="M587.3,2312v-15h12v15H587.3z"/>
	<path id="XMLID_661_" d="M599.3,2312v-15h12v15H599.3z"/>
	<path id="XMLID_663_" d="M617.3,2312v-15h12v15H617.3z"/>
	<path id="XMLID_665_" d="M629.3,2312v-15h12v15H629.3z"/>
	<path id="XMLID_667_" d="M641.3,2312v-15h12v15H641.3z"/>
	<path id="XMLID_669_" d="M653.3,2312v-15h12v15H653.3z"/>
	<path id="XMLID_671_" d="M665.3,2312v-15h12v15H665.3z"/>
	<path id="XMLID_673_" d="M677.3,2312v-15h12v15H677.3z"/>
	<path id="XMLID_675_" d="M689.3,2312v-15h12v15H689.3z"/>
	<path id="XMLID_677_" d="M707.3,2312v-15h12v15H707.3z"/>
	<path id="XMLID_679_" d="M719.3,2312v-15h12v15H719.3z"/>
	<path id="XMLID_681_" d="M731.3,2312v-15h12v15H731.3z"/>
	<path id="XMLID_683_" d="M743.3,2312v-15h12v15H743.3z"/>
	<path id="XMLID_685_" d="M755.3,2312v-15h12v15H755.3z"/>
	<path id="XMLID_687_" d="M767.3,2312v-15h12v15H767.3z"/>
	<path id="XMLID_689_" d="M779.3,2312v-15h12v15H779.3z"/>
	<path id="XMLID_691_" d="M803.3,2312v-15h12v15H803.3z"/>
	<path id="XMLID_693_" d="M815.3,2312v-15h12v15H815.3z"/>
	<path id="XMLID_695_" d="M833.3,2312v-15h12v15H833.3z"/>
	<path id="XMLID_697_" d="M851.3,2312v-15h12v15H851.3z"/>
	<path id="XMLID_699_" d="M863.3,2312v-15h12v15H863.3z"/>
	<path id="XMLID_701_" d="M875.3,2312v-15h12v15H875.3z"/>
	<path id="XMLID_703_" d="M887.3,2312v-15h12v15H887.3z"/>
	<path id="XMLID_705_" d="M905.3,2312v-15h12v15H905.3z"/>
	<path id="XMLID_707_" d="M923.3,2312v-15h12v15H923.3z"/>
	<path id="XMLID_709_" d="M935.3,2312v-15h12v15H935.3z"/>
	<path id="XMLID_711_" d="M947.3,2312v-15h12v15H947.3z"/>
	<path id="XMLID_713_" d="M959.3,2312v-15h12v15H959.3z"/>
	<path id="XMLID_715_" d="M971.3,2312v-15h12v15H971.3z"/>
	<path id="XMLID_717_" d="M989.3,2312v-15h12v15H989.3z"/>
	<path id="XMLID_719_" d="M1007.3,2312v-15h12v15H1007.3z"/>
	<path id="XMLID_721_" d="M1025.3,2312v-15h12v15H1025.3z"/>
	<path id="XMLID_723_" d="M1037.3,2312v-15h12v15H1037.3z"/>
	<path id="XMLID_725_" d="M1049.3,2312v-15h12v15H1049.3z"/>
	<path id="XMLID_727_" d="M1061.3,2312v-15h12v15H1061.3z"/>
	<path id="XMLID_729_" d="M1079.3,2312v-15h12v15H1079.3z"/>
	<path id="XMLID_731_" d="M1091.3,2312v-15h12v15H1091.3z"/>
	<path id="XMLID_733_" d="M1103.3,2312v-15h12v15H1103.3z"/>
	<path id="XMLID_735_" d="M1115.3,2312v-15h12v15H1115.3z"/>
	<path id="XMLID_737_" d="M1133.3,2312v-15h12v15H1133.3z"/>
	<path id="XMLID_739_" d="M1145.3,2312v-15h12v15H1145.3z"/>
	<path id="XMLID_741_" d="M1157.3,2312v-15h12v15H1157.3z"/>
	<path id="XMLID_743_" d="M1169.3,2312v-15h12v15H1169.3z"/>
	<path id="XMLID_745_" d="M1181.3,2312v-15h12v15H1181.3z"/>
	<path id="XMLID_747_" d="M149.3,2350v-15h12v15H149.3z"/>
	<path id="XMLID_749_" d="M161.3,2350v-15h12v15H161.3z"/>
	<path id="XMLID_751_" d="M173.3,2350v-15h12v15H173.3z"/>
	<path id="XMLID_753_" d="M191.3,2350v-15h12v15H191.3z"/>
	<path id="XMLID_755_" d="M203.3,2350v-15h12v15H203.3z"/>
	<path id="XMLID_757_" d="M215.3,2350v-15h12v15H215.3z"/>
	<path id="XMLID_759_" d="M227.3,2350v-15h12v15H227.3z"/>
	<path id="XMLID_761_" d="M239.3,2350v-15h12v15H239.3z"/>
	<path id="XMLID_763_" d="M257.3,2350v-15h12v15H257.3z"/>
	<path id="XMLID_765_" d="M269.3,2350v-15h12v15H269.3z"/>
	<path id="XMLID_767_" d="M287.3,2350v-15h12v15H287.3z"/>
	<path id="XMLID_769_" d="M299.3,2350v-15h12v15H299.3z"/>
	<path id="XMLID_771_" d="M317.3,2350v-15h12v15H317.3z"/>
	<path id="XMLID_773_" d="M329.3,2350v-15h12v15H329.3z"/>
	<path id="XMLID_775_" d="M341.3,2350v-15h12v15H341.3z"/>
	<path id="XMLID_777_" d="M359.3,2350v-15h12v15H359.3z"/>
	<path id="XMLID_779_" d="M371.3,2350v-15h12v15H371.3z"/>
	<path id="XMLID_781_" d="M383.3,2350v-15h12v15H383.3z"/>
	<path id="XMLID_783_" d="M395.3,2350v-15h12v15H395.3z"/>
	<path id="XMLID_785_" d="M413.3,2350v-15h12v15H413.3z"/>
	<path id="XMLID_787_" d="M425.3,2350v-15h12v15H425.3z"/>
	<path id="XMLID_789_" d="M437.3,2350v-15h12v15H437.3z"/>
	<path id="XMLID_791_" d="M455.3,2350v-15h12v15H455.3z"/>
	<path id="XMLID_793_" d="M467.3,2350v-15h12v15H467.3z"/>
	<path id="XMLID_795_" d="M479.3,2350v-15h12v15H479.3z"/>
	<path id="XMLID_797_" d="M497.3,2350v-15h12v15H497.3z"/>
	<path id="XMLID_799_" d="M509.3,2350v-15h12v15H509.3z"/>
	<path id="XMLID_801_" d="M521.3,2350v-15h12v15H521.3z"/>
	<path id="XMLID_803_" d="M533.3,2350v-15h12v15H533.3z"/>
	<path id="XMLID_805_" d="M551.3,2350v-15h12v15H551.3z"/>
	<path id="XMLID_807_" d="M563.3,2350v-15h12v15H563.3z"/>
	<path id="XMLID_809_" d="M581.3,2350v-15h12v15H581.3z"/>
	<path id="XMLID_811_" d="M593.3,2350v-15h12v15H593.3z"/>
	<path id="XMLID_813_" d="M605.3,2350v-15h12v15H605.3z"/>
	<path id="XMLID_815_" d="M623.3,2350v-15h12v15H623.3z"/>
	<path id="XMLID_817_" d="M635.3,2350v-15h12v15H635.3z"/>
	<path id="XMLID_819_" d="M653.3,2350v-15h12v15H653.3z"/>
	<path id="XMLID_821_" d="M665.3,2350v-15h12v15H665.3z"/>
	<path id="XMLID_823_" d="M677.3,2350v-15h12v15H677.3z"/>
	<path id="XMLID_825_" d="M689.3,2350v-15h12v15H689.3z"/>
	<path id="XMLID_827_" d="M707.3,2350v-15h12v15H707.3z"/>
	<path id="XMLID_829_" d="M719.3,2350v-15h12v15H719.3z"/>
	<path id="XMLID_831_" d="M731.3,2350v-15h12v15H731.3z"/>
	<path id="XMLID_833_" d="M743.3,2350v-15h12v15H743.3z"/>
	<path id="XMLID_835_" d="M755.3,2350v-15h12v15H755.3z"/>
	<path id="XMLID_837_" d="M773.3,2350v-15h12v15H773.3z"/>
	<path id="XMLID_839_" d="M785.3,2350v-15h12v15H785.3z"/>
	<path id="XMLID_841_" d="M797.3,2350v-15h12v15H797.3z"/>
	<path id="XMLID_843_" d="M815.3,2350v-15h12v15H815.3z"/>
	<path id="XMLID_845_" d="M827.3,2350v-15h12v15H827.3z"/>
	<path id="XMLID_847_" d="M839.3,2350v-15h12v15H839.3z"/>
	<path id="XMLID_849_" d="M857.3,2350v-15h12v15H857.3z"/>
	<path id="XMLID_851_" d="M869.3,2350v-15h12v15H869.3z"/>
	<path id="XMLID_853_" d="M881.3,2350v-15h12v15H881.3z"/>
	<path id="XMLID_855_" d="M149.3,2388v-15h12v15H149.3z"/>
	<path id="XMLID_857_" d="M161.3,2388v-15h12v15H161.3z"/>
	<path id="XMLID_859_" d="M179.3,2388v-15h12v15H179.3z"/>
	<path id="XMLID_861_" d="M191.3,2388v-15h12v15H191.3z"/>
	<path id="XMLID_863_" d="M203.3,2388v-15h12v15H203.3z"/>
	<path id="XMLID_865_" d="M221.3,2388v-15h12v15H221.3z"/>
	<path id="XMLID_867_" d="M233.3,2388v-15h12v15H233.3z"/>
	<path id="XMLID_869_" d="M245.3,2388v-15h12v15H245.3z"/>
	<path id="XMLID_871_" d="M257.3,2388v-15h12v15H257.3z"/>
</g>
</svg>
