<svg version="1.1" id="Layer_1" xmlns="http://www.w3.org/2000/svg" xmlns:xlink="http://www.w3.org/1999/xlink" x="0px" y="0px"
	 viewBox="0 0 591.7 196.2" style="enable-background:new 0 0 591.7 196.2;" xml:space="preserve">
<style type="text/css">
	.st0{opacity:0.1797;}
</style>
<g id="XMLID_8_">
	<g id="XMLID_7_">
		<g id="XMLID_85_">
			<g id="XMLID_86_">
				<path id="XMLID_93_" class="st0" d="M173.9,190.8c-56.8-0.1-113.6,0-170.3,0c-0.1,0.4-0.3,0.8-0.4,1.3c0.8-0.2,1.2-0.6,1.3-1.3
					c0.2-0.7,0.4-1.4,0.7-2.1c0.7-2.2,1.6-4.3,1.7-6.6c0.3-7.1,0.5-14.3,0.6-21.4c0.1-6.6,0.1-13.3,0.2-19.9c0-3.7-0.2-7.6,0.2-11.3
					c-0.4,0-0.7,0.1-1.1,0.1c1.1,1.4,3.4,1.4,5,1.7c5.8,1,11.5,1.3,17.3,1.6c20.1,1,40.2,0.9,60.3,1c29.6,0.1,59.2-0.2,88.8,0.2
					c-1.1-1.1-2.1-2.2-3.2-3.3c-0.8,2.9-0.4,6.2-0.5,9.2c-0.2,7.3-0.7,14.6-0.8,21.9c-0.2,11.2,0,22.5-0.4,33.7
					c0,0.5,0.6,0.5,0.9,0.4c0.5-0.3,0.7-1.5,0.8-2c0.2-2.4,0.1-4.8,0.2-7.2c0-6.1,0.1-12.1,0.1-18.2c0.1-7.5,0.1-14.9,0.4-22.4
					c0.1-2,0.1-4.1,0.3-6.1c0.1-1.2-0.1-5.6,2.3-6c1.5-0.2-1.9-3.6-2.7-3.7c-1.8-0.4-3.6-0.2-5.4-0.2c-6,0-12.1,0-18.1,0
					c-18,0-36.1,0.1-54.1,0.1s-36.1,0.1-54.1-0.1c-7.7-0.1-15.4,0-23.1-0.1c-2.3,0-4.6-0.1-6.9-0.2c-2-0.1-4.6,0.1-6.3-1
					c-0.3-0.2-0.9-0.1-0.9,0.4c0.1,3.6,0,7.3,0,10.9c0,7.3,0,14.7-0.1,22c-0.1,6.4-0.1,12.7-0.5,19.1c-0.1,2.2-0.7,4.3-1.4,6.4
					c-0.2,0.6-0.4,1.2-0.7,1.7c-0.9,0.8-1.1,1.7-0.5,2.7c0,0,0,0,0.1,0.1c56.6,0,113.3-0.1,169.9,0
					C173.8,192.1,174.1,190.8,173.9,190.8z"/>
				<path id="XMLID_92_" class="st0" d="M173,190.4c-28.4-0.1-56.8-0.1-85.2-0.1c-18.6,0-37.2,0-55.8,0c-9.8,0-19.6,0.2-29.3-0.1
					c0.8,0.5,1.6,1,2.5,1.5c0.4-2.7,0.5-5.4,0.6-8.1c0.2-7.2,0.3-14.3,0.4-21.5c0.1-6.8,0.2-13.7,0.2-20.5c0-4.3-0.2-8.6,0.1-12.9
					c-0.4,0.3-0.7,0.5-1.1,0.8c0.9,0.3,1.8,0.5,2.7,0.6c4.7,0.6,9.4,0.6,14.1,0.8c19.3,0.5,38.6,0.6,58,0.7
					c20.2,0.1,40.5,0.1,60.7,0.1c7.5,0,15,0,22.5,0c4,0,8.2-0.2,12.2,0.1c-0.4-0.6-0.8-1.2-1.2-1.8c-0.4,1.1-0.3,2.6-0.4,3.8
					c-0.2,2.5-0.6,4.9-0.7,7.4c-0.5,7.3-0.7,14.7-0.9,22c-0.2,10.5,0,21-0.4,31.5c0,0.8,0.9,0.2,1.1,0c0.6-0.4,1.8-1.7,2-2.4
					c0.4-2.3,0.3-4.6,0.3-7c0-6.1,0.1-12.1,0.1-18.2c0-7.5,0.1-15,0.1-22.5c0-2.3,0.1-4.6,0-7c0-1.5-0.6-4.7,0.7-6
					c0.5-0.5-0.3-2-1-2.1c-1.9-0.2-3.8-0.2-5.7-0.2c-6,0-12.1,0-18.1,0c-18,0-36.1,0-54.1,0c-18.1,0-36.1,0-54.2-0.1
					c-7.8-0.1-15.5-0.2-23.3-0.2c-4.5,0-9.4,0.4-13.8-0.7c0.2,0.2,0.5,0.3,0.7,0.5c-0.1-0.1-0.2-0.3-0.3-0.4
					c-0.5-0.7-1.4-0.6-1.5,0.4c-0.2,2.3-0.1,4.5-0.1,6.8c0,6.1-0.1,12.1-0.1,18.2c0,6.3-0.1,12.6-0.2,18.9c-0.1,2.4-0.1,4.9-0.1,7.3
					c0,1.8-0.1,3.6-0.3,5.4c0.2,1.9-0.4,3.5-1.8,4.8c-1.4,0.7,2.1,1.7,2.3,1.8c2.4,0.2,4.8,0.1,7.2,0.1c6.4,0,12.8,0,19.2,0
					c19.5,0,39.1,0,58.6,0c28.3,0,56.7-0.2,85,0.1c0.6,0,0.7-0.6,0.5-1C175,190.9,173.5,190.4,173,190.4z"/>
				<path id="XMLID_91_" class="st0" d="M172.2,187.1c-28.4-0.1-56.8,0-85.2,0c-28.4,0-56.8,0.2-85.2,0c1.1,1.1,2.2,2.2,3.3,3.3
					c0.3-1.1,0.3-2.3,0.4-3.4c0.2-3.6,0.2-7.2,0.4-10.8c0.3-6.2,0.5-12.5,0.6-18.8c0.1-6.8,0.2-13.6,0.2-20.4
					c0-3.6-0.1-7.3,0.1-10.9c-0.4,0.6-0.7,1.3-1.1,1.9c7.5,1.1,15,1.5,22.5,1.8c19.9,0.8,39.9,0.6,59.8,0.6
					c29.6,0.1,59.1,0.1,88.7,0.1c0.1-0.4,0.3-0.8,0.4-1.3c-0.8,0.1-1.3,0.5-1.4,1.2c-0.2,0.7-0.5,1.4-0.7,2.1
					c-0.8,2.2-1.6,4.3-1.8,6.6c-0.4,7.1-0.6,14.3-0.7,21.4c-0.1,6.6-0.1,13.3-0.2,19.9c0,3.7,0.2,7.6-0.2,11.3
					c-0.1,0.8,1.3,1.3,1.3,0.5c-0.2-3.7,0-7.4,0-11c0-6.6,0-13.2,0.1-19.9c0.1-6,0.2-12,0.4-18c0.1-2.6,0.2-4.9,0.9-7.4
					c0.6-2.1,1.4-4.1,2.2-6.1c0,0,0.3-0.7,0.1-0.7c-24.9,0-49.7,0-74.6-0.1c-18.3,0-36.5-0.1-54.8-0.3c-7.4-0.1-14.8-0.3-22.2-0.5
					c-2.9-0.1-5.7-0.2-8.6-0.4c-1.6-0.1-3.2-0.2-4.8-0.3c-2.2,0.4-4-0.3-5.5-2.1c-0.7-1.6-1.5,1-1.6,1.5c-0.1,1.6-0.1,3.1-0.1,4.7
					c0,6.2-0.1,12.3-0.1,18.5C5,157.1,4.9,164.1,4.7,171c-0.1,3.1-0.2,6.3-0.4,9.4c-0.1,1.3,0.3,6.4-2.5,6.6c-1,0.1,0,1.3,0.2,1.5
					c0.7,0.8,1.6,2,2.7,2.2c2.3,0.5,4.7,0.2,7,0.2c6.4,0,12.8,0.1,19.1,0c19.5-0.1,39.1-0.1,58.6-0.1c28.3,0,56.6-0.2,84.9,0.2
					C175.7,191.2,173.2,187.1,172.2,187.1z"/>
				<path id="XMLID_90_" class="st0" d="M174.3,190.3c-28.3-0.2-56.5-0.1-84.8-0.1c-18.7,0-37.4,0-56.1,0c-6.7,0-13.4,0-20.1,0
					c-2.9,0-5.9,0.1-8.8-0.1c0.6,0.6,1.1,1.1,1.7,1.7c0.1-1,0.1-2.1,0.1-3.2c0-2.5,0.2-5.1,0.4-7.6c0.4-7.3,0.5-14.6,0.7-21.9
					c0.1-6.7,0.2-13.3,0.3-20c0-3.8,0-7.6,0.1-11.4c-0.8,0.9-1.5,1.7-2.3,2.6c2.7,0.1,5.5-0.1,8.2,0c5.8,0.2,11.6,0.4,17.4,0.6
					c19.2,0.4,38.4,0.4,57.6,0.5c18.9,0,37.7,0.1,56.6,0.1c7.7,0,15.5,0,23.2,0c3,0,5.9-0.1,8.9,0.1c-0.9-0.6-1.8-1.3-2.7-1.9
					c-0.1,3.4,0.1,6.7,0,10.1c-0.1,7.4-0.3,14.8-0.4,22.2c-0.1,6.6-0.1,13.3-0.2,19.9c0,3.8,0.1,7.6-0.1,11.4c0,0.5,0.6,0.6,1,0.5
					c0.5-0.2,1-1.5,1-2c0.3-2.7,0.1-5.4,0.2-8c0-6.3,0.1-12.6,0.1-19c0-6.3,0-12.7,0.1-19c0-2.6-0.2-5.3-0.1-7.9
					c0.1-1.3,0.2-2.6,0.3-4c0-1,0.5-1.8,1.4-2.3c1.4-0.6-2-2.4-2.4-2.5c-1.8-0.3-3.7-0.2-5.6-0.2c-6.1,0-12.1,0-18.2,0
					c-15.7,0-31.4,0.1-47.1,0c-18.4,0-36.8,0.1-55.2,0c-8.4-0.1-16.7-0.1-25.1-0.1c-2.9,0-5.8,0.1-8.6,0.1c-2,0-6.5,0.7-7.8-1.4
					c-0.6-0.8-2.5,1.8-2.6,2.1c-0.4,2.7-0.2,5.5-0.2,8.3c0,7-0.1,14-0.1,21c0,6.8-0.2,13.5,0,20.3c0.1,2.5,0.3,4.9,0.3,7.4
					c0,1.2,0.1,2.9-1,3.8c-0.7,0.6,1.1,1.9,1.5,2c2.3,0.3,4.7,0.2,7,0.2c6.5,0,13,0.1,19.4,0.1c19.5-0.1,38.9-0.1,58.4-0.1
					c28.4,0,56.8-0.2,85.1,0.2C176.7,192.7,175.2,190.3,174.3,190.3z"/>
				<path id="XMLID_89_" class="st0" d="M174.1,187.6c-28.4-0.2-56.8-0.1-85.1-0.1c-18.6,0-37.2,0-55.8,0c-9.7,0-19.6,0.3-29.3-0.1
					c0.6,0.9,1.2,1.8,1.7,2.6c0.3-0.6,0.3-0.9,0.4-1.5c0.4-3.5,0.7-7.1,1-10.7c0.7-7.2,0.8-14.5,1-21.7c0.2-10.5,0-21,0.4-31.5
					c-0.8,1.3-1.6,2.5-2.4,3.8c3.4,0.4,6.7,0.5,10.1,0.6c6.9,0.2,13.7,0.4,20.6,0.6c19.8,0.4,39.5,0.4,59.3,0.4
					c27.2,0.1,54.3-0.1,81.5,0.1c-0.1-0.3-0.2-0.7-0.3-1c-0.5,1.4-1.2,2.8-1.7,4.2c-0.7,2.1-1.1,4.2-1.3,6.4
					c-0.3,2.8-0.1,5.6-0.2,8.4c-0.1,4.2-0.2,8.3-0.3,12.5c-0.2,10.5-0.2,21-0.3,31.5c0,0.2,0.5,1.5,0.5,1c0.1-9,0.1-18,0.3-27
					c0.1-6.3,0.2-12.5,0.7-18.8c0.1-1.9,0.3-3.8,0.5-5.8c0-1.3,0.1-2.5,0.1-3.8c0.4-2.4,1.1-4.7,1.5-7c-0.2,0.4-0.4,0.7-0.5,1.1
					c0.5-0.5,1-1.1,1.4-1.6c0.3-0.2,0.3-1.2-0.2-1.2c-24.8-0.1-49.6,0-74.5-0.1c-18.3,0-36.5-0.1-54.8-0.3
					c-7.3-0.1-14.6-0.2-21.9-0.4c-2.8-0.1-5.6-0.2-8.5-0.3c-3-0.2-7.4,0.3-9.7-2.2c0.1,0.2,0.2,0.4,0.3,0.6
					c-0.1-0.6-0.1-1.3-0.2-1.9c-0.1-0.9-1,0.2-1.2,0.3c-0.6,0.8-1.4,2.2-1.5,3.2c-0.3,2.2-0.2,4.4-0.2,6.7c0,6.1-0.1,12.1-0.1,18.2
					c0,6.3-0.1,12.6-0.2,18.9c0,2.5-0.1,4.9-0.2,7.4c0,1.8-0.1,3.6-0.4,5.3c0.2,1.4-0.2,2.5-1.2,3.3c-0.9,0.6,0.9,2.8,1.5,2.9
					c2.2,0.4,4.6,0.2,6.9,0.2c6.4,0,12.7,0,19.1,0c19.6,0,39.1,0,58.7,0c28.3,0,56.5-0.1,84.8,0.1
					C176,190.8,174.9,187.6,174.1,187.6z"/>
				<path id="XMLID_88_" class="st0" d="M171,189.1c-28.4-0.1-56.8,0-85.2,0c-18.6,0-37.2,0-55.8,0c-9.8,0-19.6,0.1-29.4,0
					c1.1,0.7,2.3,1.4,3.4,2c0.4-3.6,0.6-7.2,0.8-10.8c0.4-7.3,0.6-14.6,0.8-21.9c0.2-10.5,0.2-20.9,0.3-31.4c-0.4,0-0.8,0.1-1.2,0.1
					c0.7,0.5,1.4,1,2.1,1.5c0.5,0.1,1,0.3,1.5,0.4c2.6,0.7,5.1,1.6,7.8,1.7c6,0.1,12.1,0.2,18.1,0.3c19.8,0.3,39.6,0.4,59.4,0.4
					c27.2,0.1,54.4,0.1,81.6,0.1c0.3-0.2,0.7-0.3,1-0.5c-0.5,0-0.9,0.1-1.4,0.1c0,0-0.1,0-0.1,0.1c-1.5,3.4-2.3,7.1-2.6,10.8
					c-0.6,7.4-0.8,14.9-1,22.4c-0.2,6.5-0.3,13-0.3,19.4c0,3.3,0,6.6-0.2,9.8c-0.1,1.4,2.9-0.7,3.1-1.5c0.5-3,0.2-6.3,0.2-9.4
					c0-7.1,0-14.3,0-21.4c0-6.5,0-13,0.1-19.5c0.1-3.5,0.3-7.7,2.4-10.7c0.1-0.1-0.1-0.2-0.1-0.2c-27.2,0-54.4,0-81.6-0.1
					c-18.8,0-37.6,0-56.4-0.4c-6.6-0.1-13.1-0.4-19.6-0.9c-1.9,0.1-3.7-0.1-5.5-0.6c-0.8-0.2-1.6-0.4-2.4-0.6
					c-0.8-0.2-1.6-0.4-2.3-0.7c-1-0.5-2-0.7-3.1-0.6c0.4,0.2,0.8,0.4,1.2,0.5c-0.2-0.2-0.3-0.5-0.5-0.7c-0.1-0.2-1.3-0.5-1.3,0
					c-0.1,8.4-0.1,16.8-0.2,25.2c-0.1,6.4-0.2,12.8-0.5,19.1c-0.1,2.5-0.2,5-0.3,7.5c-0.1,1.6-0.2,3.1-0.3,4.7
					c0.1,2.3-0.9,4.3-3.1,5.8c-0.8,0.1,0.1,1,0.3,1.1c0.7,0.6,2,1.1,2.9,1.2c2.4,0.3,4.8,0.2,7.2,0.2c6.4,0,12.8,0,19.2,0
					c19.5,0,39.1,0,58.6,0c28.3,0,56.7-0.2,85,0.1c0.6,0,0.9-0.4,0.5-0.9C173.6,190.2,171.8,189.1,171,189.1z"/>
				<path id="XMLID_87_" class="st0" d="M175.3,189.3c-29.5-0.4-58.9-0.1-88.4-0.1c-18.4,0-36.8,0-55.3,0c-5.8,0-11.6,0-17.4,0
					c-2.9,0-5.9,0.1-8.8-0.1c-0.1,0.3-0.1,0.6-0.2,0.9c1-0.4,0.9-0.4,1.3-1.5c0.3-1,0.5-2,0.7-3c1.4-6.2,1.6-12.6,1.9-18.9
					c0.4-8.3,0.6-16.7,0.7-25c0.1-5,0-10.1,0.2-15.1c-1.1,1-2.2,2-3.3,3c2.5,0.8,5.6,0.5,8.1,0.6c5,0.1,10,0.5,15,0.6
					c20.2,0.6,40.4,0.5,60.6,0.6c19.8,0,39.5,0.1,59.3,0.1c9.8,0,19.6-0.2,29.3,0c-0.9-0.4-1.8-0.9-2.7-1.3
					c-2.7,21.1-2.1,42.5-2.3,63.7c0,0.3,1.3,0.5,1.3,0.4c0.1-7.7,0.1-15.4,0.2-23c0.1-5.7,0.2-11.4,0.4-17.1
					c0.1-3.3,0.3-6.6,0.4-9.9c0.2-3,0.2-11.8,2.7-12.8c1.8-0.6-1.2-1.7-1.7-1.7c-3.1-0.2-6.2-0.2-9.3-0.2c-5.9,0-11.8,0-17.6,0
					c-17.2,0-34.3,0-51.5,0c-18.1,0-36.2,0-54.3-0.2c-6.9-0.1-13.8-0.1-20.7-0.3c-3.9,0-7.8-0.3-11.6-0.8c-1-0.1-1.8-0.5-2.5-1.2
					c0.1,0.2,0.2,0.3,0.4,0.5c-0.1-0.3-0.1-0.7-0.2-1c-0.3-1.6-3.5,1.8-3.7,2.6c-0.5,2.5-0.2,5.3-0.2,7.8c0,7,0,14-0.1,20.9
					c0,6.7,0,13.4-0.1,20c-0.1,2.4-0.1,4.7-0.4,7.1c-0.2,1.7-0.3,3.4-1.3,4.8c-0.1,0.2,0.1,0.6,0.3,0.5c2.9-0.1,5.8-0.1,8.7-0.1
					c8.7,0,17.4,0,26.1,0c19.1,0.1,38.1,0,57.2,0c26,0,52-0.1,78.1,0c0.3,0,0.8,0,0.9-0.3C175.8,189.5,175.6,189.3,175.3,189.3z"/>
			</g>
		</g>
	</g>
	<g id="XMLID_133_">
		<path id="XMLID_134_" d="M60.2,159.1h0.7c0.3,0,0.5,0,0.8,0.1c0.3,0,0.4,0.2,0.4,0.5c0.1,0.6-0.3,1-1.1,0.9c-0.2,0-0.5,0-0.7,0
			c-0.2,0-0.4,0-0.5,0c-0.1,0-0.2,0.1-0.2,0.1c0.2,0.5,0.3,1,0.5,1.6c0.2,0.6,0.4,1.2,0.6,1.7c0.6,1.4,1.1,2.5,1.6,3.1
			c-0.3,0.3-0.6,0.6-1,0.8c-0.4,0.2-0.6,0.3-0.6,0.3s0,0-0.1,0l-3.4-7.2l-6.6,1.6l-0.2,1c-0.5,1.9-1,3.2-1.6,3.9
			c-0.1,0.2-0.3,0.2-0.6,0c-0.5-0.2-0.8-0.4-0.8-0.5c0,0,0.2-0.5,0.5-1.4c0.3-0.9,0.7-1.8,1-2.8c0.3-0.9,0.7-1.9,1.1-2.9
			c0.4-1,0.7-2,1.1-2.9c0.3-0.9,0.6-1.8,0.9-2.5c0.3-0.7,0.5-1.3,0.6-1.6c0.1-0.3,0.2-0.6,0.2-0.9s0.1-0.5,0.2-0.6
			c0.2-0.4,0.6-0.6,1.2-0.6c0.7,0.4,1.2,0.9,1.6,1.5s0.7,1.3,1,2c0.3,0.7,0.5,1.4,0.8,2.2c0.3,0.7,0.6,1.4,1,2
			c0.1,0.2,0.4,0.3,0.7,0.4C59.8,159.1,60,159.1,60.2,159.1z M54.2,153.8c-0.1,1-0.4,2-0.9,3c-0.5,1-0.8,1.8-1.1,2.4
			c-0.3,0.6-0.5,1.1-0.7,1.6c1.1,0,2.5-0.3,4.1-1c0.4-0.2,0.8-0.3,1.2-0.5C56,156.2,55.1,154.3,54.2,153.8z"/>
		<path id="XMLID_137_" d="M73.3,165.4c0.7-0.3,1.3-0.5,1.9-0.7c0.6-0.2,1.2-0.3,1.8-0.3c0.6,0,0.9,0.2,0.9,0.5c0,0.1,0,0.2-0.1,0.4
			c0,0.2-0.3,0.4-0.7,0.6c-0.4,0.2-0.9,0.5-1.5,0.7c-0.6,0.2-1.2,0.4-1.9,0.6s-1.3,0.3-2,0.5c-1.3,0.3-2.3,0.4-2.9,0.4
			s-1.2-0.1-1.8-0.2c-0.7-0.1-1.3-0.3-1.8-0.6c-1.3-0.7-2-1.7-2-3c0-0.1,0-0.3,0-0.6s0.1-0.7,0.4-1.2c0.2-0.5,0.6-1.1,1.1-1.6
			c0.5-0.5,1.1-1,1.7-1.5c1.4-1,2.8-1.6,4.3-1.9c0.5-0.1,1-0.2,1.3-0.2s0.6,0,0.9,0c0.2,0,0.5,0,0.7,0c0.2,0,0.5,0.1,0.6,0.2
			c0.4,0.2,0.6,0.6,0.6,1.2c0,0.4-0.3,0.8-0.8,1.1c-0.1,0.1-0.3,0.2-0.4,0.3c-0.1-0.4-0.2-0.7-0.3-0.9s-0.4-0.4-0.8-0.4
			c-1.9,0.4-3.5,1-4.9,1.8c-1.6,0.9-2.3,1.9-2.3,2.9c0,0.1,0,0.2,0,0.4c0,1,0.4,1.8,1.2,2.2c0.6,0.3,1.4,0.5,2.3,0.5
			c0.9,0,1.8-0.1,2.5-0.3C72,165.9,72.7,165.7,73.3,165.4z"/>
		<path id="XMLID_139_" d="M89,165.4c0.7-0.3,1.3-0.5,1.9-0.7c0.6-0.2,1.2-0.3,1.8-0.3c0.6,0,0.9,0.2,0.9,0.5c0,0.1,0,0.2-0.1,0.4
			c0,0.2-0.3,0.4-0.7,0.6c-0.4,0.2-0.9,0.5-1.5,0.7c-0.6,0.2-1.2,0.4-1.9,0.6s-1.3,0.3-2,0.5c-1.3,0.3-2.3,0.4-2.9,0.4
			s-1.2-0.1-1.8-0.2c-0.7-0.1-1.3-0.3-1.8-0.6c-1.3-0.7-2-1.7-2-3c0-0.1,0-0.3,0-0.6s0.1-0.7,0.4-1.2c0.2-0.5,0.6-1.1,1.1-1.6
			c0.5-0.5,1.1-1,1.7-1.5c1.4-1,2.8-1.6,4.3-1.9c0.5-0.1,1-0.2,1.3-0.2s0.6,0,0.9,0c0.2,0,0.5,0,0.7,0c0.2,0,0.5,0.1,0.6,0.2
			c0.4,0.2,0.6,0.6,0.6,1.2c0,0.4-0.3,0.8-0.8,1.1c-0.1,0.1-0.3,0.2-0.4,0.3c-0.1-0.4-0.2-0.7-0.3-0.9s-0.4-0.4-0.8-0.4
			c-1.9,0.4-3.5,1-4.9,1.8c-1.6,0.9-2.3,1.9-2.3,2.9c0,0.1,0,0.2,0,0.4c0,1,0.4,1.8,1.2,2.2c0.6,0.3,1.4,0.5,2.3,0.5
			c0.9,0,1.8-0.1,2.5-0.3C87.7,165.9,88.4,165.7,89,165.4z"/>
		<path id="XMLID_141_" d="M94.8,164.7c0-0.3,0-0.6-0.1-1.1c0-0.5-0.1-1-0.1-1.5c0-0.5,0-1.1,0-1.7s0-1.1,0.1-1.6
			c0.2-1.1,0.6-1.6,1.3-1.6c0.5,0.1,0.8,0.3,0.9,0.5c0.2,0.2,0.2,0.4,0.2,0.7s-0.1,0.6-0.2,1.1c-0.5,1.4-0.8,2.7-0.8,3.8
			c0,0.4,0,0.8,0.1,1.2c0.3,1.1,1.1,1.6,2.7,1.6c0.8,0,1.5-0.1,2.3-0.4c1.4-0.5,2.3-1.1,2.8-1.8c0.1-0.7,0.2-1.4,0.2-2
			c0-0.6,0-1.1-0.1-1.5c0-0.4-0.1-0.9-0.1-1.4c-0.1-0.5-0.1-1.1-0.1-1.7c0.2-0.1,0.4-0.1,0.6-0.1c0.2,0,0.4,0.1,0.6,0.3
			c0.2,0.2,0.4,0.6,0.6,1.2s0.3,1.3,0.3,2c0,0.8,0.1,1.6,0.1,2.4c0,0.8,0,1.7,0,2.4s0,1.5,0.1,2c-0.2,0.2-0.4,0.3-0.6,0.3
			c-0.6,0-1.1-0.6-1.4-1.9c-0.2,0.2-0.6,0.4-1.1,0.7c-1.1,0.6-2.3,1-3.8,1.2c-0.3,0-0.6,0-0.9,0c-0.3,0-0.8-0.1-1.3-0.2
			c-0.5-0.1-1-0.4-1.4-0.9C95.2,166.4,94.9,165.7,94.8,164.7z"/>
		<path id="XMLID_143_" d="M112.5,166.3c1.4,0,3.6-0.6,6.4-1.9c0.2,0,0.3,0.1,0.4,0.2c0.1,0.1,0.2,0.3,0.2,0.4
			c-0.6,1.1-1.9,2-3.7,2.6c-1.8,0.6-3.5,0.7-5.1,0.3c-1.8-0.5-2.9-1.5-3.3-3c0-0.3,0-0.7,0-1.2c0-0.5,0.1-1.2,0.4-2.1
			c0.3-0.8,0.7-1.7,1.4-2.4c0.6-0.8,1.4-1.4,2.3-1.8c0.9-0.4,1.8-0.7,2.8-0.7c0.9,0,2,0.3,3.2,1c0.5,0.3,1,0.7,1.3,1
			c0.3,0.4,0.5,0.8,0.5,1.2c0,0.1,0,0.2,0,0.3c0,1-0.5,1.6-1.4,1.9c-0.4,0.1-0.9,0.2-1.4,0.2l-3.5-0.1c-1.2,0-2.1,0.3-2.7,0.8
			c-0.4,0.3-0.6,0.7-0.8,1.2C109.8,165.5,110.8,166.3,112.5,166.3z M116.8,158.8c-0.4-0.3-0.7-0.4-1.1-0.6s-0.7-0.2-1-0.2
			c-0.3,0-0.7,0.1-1.3,0.3c-0.6,0.2-1.1,0.4-1.6,0.6c-1.1,0.5-1.7,1.1-1.7,1.6c1.3,0.1,2.3,0.2,2.9,0.2c1.8,0,3-0.2,3.6-0.5
			c0.4-0.2,0.6-0.4,0.6-0.6C117.4,159.3,117.2,159,116.8,158.8z"/>
		<path id="XMLID_146_" d="M120.9,153.3c0-0.6,0.3-0.8,1-0.8c0.4,0,0.8,0.1,1.1,0.3c0,0.2,0.1,0.4,0.1,0.5s-0.1,0.3-0.2,0.5
			c-0.1,0.2-0.3,0.2-0.6,0.2s-0.5-0.1-0.8-0.2C121.2,153.7,121,153.5,120.9,153.3z M123.2,156.6c0.2,3,0.4,6.5,0.5,10.5
			c-0.1,0.5-0.5,0.8-1.2,0.8c-0.2,0-0.4,0-0.5-0.1c-0.2-0.1-0.3-0.2-0.4-0.3v-10.8H123.2z"/>
		<path id="XMLID_149_" d="M125.2,158.5c0-0.9-0.1-1.7-0.1-2.3c0-0.7-0.1-1.2-0.1-1.5c0-0.3-0.1-1.1-0.4-2.4
			c0.1-0.2,0.3-0.4,0.4-0.6s0.3-0.3,0.6-0.3c0.6,0,1,2.4,1.3,7.2c0.2,2.8,0.2,5.5,0.2,8.3c0,0.7-0.5,1.1-1.6,1.1l-0.2,0
			c0-0.8,0-1.9-0.1-3.2c0-1.3-0.1-2.4-0.1-3.4C125.2,160.3,125.2,159.4,125.2,158.5z"/>
	</g>
</g>
<g id="XMLID_13_">
	<g id="XMLID_9_">
		<g id="XMLID_64_">
			<g id="XMLID_65_">
				<path id="XMLID_83_" class="st0" d="M379.9,190.8c-56.8-0.1-113.6,0-170.3,0c-0.1,0.4-0.3,0.8-0.4,1.3c0.8-0.2,1.2-0.6,1.3-1.3
					c0.2-0.7,0.4-1.4,0.7-2.1c0.7-2.2,1.6-4.3,1.7-6.6c0.3-7.1,0.5-14.3,0.6-21.4c0.1-6.6,0.1-13.3,0.2-19.9c0-3.7-0.2-7.6,0.2-11.3
					c-0.4,0-0.7,0.1-1.1,0.1c1.1,1.4,3.4,1.4,5,1.7c5.8,1,11.5,1.3,17.3,1.6c20.1,1,40.2,0.9,60.3,1c29.6,0.1,59.2-0.1,88.8,0.2
					c-1.1-1.1-2.1-2.2-3.2-3.3c-0.8,2.9-0.4,6.2-0.5,9.2c-0.2,7.3-0.7,14.6-0.8,21.9c-0.2,11.2,0,22.5-0.4,33.7
					c0,0.5,0.6,0.5,0.9,0.4c0.5-0.3,0.7-1.5,0.8-2c0.2-2.4,0.1-4.8,0.2-7.2c0-6.1,0.1-12.1,0.1-18.2c0.1-7.5,0.1-14.9,0.4-22.4
					c0.1-2,0.1-4.1,0.3-6.1c0.1-1.2-0.1-5.6,2.3-6c1.5-0.2-1.9-3.6-2.7-3.7c-1.8-0.4-3.6-0.2-5.4-0.2c-6,0-12.1,0-18.1,0
					c-18,0-36.1,0.1-54.1,0.1s-36.1,0.1-54.1-0.1c-7.7-0.1-15.4,0-23.1-0.1c-2.3,0-4.6-0.1-6.9-0.2c-2-0.1-4.6,0.1-6.3-1
					c-0.3-0.2-0.9-0.1-0.9,0.4c0.1,3.6,0,7.3,0,10.9c0,7.3,0,14.7-0.1,22c-0.1,6.4-0.1,12.7-0.5,19.1c-0.1,2.2-0.7,4.3-1.4,6.4
					c-0.2,0.6-0.4,1.2-0.7,1.7c-0.9,0.8-1.1,1.7-0.5,2.7c0,0,0,0,0.1,0.1c56.6,0,113.3-0.1,169.9,0
					C379.8,192.1,380.1,190.8,379.9,190.8z"/>
				<path id="XMLID_82_" class="st0" d="M379,190.4c-28.4-0.1-56.8-0.1-85.2-0.1c-18.6,0-37.2,0-55.8,0c-9.8,0-19.6,0.2-29.3-0.1
					c0.8,0.5,1.6,1,2.5,1.5c0.4-2.7,0.5-5.4,0.6-8.1c0.2-7.2,0.3-14.3,0.4-21.5c0.1-6.8,0.2-13.7,0.2-20.5c0-4.3-0.2-8.6,0.1-12.9
					c-0.4,0.3-0.7,0.5-1.1,0.8c0.9,0.3,1.8,0.5,2.7,0.6c4.7,0.6,9.4,0.6,14.1,0.8c19.3,0.5,38.6,0.6,58,0.7
					c20.2,0.1,40.5,0.1,60.7,0.1c7.5,0,15,0,22.5,0c4,0,8.2-0.2,12.2,0.1c-0.4-0.6-0.8-1.2-1.2-1.8c-0.4,1.1-0.3,2.6-0.4,3.8
					c-0.2,2.5-0.6,4.9-0.7,7.4c-0.5,7.3-0.7,14.7-0.9,22c-0.2,10.5,0,21-0.4,31.5c0,0.8,0.9,0.2,1.1,0c0.6-0.4,1.8-1.7,2-2.4
					c0.4-2.3,0.3-4.6,0.3-7c0-6.1,0.1-12.1,0.1-18.2c0-7.5,0.1-15,0.1-22.5c0-2.3,0.1-4.6,0-7c0-1.5-0.6-4.7,0.7-6
					c0.5-0.5-0.3-2-1-2.1c-1.9-0.2-3.8-0.2-5.7-0.2c-6,0-12.1,0-18.1,0c-18,0-36.1,0-54.1,0c-18.1,0-36.1,0-54.2-0.1
					c-7.8-0.1-15.5-0.2-23.3-0.2c-4.5,0-9.4,0.4-13.8-0.7c0.2,0.2,0.5,0.3,0.7,0.5c-0.1-0.1-0.2-0.3-0.3-0.4
					c-0.5-0.7-1.4-0.6-1.5,0.4c-0.2,2.3-0.1,4.5-0.1,6.8c0,6.1-0.1,12.1-0.1,18.2c0,6.3-0.1,12.6-0.2,18.9c-0.1,2.4-0.1,4.9-0.1,7.3
					c0,1.8-0.1,3.6-0.3,5.4c0.2,1.9-0.4,3.5-1.8,4.8c-1.4,0.7,2.1,1.7,2.3,1.8c2.4,0.2,4.8,0.1,7.2,0.1c6.4,0,12.8,0,19.2,0
					c19.5,0,39.1,0,58.6,0c28.3,0,56.7-0.2,85,0.1c0.6,0,0.7-0.6,0.5-1C380.9,190.9,379.5,190.4,379,190.4z"/>
				<path id="XMLID_81_" class="st0" d="M378.1,187.1c-28.4-0.1-56.8,0-85.2,0c-28.4,0-56.8,0.2-85.2,0c1.1,1.1,2.2,2.2,3.3,3.3
					c0.3-1.1,0.3-2.3,0.4-3.4c0.2-3.6,0.2-7.2,0.4-10.8c0.3-6.2,0.5-12.5,0.6-18.8c0.1-6.8,0.2-13.6,0.2-20.4
					c0-3.6-0.1-7.3,0.1-10.9c-0.4,0.6-0.7,1.3-1.1,1.9c7.5,1.1,15,1.5,22.5,1.8c19.9,0.8,39.9,0.6,59.8,0.6
					c29.6,0.1,59.1,0.1,88.7,0.1c0.1-0.4,0.3-0.8,0.4-1.3c-0.8,0.1-1.3,0.5-1.4,1.2c-0.2,0.7-0.5,1.4-0.7,2.1
					c-0.8,2.2-1.6,4.3-1.8,6.6c-0.4,7.1-0.6,14.3-0.7,21.4c-0.1,6.6-0.1,13.3-0.2,19.9c0,3.7,0.2,7.6-0.2,11.3
					c-0.1,0.8,1.3,1.3,1.3,0.5c-0.2-3.7,0-7.4,0-11c0-6.6,0-13.2,0.1-19.9c0.1-6,0.2-12,0.4-18c0.1-2.6,0.2-4.9,0.9-7.4
					c0.6-2.1,1.4-4.1,2.2-6.1c0,0,0.3-0.7,0.1-0.7c-24.9,0-49.7,0-74.6-0.1c-18.3,0-36.5-0.1-54.8-0.3c-7.4-0.1-14.8-0.3-22.2-0.5
					c-2.9-0.1-5.7-0.2-8.6-0.4c-1.6-0.1-3.2-0.2-4.8-0.3c-2.2,0.4-4-0.3-5.5-2.1c-0.7-1.6-1.5,1-1.6,1.5c-0.1,1.6-0.1,3.1-0.1,4.7
					c0,6.2-0.1,12.3-0.1,18.5c-0.1,6.9-0.1,13.9-0.3,20.8c-0.1,3.1-0.2,6.3-0.4,9.4c-0.1,1.3,0.3,6.4-2.5,6.6c-1,0.1,0,1.3,0.2,1.5
					c0.7,0.8,1.6,2,2.7,2.2c2.3,0.5,4.7,0.2,7,0.2c6.4,0,12.8,0.1,19.1,0c19.5-0.1,39.1-0.1,58.6-0.1c18.6,0,37.1,0.1,55.7,0
					c9.7,0,19.4,0,29.2,0.1C381.7,191.2,379.1,187.1,378.1,187.1z"/>
				<path id="XMLID_80_" class="st0" d="M380.3,190.3c-28.3-0.2-56.5-0.1-84.8-0.1c-18.7,0-37.4,0-56.1,0c-6.7,0-13.4,0-20.1,0
					c-2.9,0-5.9,0.1-8.8-0.1c0.6,0.6,1.1,1.1,1.7,1.7c0.1-1,0.1-2.1,0.1-3.2c0-2.5,0.2-5.1,0.4-7.6c0.4-7.3,0.5-14.6,0.7-21.9
					c0.1-6.7,0.2-13.3,0.3-20c0-3.8,0-7.6,0.1-11.4c-0.8,0.9-1.5,1.7-2.3,2.6c2.7,0.1,5.5-0.1,8.2,0c5.8,0.2,11.6,0.4,17.4,0.6
					c19.2,0.4,38.4,0.4,57.6,0.5c18.9,0,37.7,0.1,56.6,0.1c7.7,0,15.5,0,23.2,0c3,0,5.9,0,8.9,0.1c-0.9-0.6-1.8-1.3-2.7-1.9
					c-0.1,3.4,0.1,6.7,0,10.1c-0.1,7.4-0.4,14.8-0.4,22.2c-0.1,6.6-0.1,13.3-0.2,19.9c0,3.8,0.1,7.6-0.1,11.4c0,0.5,0.6,0.6,1,0.5
					c0.5-0.2,1-1.5,1-2c0.3-2.7,0.1-5.4,0.2-8c0-6.3,0.1-12.6,0.1-19c0-6.3,0-12.7,0.1-19c0-2.6-0.2-5.3-0.1-7.9
					c0.1-1.3,0.2-2.6,0.3-4c0-1,0.5-1.8,1.4-2.3c1.4-0.6-2-2.4-2.4-2.5c-1.8-0.3-3.7-0.2-5.6-0.2c-6.1,0-12.1,0-18.2,0
					c-15.7,0-31.4,0.1-47.1,0c-18.4,0-36.8,0.1-55.2,0c-8.4-0.1-16.7-0.1-25.1-0.1c-2.9,0-5.8,0.1-8.6,0.1c-2,0-6.5,0.7-7.8-1.4
					c-0.6-0.8-2.5,1.8-2.6,2.1c-0.4,2.7-0.2,5.5-0.2,8.3c0,7-0.1,14-0.1,21c0,6.8-0.2,13.5,0,20.3c0.1,2.5,0.3,4.9,0.3,7.4
					c0,1.2,0.1,2.9-1,3.8c-0.7,0.6,1.1,1.9,1.5,2c2.3,0.3,4.7,0.2,7,0.2c6.5,0,13,0.1,19.4,0.1c19.5-0.1,38.9-0.1,58.4-0.1
					c28.4,0,56.8-0.2,85.1,0.2C382.6,192.7,381.2,190.3,380.3,190.3z"/>
				<path id="XMLID_79_" class="st0" d="M380.1,187.6c-28.4-0.2-56.8-0.1-85.1-0.1c-18.6,0-37.2,0-55.8,0c-9.7,0-19.6,0.3-29.3-0.1
					c0.6,0.9,1.2,1.8,1.7,2.6c0.3-0.6,0.3-0.9,0.4-1.5c0.4-3.5,0.7-7.1,1-10.7c0.7-7.2,0.8-14.5,1-21.7c0.2-10.5,0-21,0.4-31.5
					c-0.8,1.3-1.6,2.5-2.4,3.8c3.4,0.4,6.7,0.5,10.1,0.6c6.9,0.2,13.7,0.4,20.6,0.6c19.8,0.4,39.5,0.4,59.3,0.4
					c27.2,0.1,54.3-0.1,81.5,0.1c-0.1-0.3-0.2-0.7-0.3-1c-0.5,1.4-1.2,2.8-1.7,4.2c-0.7,2.1-1.1,4.2-1.3,6.4
					c-0.3,2.8-0.1,5.6-0.2,8.4c-0.1,4.2-0.2,8.3-0.3,12.5c-0.2,10.5-0.2,21-0.3,31.5c0,0.2,0.5,1.5,0.5,1c0.1-9,0.1-18,0.3-27
					c0.1-6.3,0.2-12.5,0.7-18.8c0.1-1.9,0.3-3.8,0.5-5.8c0-1.3,0.1-2.5,0.1-3.8c0.4-2.4,1.1-4.7,1.5-7c-0.2,0.4-0.4,0.7-0.5,1.1
					c0.5-0.5,1-1.1,1.4-1.6c0.3-0.2,0.3-1.2-0.2-1.2c-24.8-0.1-49.6,0-74.5-0.1c-18.3,0-36.5-0.1-54.8-0.3
					c-7.3-0.1-14.6-0.2-21.9-0.4c-2.8-0.1-5.6-0.2-8.5-0.3c-3-0.2-7.4,0.3-9.7-2.2c0.1,0.2,0.2,0.4,0.3,0.6
					c-0.1-0.6-0.1-1.3-0.2-1.9c-0.1-0.9-1,0.2-1.2,0.3c-0.6,0.8-1.4,2.2-1.5,3.2c-0.3,2.2-0.2,4.4-0.2,6.7c0,6.1-0.1,12.1-0.1,18.2
					c0,6.3-0.1,12.6-0.2,18.9c0,2.5-0.1,4.9-0.2,7.4c0,1.8-0.1,3.6-0.4,5.3c0.2,1.4-0.2,2.5-1.2,3.3c-0.9,0.6,0.9,2.8,1.5,2.9
					c2.2,0.4,4.6,0.2,6.9,0.2c6.4,0,12.7,0,19.1,0c19.6,0,39.1,0,58.7,0c28.3,0,56.5-0.1,84.8,0.1
					C382,190.8,380.9,187.6,380.1,187.6z"/>
				<path id="XMLID_67_" class="st0" d="M377,189.1c-28.4-0.1-56.8,0-85.2,0c-18.6,0-37.2,0-55.8,0c-9.8,0-19.6,0.1-29.4,0
					c1.1,0.7,2.3,1.4,3.4,2c0.4-3.6,0.6-7.2,0.8-10.8c0.4-7.3,0.6-14.6,0.8-21.9c0.2-10.5,0.2-20.9,0.3-31.4c-0.4,0-0.8,0.1-1.2,0.1
					c0.7,0.5,1.4,1,2.1,1.5c0.5,0.1,1,0.3,1.5,0.4c2.6,0.7,5.1,1.6,7.8,1.7c6,0.1,12.1,0.2,18.1,0.3c19.8,0.3,39.6,0.4,59.4,0.4
					c27.2,0.1,54.4,0.1,81.6,0.1c0.3-0.2,0.7-0.3,1-0.5c-0.5,0-0.9,0.1-1.4,0.1c0,0-0.1,0-0.1,0.1c-1.5,3.4-2.3,7.1-2.6,10.8
					c-0.6,7.4-0.8,14.9-1,22.4c-0.2,6.5-0.3,13-0.3,19.4c0,3.3,0,6.6-0.2,9.8c-0.1,1.4,2.9-0.7,3.1-1.5c0.5-3,0.2-6.3,0.2-9.4
					c0-7.1,0-14.3,0-21.4c0-6.5,0-13,0.1-19.5c0.1-3.5,0.3-7.7,2.4-10.7c0.1-0.1-0.1-0.2-0.1-0.2c-27.2,0-54.4,0-81.6-0.1
					c-18.8,0-37.6,0-56.4-0.4c-6.6-0.1-13.1-0.4-19.6-0.9c-1.9,0.1-3.7-0.1-5.5-0.6c-0.8-0.2-1.6-0.4-2.4-0.6
					c-0.8-0.2-1.6-0.4-2.3-0.7c-1-0.5-2-0.7-3.1-0.6c0.4,0.2,0.8,0.4,1.2,0.5c-0.2-0.2-0.3-0.5-0.5-0.7c-0.1-0.2-1.3-0.5-1.3,0
					c-0.1,8.4-0.1,16.8-0.2,25.2c-0.1,6.4-0.2,12.8-0.5,19.1c-0.1,2.5-0.2,5-0.3,7.5c-0.1,1.6-0.2,3.1-0.3,4.7
					c0.1,2.3-0.9,4.3-3.1,5.8c-0.8,0.1,0.1,1,0.3,1.1c0.7,0.6,2,1.1,2.9,1.2c2.4,0.3,4.8,0.2,7.2,0.2c6.4,0,12.8,0,19.2,0
					c19.5,0,39.1,0,58.6,0c28.3,0,56.7-0.2,85,0.1c0.6,0,0.9-0.4,0.5-0.9C379.6,190.2,377.7,189.1,377,189.1z"/>
				<path id="XMLID_66_" class="st0" d="M381.3,189.3c-29.5-0.4-58.9-0.1-88.4-0.1c-18.4,0-36.8,0-55.3,0c-5.8,0-11.6,0-17.4,0
					c-2.9,0-5.9,0.1-8.8-0.1c-0.1,0.3-0.1,0.6-0.2,0.9c1-0.4,0.9-0.4,1.3-1.5c0.3-1,0.5-2,0.7-3c1.4-6.2,1.6-12.6,1.9-18.9
					c0.4-8.3,0.6-16.7,0.7-25c0.1-5,0-10.1,0.2-15.1c-1.1,1-2.2,2-3.3,3c2.5,0.8,5.6,0.5,8.1,0.6c5,0.1,10,0.5,15,0.6
					c20.2,0.6,40.4,0.5,60.6,0.6c19.8,0,39.5,0.1,59.3,0.1c9.8,0,19.6-0.2,29.3,0c-0.9-0.4-1.8-0.9-2.7-1.3
					c-2.7,21.1-2.1,42.5-2.3,63.7c0,0.3,1.3,0.5,1.3,0.4c0.1-7.7,0.1-15.4,0.2-23c0.1-5.7,0.2-11.4,0.4-17.1
					c0.1-3.3,0.3-6.6,0.4-9.9c0.2-3,0.2-11.8,2.7-12.8c1.8-0.6-1.2-1.7-1.7-1.7c-3.1-0.2-6.2-0.2-9.3-0.2c-5.9,0-11.8,0-17.6,0
					c-17.2,0-34.3,0-51.5,0c-18.1,0-36.2,0-54.3-0.2c-6.9-0.1-13.8-0.1-20.7-0.3c-3.9,0-7.8-0.3-11.6-0.8c-1-0.1-1.8-0.5-2.5-1.2
					c0.1,0.2,0.2,0.3,0.4,0.5c-0.1-0.3-0.1-0.7-0.2-1c-0.3-1.6-3.5,1.8-3.7,2.6c-0.5,2.5-0.2,5.3-0.2,7.8c0,7,0,14-0.1,20.9
					c0,6.7,0,13.4-0.1,20c-0.1,2.4-0.1,4.7-0.4,7.1c-0.2,1.7-0.3,3.4-1.3,4.8c-0.1,0.2,0.1,0.6,0.3,0.5c2.9-0.1,5.8-0.1,8.7-0.1
					c8.7,0,17.4,0,26.1,0c19.1,0.1,38.1,0,57.2,0c26,0,52-0.1,78.1,0c0.3,0,0.8,0,0.9-0.3C381.8,189.5,381.5,189.3,381.3,189.3z"/>
			</g>
		</g>
	</g>
	<g id="XMLID_111_">
		<path id="XMLID_112_" d="M257.4,159.4c0,4.9-0.2,7.8-0.6,8.6l-1.8-0.1c-0.9-1.5-2.4-3.7-4.5-6.5c-0.8-1.1-1.6-2.2-2.5-3.3
			c-0.8-1.1-1.6-2.2-2.2-3.2c-0.3,1.4-0.5,4.3-0.5,8.6c0,1.6,0,3-0.1,4.2c-0.3,0.3-0.6,0.4-1,0.4s-0.6,0-0.8-0.1
			c-0.1-0.1-0.2-0.2-0.2-0.4s0-0.4,0.1-0.8c0-0.4,0.1-1,0.1-1.8c0.1-0.9,0.1-1.8,0.2-2.7c0.1-2.5,0.2-4.6,0.2-6.4c0-1.8,0-3.3,0-4.5
			c0.4-0.3,0.6-0.6,0.8-0.7c0.2-0.1,0.4-0.1,0.7,0c0.2,0.2,0.6,0.5,0.9,1s0.9,1.3,1.6,2.3c2.4,3.4,4.7,6.5,7,9.5l0.5-12.1
			c0.2-0.3,0.4-0.5,0.5-0.7c0.2-0.1,0.4-0.2,0.7-0.2c0.6,0,0.8,0.5,0.8,1.6l0,0.9L257.4,159.4z"/>
		<path id="XMLID_114_" d="M259.5,163.4c0-1.9,0.8-3.4,2.5-4.6c1.3-0.9,2.9-1.5,4.7-1.7c0.1,0,0.3,0,0.7,0c0.4,0,0.8,0.1,1.4,0.3
			c1.3,0.5,2.2,1.3,2.7,2.4c0.2,0.5,0.3,0.8,0.3,1.2s0,0.5,0,0.7c0,2-0.8,3.6-2.3,4.8c-1.4,1.1-3.2,1.6-5.3,1.6
			c-1.5,0-2.7-0.4-3.5-1.1C259.9,166.2,259.5,165,259.5,163.4z M261.2,163.9c0,1,0.3,1.7,0.8,2c0.4,0.3,1.1,0.4,2,0.4
			s1.8-0.1,2.5-0.2s1.4-0.4,1.9-0.8c1.2-0.8,1.8-2,1.8-3.6c0-1-0.3-1.8-0.8-2.4c-0.6-0.7-1.3-1-2.2-1c-0.6,0.1-1.3,0.2-1.9,0.4
			c-0.6,0.1-1.2,0.4-1.8,0.8C262.3,160.3,261.5,161.8,261.2,163.9z"/>
		<path id="XMLID_117_" d="M272.7,164.7c0-0.3,0-0.6-0.1-1.1c0-0.5-0.1-1-0.1-1.5c0-0.5,0-1.1,0-1.7s0-1.1,0.1-1.6
			c0.2-1.1,0.6-1.6,1.3-1.6c0.5,0.1,0.8,0.3,0.9,0.5c0.2,0.2,0.2,0.4,0.2,0.7s-0.1,0.6-0.2,1.1c-0.5,1.4-0.8,2.7-0.8,3.8
			c0,0.4,0,0.8,0.1,1.2c0.3,1.1,1.1,1.6,2.7,1.6c0.8,0,1.5-0.1,2.3-0.4c1.4-0.5,2.3-1.1,2.8-1.8c0.1-0.7,0.2-1.4,0.2-2
			c0-0.6,0-1.1-0.1-1.5c0-0.4-0.1-0.9-0.1-1.4c-0.1-0.5-0.1-1.1-0.1-1.7c0.2-0.1,0.4-0.1,0.6-0.1c0.2,0,0.4,0.1,0.6,0.3
			c0.2,0.2,0.4,0.6,0.6,1.2s0.3,1.3,0.3,2c0,0.8,0.1,1.6,0.1,2.4c0,0.8,0,1.7,0,2.4s0,1.5,0.1,2c-0.2,0.2-0.4,0.3-0.6,0.3
			c-0.6,0-1.1-0.6-1.4-1.9c-0.2,0.2-0.6,0.4-1.1,0.7c-1.1,0.6-2.3,1-3.8,1.2c-0.3,0-0.6,0-0.9,0c-0.3,0-0.8-0.1-1.3-0.2
			c-0.5-0.1-1-0.4-1.4-0.9C273.1,166.3,272.8,165.7,272.7,164.7z"/>
		<path id="XMLID_119_" d="M285.7,158.6c0-0.1,0-0.2,0-0.3s0-0.2,0.1-0.4s0.2-0.3,0.4-0.5c0.2-0.1,0.3-0.2,0.5-0.2
			c0.2,0,0.3,0.1,0.4,0.4l4.1,7.6c0.1-0.2,0.3-0.6,0.6-1.1c0.3-0.5,0.6-1.1,1-1.8s0.7-1.4,1.1-2.1c0.4-0.7,0.8-1.4,1.1-2
			c0.8-1.4,1.2-2.1,1.4-2.1c0.3,0,0.6,0.1,0.7,0.4c0.2,0.3,0.2,0.4,0.2,0.6c0,0.1,0,0.2,0,0.3c-0.9,2-1.7,3.8-2.5,5.5
			c-0.8,1.7-1.3,2.7-1.5,3.2c-0.3,0.5-0.5,0.9-0.7,1.2c-0.3,0.5-0.7,0.8-1,0.8c-0.3,0-0.7-0.3-1.1-0.8c-0.4-0.5-0.9-1.2-1.4-2
			C288.1,163.6,287,161.4,285.7,158.6z"/>
		<path id="XMLID_121_" d="M303.3,166.3c1.4,0,3.6-0.6,6.4-1.9c0.2,0,0.3,0.1,0.4,0.2c0.1,0.1,0.2,0.3,0.2,0.4
			c-0.6,1.1-1.9,2-3.7,2.6c-1.8,0.6-3.5,0.7-5.1,0.3c-1.8-0.5-2.9-1.5-3.3-3c0-0.3,0-0.7,0-1.2c0-0.5,0.1-1.2,0.4-2
			c0.3-0.8,0.7-1.7,1.4-2.4c0.6-0.8,1.4-1.4,2.3-1.8c0.9-0.4,1.8-0.7,2.8-0.7c0.9,0,2,0.3,3.2,1c0.5,0.3,1,0.7,1.3,1
			c0.3,0.4,0.5,0.8,0.5,1.2c0,0.1,0,0.2,0,0.3c0,1-0.5,1.6-1.4,1.9c-0.4,0.1-0.9,0.2-1.4,0.2l-3.5-0.1c-1.2,0-2.1,0.3-2.7,0.8
			c-0.4,0.3-0.6,0.7-0.8,1.2C300.6,165.5,301.6,166.3,303.3,166.3z M307.6,158.8c-0.4-0.3-0.7-0.4-1.1-0.6s-0.7-0.2-1-0.2
			c-0.3,0-0.7,0.1-1.3,0.3c-0.6,0.2-1.1,0.4-1.6,0.6c-1.1,0.5-1.7,1.1-1.7,1.6c1.3,0.1,2.3,0.2,2.9,0.2c1.8,0,3-0.2,3.6-0.5
			c0.4-0.2,0.6-0.4,0.6-0.6C308.2,159.3,308,159,307.6,158.8z"/>
		<path id="XMLID_124_" d="M312.2,158.5c0-0.9-0.1-1.7-0.1-2.3c0-0.7-0.1-1.2-0.1-1.5c0-0.3-0.1-1.1-0.4-2.4
			c0.1-0.2,0.3-0.4,0.4-0.6s0.3-0.3,0.6-0.3c0.6,0,1,2.4,1.3,7.2c0.2,2.8,0.2,5.5,0.2,8.3c0,0.7-0.5,1.1-1.6,1.1l-0.2,0
			c0-0.8,0-1.9-0.1-3.2c0-1.3-0.1-2.4-0.1-3.4C312.3,160.3,312.3,159.4,312.2,158.5z"/>
		<path id="XMLID_126_" d="M316.1,158.5c0-0.9-0.1-1.7-0.1-2.3c0-0.7-0.1-1.2-0.1-1.5c0-0.3-0.1-1.1-0.4-2.4
			c0.1-0.2,0.3-0.4,0.4-0.6s0.3-0.3,0.6-0.3c0.6,0,1,2.4,1.3,7.2c0.2,2.8,0.2,5.5,0.2,8.3c0,0.7-0.5,1.1-1.6,1.1l-0.2,0
			c0-0.8,0-1.9-0.1-3.2c0-1.3-0.1-2.4-0.1-3.4C316.2,160.3,316.2,159.4,316.1,158.5z"/>
		<path id="XMLID_128_" d="M324.5,166.3c1.4,0,3.6-0.6,6.4-1.9c0.2,0,0.3,0.1,0.4,0.2c0.1,0.1,0.2,0.3,0.2,0.4
			c-0.6,1.1-1.9,2-3.7,2.6c-1.8,0.6-3.5,0.7-5.1,0.3c-1.8-0.5-2.9-1.5-3.3-3c0-0.3,0-0.7,0-1.2c0-0.5,0.1-1.2,0.4-2
			c0.3-0.8,0.7-1.7,1.4-2.4c0.6-0.8,1.4-1.4,2.3-1.8c0.9-0.4,1.8-0.7,2.8-0.7c0.9,0,2,0.3,3.2,1c0.5,0.3,1,0.7,1.3,1
			c0.3,0.4,0.5,0.8,0.5,1.2c0,0.1,0,0.2,0,0.3c0,1-0.5,1.6-1.4,1.9c-0.4,0.1-0.9,0.2-1.4,0.2l-3.5-0.1c-1.2,0-2.1,0.3-2.7,0.8
			c-0.4,0.3-0.6,0.7-0.8,1.2C321.8,165.5,322.9,166.3,324.5,166.3z M328.9,158.8c-0.4-0.3-0.7-0.4-1.1-0.6s-0.7-0.2-1-0.2
			c-0.3,0-0.7,0.1-1.3,0.3c-0.6,0.2-1.1,0.4-1.6,0.6c-1.1,0.5-1.7,1.1-1.7,1.6c1.3,0.1,2.3,0.2,2.9,0.2c1.8,0,3-0.2,3.6-0.5
			c0.4-0.2,0.6-0.4,0.6-0.6C329.4,159.3,329.2,159,328.9,158.8z"/>
		<path id="XMLID_131_" d="M341.3,161.7c1.8,0,2.7,0.5,2.7,1.4c0,0.7-0.5,1.5-1.5,2.4c-1.5,1.3-3.5,2.4-5.9,3.2
			c-0.1,0-0.2-0.1-0.4-0.3c-0.1-0.2-0.2-0.4-0.3-0.5c-0.1-0.1-0.1-0.2-0.2-0.2c1.9-0.6,3.4-1.4,4.6-2.2c0.8-0.6,1.2-1.1,1.2-1.4
			s-0.5-0.6-1.4-0.6c-1,0-2.4,0.2-4.2,0.7c-0.8,0-1.6-0.3-2.2-0.9c-0.5-0.5-0.8-1-0.8-1.5c0-0.5,0.1-1,0.4-1.4s0.7-0.8,1.2-1.2
			c0.5-0.4,1.1-0.7,1.7-1c1.6-0.8,3.2-1.1,4.9-1.1c0.5,0,1,0,1.5,0.1c0.4,0,0.6,0.2,0.7,0.5c0.1,0.3,0.1,0.9,0.1,1.7
			c-1-0.4-2-0.7-3.2-0.7c-1.5,0-2.7,0.3-3.7,0.9c-1,0.6-1.5,1.3-1.6,2.3c0,0.5,0.3,0.7,1,0.7l1.8-0.2
			C339.2,161.9,340.4,161.7,341.3,161.7z"/>
	</g>
</g>
<g id="XMLID_14_">
	<g id="XMLID_10_">
		<g id="XMLID_53_">
			<g id="XMLID_54_">
				<path id="XMLID_62_" class="st0" d="M585.9,190.8c-56.8-0.1-113.6,0-170.3,0c-0.1,0.4-0.3,0.8-0.4,1.3c0.8-0.2,1.2-0.6,1.3-1.3
					c0.2-0.7,0.4-1.4,0.7-2.1c0.7-2.2,1.6-4.3,1.7-6.6c0.3-7.1,0.5-14.3,0.6-21.4c0.1-6.6,0.1-13.3,0.2-19.9c0-3.7-0.2-7.6,0.2-11.3
					c-0.4,0-0.7,0.1-1.1,0.1c1.1,1.4,3.4,1.4,5,1.7c5.8,1,11.5,1.3,17.3,1.6c20.1,1,40.2,0.9,60.3,1c29.6,0.1,59.2-0.2,88.8,0.2
					c-1.1-1.1-2.1-2.2-3.2-3.3c-0.8,2.9-0.4,6.2-0.5,9.2c-0.2,7.3-0.7,14.6-0.8,21.9c-0.2,11.2,0,22.5-0.4,33.7
					c0,0.5,0.6,0.5,0.9,0.4c0.5-0.3,0.7-1.5,0.8-2c0.2-2.4,0.1-4.8,0.2-7.2c0-6.1,0.1-12.1,0.1-18.2c0.1-7.5,0.1-14.9,0.4-22.4
					c0.1-2,0.1-4.1,0.3-6.1c0.1-1.2-0.1-5.6,2.3-6c1.5-0.2-2-3.6-2.7-3.7c-1.8-0.4-3.6-0.2-5.4-0.2c-6,0-12.1,0-18.1,0
					c-18,0-36.1,0.1-54.1,0.1c-18,0-36.1,0.1-54.1-0.1c-7.7-0.1-15.4,0-23.1-0.1c-2.3,0-4.6-0.1-6.9-0.2c-2-0.1-4.6,0.1-6.3-1
					c-0.3-0.2-0.9-0.1-0.9,0.4c0.1,3.6,0,7.3,0,10.9c0,6.6,0,13.2-0.1,19.9c-0.1,6-0.2,12-0.4,18c-0.1,2.6-0.2,4.9-0.9,7.4
					c-0.6,2.1-1.4,4-2.1,6c0,0-0.3,0.7-0.1,0.7c56.8,0,113.6-0.1,170.3,0C585.8,192.1,586,190.8,585.9,190.8z"/>
				<path id="XMLID_61_" class="st0" d="M584.9,190.4c-28.4-0.1-56.8-0.1-85.2-0.1c-18.6,0-37.2,0-55.8,0c-9.8,0-19.6,0.2-29.3-0.1
					c0.8,0.5,1.6,1,2.5,1.5c0.4-2.7,0.5-5.4,0.6-8.1c0.2-7.2,0.3-14.3,0.4-21.5c0.1-6.8,0.2-13.7,0.2-20.5c0-4.3-0.2-8.6,0.1-12.9
					c-0.4,0.3-0.7,0.5-1.1,0.8c0.9,0.3,1.8,0.5,2.7,0.6c4.7,0.6,9.4,0.6,14.1,0.8c19.3,0.5,38.6,0.6,58,0.7
					c20.2,0.1,40.5,0.1,60.7,0.1c7.5,0,15,0,22.5,0c4,0,8.2-0.2,12.2,0.1c-0.4-0.6-0.8-1.2-1.2-1.8c-0.4,1.1-0.3,2.6-0.4,3.8
					c-0.2,2.5-0.6,4.9-0.7,7.4c-0.5,7.3-0.7,14.7-0.9,22c-0.2,10.5,0,21-0.4,31.5c0,0.8,0.9,0.2,1.1,0c0.6-0.4,1.8-1.7,2-2.4
					c0.4-2.3,0.3-4.6,0.3-7c0-6.1,0.1-12.1,0.1-18.2c0-7.5,0.1-15,0.1-22.5c0-2.3,0.1-4.6,0-7c0-1.5-0.6-4.7,0.7-6
					c0.5-0.5-0.3-2-1-2.1c-1.9-0.2-3.8-0.2-5.7-0.2c-6,0-12.1,0-18.1,0c-18,0-36.1,0-54.1,0c-18.1,0-36.1,0-54.2-0.1
					c-7.8-0.1-15.5-0.2-23.3-0.2c-4.5,0-9.4,0.4-13.8-0.7c0.2,0.2,0.5,0.3,0.7,0.5c-0.1-0.1-0.2-0.3-0.3-0.4
					c-0.5-0.7-1.4-0.6-1.5,0.4c-0.2,2.3-0.1,4.5-0.1,6.8c0,6.1-0.1,12.1-0.1,18.2c0,6.3-0.1,12.6-0.2,18.9c-0.1,2.4-0.1,4.9-0.1,7.3
					c0,1.8-0.1,3.6-0.3,5.4c0.2,1.9-0.4,3.5-1.8,4.8c-1.4,0.7,2.1,1.7,2.3,1.8c2.4,0.2,4.8,0.1,7.2,0.1c6.4,0,12.8,0,19.2,0
					c19.5,0,39.1,0,58.6,0c28.3,0,56.7-0.2,85,0.1c0.6,0,0.7-0.6,0.5-1C586.9,190.9,585.5,190.4,584.9,190.4z"/>
				<path id="XMLID_60_" class="st0" d="M584.1,187.1c-28.4-0.1-56.8,0-85.2,0c-28.4,0-56.8,0.2-85.2,0c1.1,1.1,2.2,2.2,3.3,3.3
					c0.3-1.1,0.3-2.3,0.4-3.4c0.2-3.6,0.2-7.2,0.4-10.8c0.3-6.2,0.5-12.5,0.6-18.8c0.1-6.8,0.2-13.6,0.2-20.4
					c0-3.6-0.1-7.3,0.1-10.9c-0.4,0.6-0.7,1.3-1.1,1.9c7.5,1.1,15,1.5,22.5,1.8c19.9,0.8,39.9,0.6,59.8,0.6
					c29.6,0.1,59.1,0.1,88.7,0.1c0.1-0.4,0.3-0.8,0.4-1.3c-0.8,0.1-1.3,0.5-1.4,1.2c-0.2,0.7-0.5,1.4-0.7,2.1
					c-0.8,2.2-1.6,4.3-1.8,6.6c-0.4,7.1-0.6,14.3-0.7,21.4c-0.1,6.6-0.1,13.3-0.2,19.9c0,3.7,0.2,7.6-0.2,11.3
					c-0.1,0.8,1.3,1.3,1.3,0.5c-0.2-3.7,0-7.4,0-11c0-6.6,0-13.2,0.1-19.9c0.1-6,0.2-12,0.4-18c0.1-2.6,0.2-4.9,0.9-7.4
					c0.6-2.1,1.4-4.1,2.2-6.1c0,0,0.3-0.7,0.1-0.7c-24.9,0-49.7,0-74.6-0.1c-18.3,0-36.5-0.1-54.8-0.3c-7.4-0.1-14.8-0.3-22.2-0.5
					c-2.9-0.1-5.7-0.2-8.6-0.4c-1.6-0.1-3.2-0.2-4.8-0.3c-2.2,0.4-4-0.3-5.5-2.1c-0.7-1.6-1.5,1-1.6,1.5c-0.1,1.6-0.1,3.1-0.1,4.7
					c0,6.2-0.1,12.3-0.1,18.5c-0.1,6.9-0.1,13.9-0.3,20.8c-0.1,3.1-0.2,6.3-0.4,9.4c-0.1,1.3,0.3,6.4-2.5,6.6c-1,0.1,0,1.3,0.2,1.5
					c0.7,0.8,1.6,2,2.7,2.2c2.3,0.5,4.7,0.2,7,0.2c6.4,0,12.8,0.1,19.1,0c19.5-0.1,39.1-0.1,58.6-0.1c28.3,0,56.6-0.2,84.9,0.2
					C587.7,191.2,585.1,187.1,584.1,187.1z"/>
				<path id="XMLID_59_" class="st0" d="M586.3,190.3c-28.3-0.2-56.5-0.1-84.8-0.1c-18.7,0-37.4,0-56.1,0c-6.7,0-13.4,0-20.1,0
					c-2.9,0-5.9,0.1-8.8-0.1c0.6,0.6,1.1,1.1,1.7,1.7c0.1-1,0.1-2.1,0.1-3.2c0-2.5,0.2-5.1,0.4-7.6c0.4-7.3,0.5-14.6,0.7-21.9
					c0.1-6.7,0.2-13.3,0.3-20c0-3.8,0-7.6,0.1-11.4c-0.8,0.9-1.5,1.7-2.3,2.6c2.7,0.1,5.5-0.1,8.2,0c5.8,0.2,11.6,0.4,17.4,0.6
					c19.2,0.4,38.4,0.4,57.6,0.5c18.9,0,37.7,0.1,56.6,0.1c7.7,0,15.5,0,23.2,0c3,0,5.9-0.1,8.9,0.1c-0.9-0.6-1.8-1.3-2.7-1.9
					c-0.1,3.4,0.1,6.7,0,10.1c-0.1,7.4-0.4,14.8-0.4,22.2c-0.1,6.6-0.1,13.3-0.2,19.9c0,3.8,0.1,7.6-0.1,11.4c0,0.5,0.6,0.6,1,0.5
					c0.5-0.2,1-1.5,1-2c0.3-2.7,0.1-5.4,0.2-8c0-6.3,0.1-12.6,0.1-19c0-6.3,0-12.7,0.1-19c0-2.6-0.2-5.3-0.1-7.9
					c0.1-1.3,0.2-2.6,0.3-4c0-1,0.5-1.8,1.4-2.3c1.4-0.6-2-2.4-2.4-2.5c-1.8-0.3-3.7-0.2-5.6-0.2c-6.1,0-12.1,0-18.2,0
					c-15.7,0-31.4,0.1-47.1,0c-18.4,0-36.8,0.1-55.2,0c-8.4-0.1-16.7-0.1-25.1-0.1c-2.9,0-5.8,0.1-8.6,0.1c-2,0-6.5,0.7-7.8-1.4
					c-0.6-0.8-2.5,1.8-2.6,2.1c-0.4,2.7-0.2,5.5-0.2,8.3c0,7-0.1,14-0.1,21c0,6.8-0.2,13.5,0,20.3c0.1,2.5,0.3,4.9,0.3,7.4
					c0,1.2,0.1,2.9-1,3.8c-0.7,0.6,1.1,1.9,1.5,2c2.3,0.3,4.7,0.2,7,0.2c6.5,0,13,0.1,19.4,0.1c19.5-0.1,38.9-0.1,58.4-0.1
					c28.4,0,56.8-0.2,85.1,0.2C588.6,192.7,587.1,190.3,586.3,190.3z"/>
				<path id="XMLID_57_" class="st0" d="M586.1,187.6c-28.4-0.2-56.8-0.1-85.1-0.1c-18.6,0-37.2,0-55.8,0c-9.7,0-19.6,0.3-29.3-0.1
					c0.6,0.9,1.2,1.8,1.7,2.6c0.3-0.6,0.3-0.9,0.4-1.5c0.4-3.5,0.7-7.1,1-10.7c0.7-7.2,0.8-14.5,1-21.7c0.2-10.5,0-21,0.4-31.5
					c-0.8,1.3-1.6,2.5-2.4,3.8c3.4,0.4,6.7,0.5,10.1,0.6c6.9,0.2,13.7,0.4,20.6,0.6c19.8,0.4,39.5,0.4,59.3,0.4
					c27.2,0.1,54.3-0.1,81.5,0.1c-0.1-0.3-0.2-0.7-0.3-1c-0.5,1.4-1.2,2.8-1.7,4.2c-0.7,2.1-1.1,4.2-1.3,6.4
					c-0.3,2.8-0.1,5.6-0.2,8.4c-0.1,4.2-0.2,8.3-0.3,12.5c-0.2,10.5-0.2,21-0.3,31.5c0,0.2,0.5,1.5,0.5,1c0.1-9,0.1-18,0.3-27
					c0.1-6.3,0.2-12.5,0.7-18.8c0.1-1.9,0.3-3.8,0.5-5.8c0-1.3,0.1-2.5,0.1-3.8c0.4-2.4,1.1-4.7,1.5-7c-0.2,0.4-0.4,0.7-0.5,1.1
					c0.5-0.5,1-1.1,1.4-1.6c0.3-0.2,0.3-1.2-0.2-1.2c-24.8-0.1-49.6,0-74.5-0.1c-18.3,0-36.5-0.1-54.8-0.3
					c-7.3-0.1-14.6-0.2-21.9-0.4c-2.8-0.1-5.6-0.2-8.5-0.3c-3-0.2-7.4,0.3-9.7-2.2c0.1,0.2,0.2,0.4,0.3,0.6
					c-0.1-0.6-0.1-1.3-0.2-1.9c-0.1-0.9-1,0.2-1.2,0.3c-0.6,0.8-1.4,2.2-1.5,3.2c-0.3,2.2-0.2,4.4-0.2,6.7c0,6.1-0.1,12.1-0.1,18.2
					c0,6.3-0.1,12.6-0.2,18.9c0,2.5-0.1,4.9-0.2,7.4c0,1.8-0.1,3.6-0.4,5.3c0.2,1.4-0.2,2.5-1.2,3.3c-0.9,0.6,0.9,2.8,1.5,2.9
					c2.2,0.4,4.6,0.2,6.9,0.2c6.4,0,12.7,0,19.1,0c19.6,0,39.1,0,58.7,0c28.3,0,56.5-0.1,84.8,0.1
					C588,190.8,586.8,187.6,586.1,187.6z"/>
				<path id="XMLID_56_" class="st0" d="M583,189.1c-28.4-0.1-56.8,0-85.2,0c-18.6,0-37.2,0-55.8,0c-9.8,0-19.6,0.1-29.4,0
					c1.1,0.7,2.3,1.4,3.4,2c0.4-3.6,0.6-7.2,0.8-10.8c0.4-7.3,0.6-14.6,0.8-21.9c0.2-10.5,0.2-20.9,0.3-31.4c-0.4,0-0.8,0.1-1.2,0.1
					c0.7,0.5,1.4,1,2.1,1.5c0.5,0.1,1,0.3,1.5,0.4c2.6,0.7,5.1,1.6,7.8,1.7c6,0.1,12.1,0.2,18.1,0.3c19.8,0.3,39.6,0.4,59.4,0.4
					c27.2,0.1,54.4,0,81.6,0.1c0.3-0.2,0.7-0.3,1-0.5c-0.5,0-0.9,0.1-1.4,0.1c0,0-0.1,0-0.1,0.1c-1.5,3.4-2.3,7.1-2.6,10.8
					c-0.6,7.4-0.8,14.9-1,22.4c-0.2,6.5-0.3,13-0.3,19.4c0,3.3,0,6.6-0.2,9.8c-0.1,1.4,2.9-0.7,3.1-1.5c0.5-3,0.2-6.3,0.2-9.4
					c0-7.1,0-14.3,0-21.4c0-6.5,0-13,0.1-19.5c0.1-3.5,0.3-7.7,2.4-10.7c0.1-0.1-0.1-0.2-0.1-0.2c-27.2,0-54.4,0-81.6-0.1
					c-18.8,0-37.6,0-56.4-0.4c-6.6-0.1-13.1-0.4-19.6-0.9c-1.9,0.1-3.7-0.1-5.5-0.6c-0.8-0.2-1.6-0.4-2.4-0.6
					c-0.8-0.2-1.6-0.4-2.3-0.7c-1-0.5-2-0.7-3.1-0.6c0.4,0.2,0.8,0.4,1.2,0.5c-0.2-0.2-0.3-0.5-0.5-0.7c-0.1-0.2-1.3-0.5-1.3,0
					c-0.1,8.4-0.1,16.8-0.2,25.2c-0.1,6.4-0.2,12.8-0.5,19.1c-0.1,2.5-0.2,5-0.3,7.5c-0.1,1.6-0.2,3.1-0.3,4.7
					c0.1,2.3-0.9,4.3-3.1,5.8c-0.8,0.1,0.1,1,0.3,1.1c0.7,0.6,2,1.1,2.9,1.2c2.4,0.3,4.8,0.2,7.2,0.2c6.4,0,12.8,0,19.2,0
					c19.5,0,39.1,0,58.6,0c28.3,0,56.7-0.2,85,0.1c0.6,0,0.9-0.4,0.5-0.9C585.6,190.2,583.7,189.1,583,189.1z"/>
				<path id="XMLID_55_" class="st0" d="M587.2,189.3c-29.5-0.4-58.9-0.1-88.4-0.1c-18.4,0-36.8,0-55.3,0c-5.8,0-11.6,0-17.4,0
					c-2.9,0-5.9,0.1-8.8-0.1c-0.1,0.3-0.1,0.6-0.2,0.9c1-0.4,0.9-0.4,1.3-1.5c0.3-1,0.5-2,0.7-3c1.4-6.2,1.6-12.6,1.9-18.9
					c0.4-8.3,0.6-16.7,0.7-25c0.1-5,0-10.1,0.2-15.1c-1.1,1-2.2,2-3.3,3c2.5,0.8,5.6,0.5,8.1,0.6c5,0.1,10,0.5,15,0.6
					c20.2,0.6,40.4,0.5,60.6,0.6c19.8,0,39.5,0.1,59.3,0.1c9.8,0,19.6-0.2,29.3,0c-0.9-0.4-1.8-0.9-2.7-1.3
					c-2.7,21.1-2.1,42.5-2.3,63.7c0,0.3,1.3,0.5,1.3,0.4c0.1-7.7,0.1-15.4,0.2-23c0.1-5.7,0.2-11.4,0.4-17.1
					c0.1-3.3,0.3-6.6,0.4-9.9c0.2-3,0.2-11.8,2.7-12.8c1.8-0.6-1.2-1.7-1.7-1.7c-3.1-0.2-6.2-0.2-9.3-0.2c-5.9,0-11.8,0-17.6,0
					c-17.2,0-34.3,0-51.5,0c-18.1,0-36.2,0-54.3-0.2c-6.9-0.1-13.8-0.1-20.7-0.3c-3.9,0-7.8-0.3-11.6-0.8c-1-0.1-1.8-0.5-2.5-1.2
					c0.1,0.2,0.2,0.3,0.4,0.5c-0.1-0.3-0.1-0.7-0.2-1c-0.3-1.6-3.5,1.8-3.7,2.6c-0.5,2.5-0.2,5.3-0.2,7.8c0,7,0,14-0.1,20.9
					c0,6.7,0,13.4-0.1,20c-0.1,2.4-0.1,4.7-0.4,7.1c-0.2,1.7-0.3,3.4-1.3,4.8c-0.1,0.2,0.1,0.6,0.3,0.5c2.9-0.1,5.8-0.1,8.7-0.1
					c8.7,0,17.4,0,26.1,0c19.1,0.1,38.1,0,57.2,0c26,0,52-0.1,78.1,0c0.3,0,0.8,0,0.9-0.3C587.7,189.5,587.5,189.3,587.2,189.3z"/>
			</g>
		</g>
	</g>
	<g id="XMLID_41_">
		<path id="XMLID_52_" d="M464.3,159.2h0.7c0.3,0,0.5,0,0.8,0.1c0.3,0,0.4,0.2,0.4,0.5c0.1,0.6-0.3,1-1.1,0.9c-0.2,0-0.5,0-0.7,0
			c-0.2,0-0.4,0-0.5,0c-0.1,0-0.2,0.1-0.2,0.1c0.2,0.5,0.3,1,0.5,1.6c0.2,0.6,0.4,1.2,0.6,1.7c0.6,1.4,1.1,2.5,1.6,3.1
			c-0.3,0.3-0.6,0.6-1,0.8c-0.4,0.2-0.6,0.3-0.6,0.3c0,0,0,0-0.1,0l-3.4-7.2l-6.6,1.6l-0.2,1c-0.5,1.9-1,3.2-1.6,3.9
			c-0.1,0.2-0.3,0.2-0.6,0c-0.5-0.2-0.8-0.4-0.8-0.5c0,0,0.2-0.5,0.5-1.4c0.3-0.9,0.7-1.8,1-2.8c0.3-0.9,0.7-1.9,1.1-2.9
			c0.4-1,0.7-2,1.1-2.9c0.3-0.9,0.6-1.8,0.9-2.5c0.3-0.7,0.5-1.3,0.6-1.6c0.1-0.3,0.2-0.6,0.2-0.9c0-0.3,0.1-0.5,0.2-0.6
			c0.2-0.4,0.6-0.6,1.2-0.6c0.7,0.4,1.2,0.9,1.6,1.5c0.4,0.6,0.7,1.3,1,2c0.3,0.7,0.5,1.4,0.8,2.2c0.3,0.7,0.6,1.4,1,2
			c0.1,0.2,0.4,0.3,0.7,0.4C463.8,159.2,464.1,159.2,464.3,159.2z M458.2,154c-0.1,1-0.4,2-0.9,3s-0.8,1.8-1.1,2.4
			c-0.3,0.6-0.5,1.1-0.7,1.6c1.1,0,2.5-0.3,4.1-1c0.4-0.2,0.8-0.3,1.2-0.5C460,156.3,459.2,154.4,458.2,154z M457.2,147.6
			c0-0.5,0.1-0.7,0.4-0.7c0.1,0,0.3,0.1,0.5,0.3l1.6,1.6l-0.4,1c-1.1-0.7-1.7-1.3-1.9-1.6c-0.1-0.1-0.1-0.3-0.2-0.4
			S457.2,147.7,457.2,147.6z"/>
		<path id="XMLID_95_" d="M479.9,158.2c2.2-0.8,4.1-1.1,5.7-1.1c2,0,3.4,0.5,4.1,1.6c0.3,0.5,0.5,1,0.5,1.6c0,0.8-0.3,1.6-0.8,2.5
			c-0.5,0.9-1.2,1.6-2,2.3c-2,1.6-4.3,2.6-7.1,3c0,0.2,0,0.5,0,0.9c0,0.4,0,0.8,0,1.3c0,0.5,0,1,0,1.6c0,0.5,0,1.1,0,1.6
			c0,1.2,0.1,2,0.1,2.1c0,0.2,0,0.3,0,0.4c0,0.4-0.1,0.7-0.4,0.9s-0.6,0.3-1,0.3c-0.1,0-0.2,0-0.2,0l-0.4-19.5
			c0.1-0.2,0.3-0.3,0.6-0.3c0.2,0,0.4,0.1,0.6,0.2S479.9,157.9,479.9,158.2z M487,159.1c-0.5-0.3-1.1-0.4-1.7-0.4s-1.2,0.1-1.8,0.2
			c-1.4,0.3-2.4,0.8-3,1.7c-0.3,0.4-0.4,0.9-0.4,1.6c0,0.1,0,0.1,0,0.2v4.2c3.3-0.7,5.7-1.8,7.1-3.1c0.8-0.8,1.2-1.5,1.2-2.4
			C488.4,160.2,487.9,159.5,487,159.1z"/>
		<path id="XMLID_98_" d="M503.3,159.1c-0.7-0.5-1.6-0.7-2.6-0.7c-1,0-1.9,0.2-2.8,0.6c-1.6,0.7-2.7,1.6-3.3,2.6
			c-0.3,0.5-0.4,1-0.4,1.6c0,0.1,0,0.4,0,0.8c0,0.4,0.1,1,0.2,1.8c0.2,0.8,0.2,1.5,0.2,2.3c-0.3,0-0.6,0.1-0.8,0.1
			c-0.2,0.1-0.4,0.1-0.5,0.1s-0.3-0.1-0.4-0.2c-0.1-0.1-0.2-0.4-0.4-0.8c0-0.1,0-0.4-0.1-0.8c0-0.5-0.1-1-0.2-1.6
			c-0.1-0.6-0.2-1.4-0.2-2.1c-0.1-0.8-0.2-1.5-0.3-2.3c-0.2-1.6-0.3-2.8-0.4-3.6c0-0.4,0.3-0.6,0.8-0.6c0.3,0,0.6,0.1,0.8,0.4
			c0.2,0.3,0.3,0.6,0.5,1c0.1,0.4,0.2,0.7,0.2,1.1c0,0.4,0.1,0.6,0.1,0.8c2.1-1.9,4.8-2.9,8-2.9c0.4,0,0.7,0,1.1,0
			c0.1,0,0.2,0,0.4,0c0.1,0,0.3,0.1,0.4,0.3c0.2,0.2,0.3,0.5,0.3,0.8C504,158.6,503.8,159,503.3,159.1z"/>
		<path id="XMLID_100_" d="M505.7,163.4c0-1.9,0.8-3.4,2.5-4.6c1.3-0.9,2.9-1.5,4.7-1.7c0.1,0,0.3,0,0.7,0s0.8,0.1,1.4,0.3
			c1.3,0.5,2.2,1.3,2.7,2.4c0.2,0.5,0.3,0.8,0.3,1.2s0,0.5,0,0.7c0,2-0.8,3.6-2.3,4.8c-1.4,1.1-3.2,1.6-5.3,1.6
			c-1.5,0-2.7-0.4-3.5-1.1S505.7,165,505.7,163.4z M507.4,163.9c0,1,0.3,1.7,0.8,2c0.4,0.3,1.1,0.4,2,0.4c1,0,1.8-0.1,2.5-0.2
			s1.4-0.4,1.9-0.8c1.2-0.8,1.8-2,1.8-3.6c0-1-0.3-1.8-0.8-2.4c-0.6-0.7-1.3-1-2.2-1c-0.6,0.1-1.3,0.2-1.9,0.4
			c-0.6,0.1-1.2,0.4-1.8,0.8C508.6,160.3,507.8,161.8,507.4,163.9z"/>
		<path id="XMLID_103_" d="M521.4,158.2c2.2-0.8,4.1-1.1,5.7-1.1c2,0,3.4,0.5,4.1,1.6c0.3,0.5,0.5,1,0.5,1.6c0,0.8-0.3,1.6-0.8,2.5
			c-0.5,0.9-1.2,1.6-2,2.3c-2,1.6-4.3,2.6-7.1,3c0,0.2,0,0.5,0,0.9c0,0.4,0,0.8,0,1.3c0,0.5,0,1,0,1.6s0,1.1,0,1.6
			c0,1.2,0.1,2,0.1,2.1s0,0.3,0,0.4c0,0.4-0.1,0.7-0.4,0.9s-0.6,0.3-1,0.3c-0.1,0-0.2,0-0.2,0l-0.4-19.5c0.1-0.2,0.3-0.3,0.6-0.3
			c0.2,0,0.4,0.1,0.6,0.2S521.4,157.9,521.4,158.2z M528.5,159.1c-0.5-0.3-1.1-0.4-1.7-0.4s-1.2,0.1-1.8,0.2c-1.4,0.3-2.4,0.8-3,1.7
			c-0.3,0.4-0.4,0.9-0.4,1.6c0,0.1,0,0.1,0,0.2v4.2c3.3-0.7,5.7-1.8,7.1-3.1c0.8-0.8,1.2-1.5,1.2-2.4
			C529.9,160.2,529.4,159.5,528.5,159.1z"/>
		<path id="XMLID_106_" d="M533.5,163.4c0-1.9,0.8-3.4,2.5-4.6c1.3-0.9,2.9-1.5,4.7-1.7c0.1,0,0.3,0,0.7,0s0.8,0.1,1.4,0.3
			c1.3,0.5,2.2,1.3,2.7,2.4c0.2,0.5,0.3,0.8,0.3,1.2s0,0.5,0,0.7c0,2-0.8,3.6-2.3,4.8c-1.4,1.1-3.2,1.6-5.3,1.6
			c-1.5,0-2.7-0.4-3.5-1.1S533.5,165,533.5,163.4z M535.2,163.9c0,1,0.3,1.7,0.8,2c0.4,0.3,1.1,0.4,2,0.4c1,0,1.8-0.1,2.5-0.2
			s1.4-0.4,1.9-0.8c1.2-0.8,1.8-2,1.8-3.6c0-1-0.3-1.8-0.8-2.4c-0.6-0.7-1.3-1-2.2-1c-0.6,0.1-1.3,0.2-1.9,0.4
			c-0.6,0.1-1.2,0.4-1.8,0.8C536.4,160.3,535.6,161.8,535.2,163.9z"/>
		<path id="XMLID_109_" d="M555.2,161.7c1.8,0,2.7,0.5,2.7,1.4c0,0.7-0.5,1.5-1.5,2.4c-1.5,1.3-3.5,2.4-5.9,3.2
			c-0.1,0-0.2-0.1-0.4-0.3c-0.1-0.2-0.2-0.4-0.3-0.5c-0.1-0.1-0.1-0.2-0.2-0.2c1.9-0.6,3.4-1.4,4.6-2.2c0.8-0.6,1.2-1.1,1.2-1.4
			s-0.5-0.6-1.4-0.6s-2.4,0.2-4.2,0.7c-0.8,0-1.6-0.3-2.2-0.9c-0.5-0.5-0.8-1-0.8-1.5c0-0.5,0.1-1,0.4-1.4c0.3-0.4,0.7-0.8,1.2-1.2
			c0.5-0.4,1.1-0.7,1.7-1c1.6-0.8,3.2-1.1,4.9-1.1c0.5,0,1,0,1.5,0.1c0.4,0,0.6,0.2,0.7,0.5c0.1,0.3,0.1,0.9,0.1,1.7
			c-1-0.4-2-0.7-3.2-0.7c-1.5,0-2.7,0.3-3.7,0.9c-1,0.6-1.5,1.3-1.6,2.3c0,0.5,0.3,0.7,1,0.7l1.8-0.2
			C553.1,161.9,554.3,161.7,555.2,161.7z"/>
	</g>
</g>
<g id="XMLID_15_">
	<g id="XMLID_12_">
		<g id="XMLID_42_">
			<g id="XMLID_43_">
				<path id="XMLID_51_" class="st0" d="M379.9,66.9c-56.8-0.1-113.6,0-170.3,0c-0.1,0.4-0.3,0.8-0.4,1.3c0.8-0.2,1.2-0.6,1.3-1.3
					c0.2-0.7,0.4-1.4,0.7-2.1c0.7-2.2,1.6-4.3,1.7-6.6c0.3-7.1,0.5-14.3,0.6-21.4c0.1-6.6,0.1-13.3,0.2-19.9c0-3.7-0.2-7.6,0.2-11.3
					c-0.4,0-0.7,0.1-1.1,0.1c1.1,1.4,3.4,1.4,5,1.7c5.8,1,11.5,1.3,17.3,1.6c20.1,1,40.2,0.9,60.3,1c29.6,0.1,59.2-0.2,88.8,0.2
					c-1.1-1.1-2.1-2.2-3.2-3.3c-0.8,2.9-0.4,6.2-0.5,9.2c-0.2,7.3-0.7,14.6-0.8,21.9c-0.2,11.2,0,22.5-0.4,33.7
					c0,0.5,0.6,0.5,0.9,0.4c0.5-0.3,0.7-1.5,0.8-2c0.2-2.4,0.1-4.8,0.2-7.2c0-6.1,0.1-12.1,0.1-18.2c0.1-7.5,0.1-14.9,0.4-22.4
					c0.1-2,0.1-4.1,0.3-6.1c0.1-1.2-0.1-5.6,2.3-6c1.5-0.2-1.9-3.6-2.7-3.7c-1.8-0.4-3.6-0.2-5.4-0.2c-6,0-12.1,0-18.1,0
					c-18,0-36.1,0.1-54.1,0.1c-18,0-36.1,0.1-54.1-0.1c-7.7-0.1-15.4,0-23.1-0.1c-2.3,0-4.6-0.1-6.9-0.2c-2-0.1-4.6,0.1-6.3-1
					c-0.3-0.2-0.9-0.1-0.9,0.4c0.1,3.6,0,7.3,0,10.9c0,7.3,0,14.7-0.1,22c-0.1,6.4-0.1,12.7-0.5,19.1c-0.1,2.2-0.7,4.3-1.4,6.4
					c-0.2,0.6-0.4,1.2-0.7,1.7c-0.9,0.8-1.1,1.7-0.5,2.7c0,0,0,0,0.1,0.1c56.6,0,113.3-0.1,169.9,0
					C379.8,68.2,380.1,66.9,379.9,66.9z"/>
				<path id="XMLID_50_" class="st0" d="M379,66.4c-28.4-0.1-56.8-0.1-85.2-0.1c-18.6,0-37.2,0-55.8,0c-9.8,0-19.6,0.2-29.3-0.1
					c0.8,0.5,1.6,1,2.5,1.5c0.4-2.7,0.5-5.4,0.6-8.1c0.2-7.2,0.3-14.3,0.4-21.5c0.1-6.8,0.2-13.7,0.2-20.5c0-4.3-0.2-8.6,0.1-12.9
					c-0.4,0.3-0.7,0.5-1.1,0.8c0.9,0.3,1.8,0.5,2.7,0.6c4.7,0.6,9.4,0.6,14.1,0.8c19.3,0.5,38.6,0.6,58,0.7
					c20.2,0.1,40.5,0.1,60.7,0.1c7.5,0,15,0,22.5,0c4,0,8.2-0.2,12.2,0.1c-0.4-0.6-0.8-1.2-1.2-1.8c-0.4,1.1-0.3,2.6-0.4,3.8
					c-0.2,2.5-0.6,4.9-0.7,7.4c-0.5,7.3-0.7,14.7-0.9,22c-0.2,10.5,0,21-0.4,31.5c0,0.8,0.9,0.2,1.1,0c0.6-0.4,1.8-1.7,2-2.4
					c0.4-2.3,0.3-4.6,0.3-7c0-6.1,0.1-12.1,0.1-18.2c0-7.5,0.1-15,0.1-22.5c0-2.3,0.1-4.6,0-7c0-1.5-0.6-4.7,0.7-6
					c0.5-0.5-0.3-2-1-2.1c-1.9-0.2-3.8-0.2-5.7-0.2c-6,0-12.1,0-18.1,0c-18,0-36.1,0-54.1,0c-18.1,0-36.1,0-54.2-0.1
					c-7.8-0.1-15.5-0.2-23.3-0.2c-4.5,0-9.4,0.4-13.8-0.7c0.2,0.2,0.5,0.3,0.7,0.5c-0.1-0.1-0.2-0.3-0.3-0.4
					C212,3.9,211.1,4,211,4.9c-0.2,2.3-0.1,4.5-0.1,6.8c0,6.1-0.1,12.1-0.1,18.2c0,6.3-0.1,12.6-0.2,18.9c-0.1,2.4-0.1,4.9-0.1,7.3
					c0,1.8-0.1,3.6-0.3,5.4c0.2,1.9-0.4,3.5-1.8,4.8c-1.4,0.7,2.1,1.7,2.3,1.8c2.4,0.2,4.8,0.1,7.2,0.1c6.4,0,12.8,0,19.2,0
					c19.5,0,39.1,0,58.6,0c28.3,0,56.7-0.2,85,0.1c0.6,0,0.7-0.6,0.5-1C380.9,67,379.5,66.4,379,66.4z"/>
				<path id="XMLID_49_" class="st0" d="M378.1,63.1c-28.4-0.1-56.8,0-85.2,0c-28.4,0-56.8,0.2-85.2,0c1.1,1.1,2.2,2.2,3.3,3.3
					c0.3-1.1,0.3-2.3,0.4-3.4c0.2-3.6,0.2-7.2,0.4-10.8c0.3-6.2,0.5-12.5,0.6-18.8c0.1-6.8,0.2-13.6,0.2-20.4
					c0-3.6-0.1-7.3,0.1-10.9c-0.4,0.6-0.7,1.3-1.1,1.9c7.5,1.1,15,1.5,22.5,1.8c19.9,0.8,39.9,0.6,59.8,0.6
					c29.6,0.1,59.1,0.1,88.7,0.1c0.1-0.4,0.3-0.8,0.4-1.3c-0.8,0.1-1.3,0.5-1.4,1.2c-0.2,0.7-0.5,1.4-0.7,2.1
					c-0.8,2.2-1.6,4.3-1.8,6.6c-0.4,7.1-0.6,14.3-0.7,21.4c-0.1,6.6-0.1,13.3-0.2,19.9c0,3.7,0.2,7.6-0.2,11.3
					c-0.1,0.8,1.3,1.3,1.3,0.5c-0.2-3.7,0-7.4,0-11c0-7.3,0-14.7,0.1-22c0.1-6.4,0.1-12.7,0.5-19.1c0.1-2.2,0.7-4.3,1.5-6.4
					c0.2-0.6,0.5-1.2,0.7-1.7c0.9-0.8,1.1-1.7,0.6-2.7c0,0,0,0,0-0.1c-25.9,0-51.8,0-77.7-0.1c-18.1,0-36.3-0.1-54.4-0.4
					c-7.1-0.1-14.3-0.3-21.4-0.5c-2.7-0.1-5.4-0.2-8.1-0.4c-3.4,0.8-6.2,0.1-8.4-2.3c-0.7-1.6-1.5,1-1.6,1.5
					c-0.1,1.6-0.1,3.1-0.1,4.7c0,6.2-0.1,12.3-0.1,18.5c-0.1,6.9-0.1,13.9-0.3,20.8c-0.1,3.1-0.2,6.3-0.4,9.4
					c-0.1,1.3,0.3,6.4-2.5,6.6c-1,0.1,0,1.3,0.2,1.5c0.7,0.8,1.6,2,2.7,2.2c2.3,0.5,4.7,0.2,7,0.2c6.4,0,12.8,0.1,19.1,0
					c19.5-0.1,39.1-0.1,58.6-0.1c28.3,0,56.6-0.2,84.9,0.2C381.7,67.2,379.1,63.1,378.1,63.1z"/>
				<path id="XMLID_47_" class="st0" d="M380.3,66.4c-28.3-0.2-56.5-0.1-84.8-0.1c-18.7,0-37.4,0-56.1,0c-6.7,0-13.4,0-20.1,0
					c-2.9,0-5.9,0.1-8.8-0.1c0.6,0.6,1.1,1.1,1.7,1.7c0.1-1,0.1-2.1,0.1-3.2c0-2.5,0.2-5.1,0.4-7.6c0.4-7.3,0.5-14.6,0.7-21.9
					c0.1-6.7,0.2-13.3,0.3-20c0-3.8,0-7.6,0.1-11.4c-0.8,0.9-1.5,1.7-2.3,2.6c2.7,0.1,5.5-0.1,8.2,0c5.8,0.2,11.6,0.4,17.4,0.6
					c19.2,0.4,38.4,0.4,57.6,0.5c18.9,0,37.7,0.1,56.6,0.1c7.7,0,15.5,0,23.2,0c3,0,5.9,0,8.9,0.1c-0.9-0.6-1.8-1.3-2.7-1.9
					c-0.1,3.4,0.1,6.7,0,10.1c-0.1,7.4-0.3,14.8-0.4,22.2c-0.1,6.6-0.1,13.3-0.2,19.9c0,3.8,0.1,7.6-0.1,11.4c0,0.5,0.6,0.6,1,0.5
					c0.5-0.2,1-1.5,1-2c0.3-2.7,0.1-5.4,0.2-8c0-6.3,0.1-12.6,0.1-19c0-6.3,0-12.7,0.1-19c0-2.6-0.2-5.3-0.1-7.9
					c0.1-1.3,0.2-2.6,0.3-4c0-1,0.5-1.8,1.4-2.3c1.4-0.6-2-2.4-2.4-2.5c-1.8-0.3-3.7-0.2-5.6-0.2c-6.1,0-12.1,0-18.2,0
					c-15.7,0-31.4,0.1-47.1,0c-18.4,0-36.8,0.1-55.2,0c-8.4-0.1-16.7-0.1-25.1-0.1c-2.9,0-5.8,0.1-8.6,0.1c-2,0-6.5,0.7-7.8-1.4
					c-0.6-0.8-2.5,1.8-2.6,2.1c-0.4,2.7-0.2,5.5-0.2,8.3c0,7-0.1,14-0.1,21c0,6.8-0.2,13.5,0,20.3c0.1,2.5,0.3,4.9,0.3,7.4
					c0,1.2,0.1,2.9-1,3.8c-0.7,0.6,1.1,1.9,1.5,2c2.3,0.3,4.7,0.2,7,0.2c6.5,0,13,0.1,19.4,0.1c19.5-0.1,38.9-0.1,58.4-0.1
					c28.4,0,56.8-0.2,85.1,0.2C382.6,68.7,381.2,66.4,380.3,66.4z"/>
				<path id="XMLID_46_" class="st0" d="M380.1,63.7c-28.4-0.2-56.8-0.1-85.1-0.1c-18.6,0-37.2,0-55.8,0c-9.7,0-19.6,0.3-29.3-0.1
					c0.6,0.9,1.2,1.8,1.7,2.6c0.3-0.6,0.3-0.9,0.4-1.5c0.4-3.5,0.7-7.1,1-10.7c0.7-7.2,0.8-14.5,1-21.7c0.2-10.5,0-21,0.4-31.5
					c-0.8,1.3-1.6,2.5-2.4,3.8c3.4,0.4,6.7,0.5,10.1,0.6c6.9,0.2,13.7,0.4,20.6,0.6c19.8,0.4,39.5,0.4,59.3,0.4
					c27.2,0.1,54.3-0.1,81.5,0.1c-0.1-0.3-0.2-0.7-0.3-1c-0.5,1.4-1.2,2.8-1.7,4.2c-0.7,2.1-1.1,4.2-1.3,6.4
					c-0.3,2.8-0.1,5.6-0.2,8.4c-0.1,4.2-0.2,8.3-0.3,12.5c-0.2,10.5-0.2,21-0.3,31.5c0,0.2,0.5,1.5,0.5,1c0.1-9,0.1-18,0.3-27
					c0.1-6.3,0.2-12.5,0.7-18.8c0.1-1.9,0.3-3.8,0.5-5.8c0-1.3,0.1-2.5,0.1-3.8c0.4-2.4,1.1-4.7,1.5-7c-0.2,0.4-0.4,0.7-0.5,1.1
					c0.5-0.5,1-1.1,1.4-1.6c0.3-0.2,0.3-1.2-0.2-1.2c-24.8-0.1-49.6,0-74.5-0.1c-18.3,0-36.5-0.1-54.8-0.3
					c-7.3-0.1-14.6-0.2-21.9-0.4c-2.8-0.1-5.6-0.2-8.5-0.3c-3-0.2-7.4,0.3-9.7-2.2c0.1,0.2,0.2,0.4,0.3,0.6
					c-0.1-0.6-0.1-1.3-0.2-1.9c-0.1-0.9-1,0.2-1.2,0.3c-0.6,0.8-1.4,2.2-1.5,3.2c-0.3,2.2-0.2,4.4-0.2,6.7c0,6.1-0.1,12.1-0.1,18.2
					c0,6.3-0.1,12.6-0.2,18.9c0,2.5-0.1,4.9-0.2,7.4c0,1.8-0.1,3.6-0.4,5.3c0.2,1.4-0.2,2.5-1.2,3.3c-0.9,0.6,0.9,2.8,1.5,2.9
					c2.2,0.4,4.6,0.2,6.9,0.2c6.4,0,12.7,0,19.1,0c19.6,0,39.1,0,58.7,0c28.3,0,56.5-0.1,84.8,0.1C382,66.8,380.9,63.7,380.1,63.7z"
					/>
				<path id="XMLID_45_" class="st0" d="M377,65.2c-28.4-0.1-56.8,0-85.2,0c-18.6,0-37.2,0-55.8,0c-9.8,0-19.6,0.1-29.4,0
					c1.1,0.7,2.3,1.4,3.4,2c0.4-3.6,0.6-7.2,0.8-10.8c0.4-7.3,0.6-14.6,0.8-21.9c0.2-10.5,0.2-20.9,0.3-31.4c-0.4,0-0.8,0.1-1.2,0.1
					c0.7,0.5,1.4,1,2.1,1.5c0.5,0.1,1,0.3,1.5,0.4c2.6,0.7,5.1,1.6,7.8,1.7c6,0.1,12.1,0.2,18.1,0.3c19.8,0.3,39.6,0.4,59.4,0.4
					c27.2,0.1,54.4,0.1,81.6,0.1c0.3-0.2,0.7-0.3,1-0.5c-0.5,0-0.9,0.1-1.4,0.1c0,0-0.1,0-0.1,0.1c-1.5,3.4-2.3,7.1-2.6,10.8
					c-0.6,7.4-0.8,14.9-1,22.4c-0.2,6.5-0.3,13-0.3,19.4c0,3.3,0,6.6-0.2,9.8c-0.1,1.4,2.9-0.7,3.1-1.5c0.5-3,0.2-6.3,0.2-9.4
					c0-7.1,0-14.3,0-21.4c0-6.5,0-13,0.1-19.5c0.1-3.5,0.3-7.7,2.4-10.7c0.1-0.1-0.1-0.2-0.1-0.2c-27.2,0-54.4,0-81.6-0.1
					c-18.8,0-37.6,0-56.4-0.4c-6.6-0.1-13.1-0.4-19.6-0.9c-1.9,0.1-3.7-0.1-5.5-0.6c-0.8-0.2-1.6-0.4-2.4-0.6
					c-0.8-0.2-1.6-0.4-2.3-0.7c-1-0.5-2-0.7-3.1-0.6c0.4,0.2,0.8,0.4,1.2,0.5c-0.2-0.2-0.3-0.5-0.5-0.7c-0.1-0.2-1.3-0.5-1.3,0
					c-0.1,8.4-0.1,16.8-0.2,25.2c-0.1,6.4-0.2,12.8-0.5,19.1c-0.1,2.5-0.2,5-0.3,7.5c-0.1,1.6-0.2,3.1-0.3,4.7
					c0.1,2.3-0.9,4.3-3.1,5.8c-0.8,0.1,0.1,1,0.3,1.1c0.7,0.6,2,1.1,2.9,1.2c2.4,0.3,4.8,0.2,7.2,0.2c6.4,0,12.8,0,19.2,0
					c19.5,0,39.1,0,58.6,0c28.3,0,56.7-0.2,85,0.1c0.6,0,0.9-0.4,0.5-0.9C379.6,66.2,377.7,65.2,377,65.2z"/>
				<path id="XMLID_44_" class="st0" d="M381.3,65.4c-29.5-0.4-58.9-0.1-88.4-0.1c-18.4,0-36.8,0-55.3,0c-5.8,0-11.6,0-17.4,0
					c-2.9,0-5.9,0.1-8.8-0.1c-0.1,0.3-0.1,0.6-0.2,0.9c1-0.4,0.9-0.4,1.3-1.5c0.3-1,0.5-2,0.7-3c1.4-6.2,1.6-12.6,1.9-18.9
					c0.4-8.3,0.6-16.7,0.7-25c0.1-5,0-10.1,0.2-15.1c-1.1,1-2.2,2-3.3,3c2.5,0.8,5.6,0.5,8.1,0.6c5,0.1,10,0.5,15,0.6
					c20.2,0.6,40.4,0.5,60.6,0.6c19.8,0,39.5,0.1,59.3,0.1c9.8,0,19.6-0.2,29.3,0c-0.9-0.4-1.8-0.9-2.7-1.3
					c-2.7,21.1-2.1,42.5-2.3,63.7c0,0.3,1.3,0.5,1.3,0.4c0.1-7.7,0.1-15.4,0.2-23c0.1-5.7,0.2-11.4,0.4-17.1
					c0.1-3.3,0.3-6.6,0.4-9.9c0.2-3,0.2-11.8,2.7-12.8c1.8-0.6-1.2-1.7-1.7-1.7c-3.1-0.2-6.2-0.2-9.3-0.2c-5.9,0-11.8,0-17.6,0
					c-17.2,0-34.3,0-51.5,0c-18.1,0-36.2,0-54.3-0.2C243.9,5.2,237,5.2,230.1,5c-3.9,0-7.8-0.3-11.6-0.8c-1-0.1-1.8-0.5-2.5-1.2
					c0.1,0.2,0.2,0.3,0.4,0.5c-0.1-0.3-0.1-0.7-0.2-1c-0.3-1.6-3.5,1.8-3.7,2.6c-0.5,2.5-0.2,5.3-0.2,7.8c0,7,0,14-0.1,20.9
					c0,6.7,0,13.4-0.1,20c-0.1,2.4-0.1,4.7-0.4,7.1c-0.2,1.7-0.3,3.4-1.3,4.8c-0.1,0.2,0.1,0.6,0.3,0.5c2.9-0.1,5.8-0.1,8.7-0.1
					c8.7,0,17.4,0,26.1,0c19.1,0.1,38.1,0,57.2,0c26,0,52-0.1,78.1,0c0.3,0,0.8,0,0.9-0.3C381.8,65.6,381.5,65.4,381.3,65.4z"/>
			</g>
		</g>
	</g>
	<g id="XMLID_19_">
		<path id="XMLID_20_" d="M274.9,41.9c0-0.3,0.1-0.6,0.4-0.8c0.3-0.2,0.4-0.4,0.6-0.5c0.1-0.1,0.2-0.2,0.3-0.2
			c0.1,1.5,1.1,2.2,3,2.2c1.5,0,3.3-0.5,5.3-1.4c1.4-0.6,2.4-1.3,2.9-2c0.2-0.2,0.2-0.4,0.2-0.5s0-0.2-0.1-0.3l-10.1-2.3
			c-0.3-0.1-0.6-0.2-0.8-0.4c-0.5-0.4-0.8-0.7-0.8-1c0-1.1,0.8-2.1,2.4-3c1.7-1,4.1-1.7,7-2.2c0.7-0.1,1.2-0.2,1.5-0.2
			c0.1,0,0.2,0.1,0.4,0.1c0.2,0,0.4,0.1,0.6,0.1c0.5,0.1,0.7,0.3,0.6,0.6c0,0.5-1.1,1-3.2,1.3c-2.7,0.4-4.4,0.7-5.1,1
			s-1.2,0.6-1.5,0.8c-0.3,0.3-0.5,0.6-0.5,1c0,0.1,0.2,0.2,0.6,0.3c0.4,0.1,0.8,0.2,1.3,0.4c0.5,0.1,1.2,0.3,2,0.5
			c2,0.6,4.5,1.2,7.4,2.1c0.2,0.4,0.2,0.7,0.2,1c0,0.9-0.5,1.7-1.5,2.5c-1.1,0.9-2.7,1.6-4.7,2.3c-1.7,0.5-3,0.8-4,0.8
			c-0.8,0-1.6-0.1-2.4-0.4c-0.7-0.3-1.3-0.6-1.7-0.8C275.1,42.5,274.9,42.2,274.9,41.9z"/>
		<path id="XMLID_22_" d="M291.1,29.3c0-0.6,0.3-0.8,1-0.8c0.4,0,0.8,0.1,1.1,0.3c0,0.2,0.1,0.4,0.1,0.5c0,0.2-0.1,0.3-0.2,0.5
			c-0.1,0.2-0.3,0.2-0.6,0.2s-0.5-0.1-0.8-0.2C291.4,29.7,291.2,29.5,291.1,29.3z M293.4,32.6c0.2,3,0.4,6.5,0.5,10.5
			c-0.1,0.5-0.5,0.8-1.2,0.8c-0.2,0-0.4,0-0.5-0.1c-0.2-0.1-0.3-0.2-0.4-0.3V32.6H293.4z"/>
		<path id="XMLID_35_" d="M298.6,41.7l0-3.9c0-0.6-0.1-1.1-0.2-1.6h-3.8l0-1.7h3.6v-6.3c0-0.1,0.1-0.3,0.3-0.4
			c0.2-0.2,0.4-0.3,0.6-0.3s0.3,0,0.4,0c0.1,0,0.2,0.1,0.4,0.3c0.3,1.1,0.4,2.7,0.4,4.8c0,0.5,0,1.1,0.1,1.6c0.5-0.1,1-0.1,1.6-0.1
			h1.3c0.3,0,0.6,0,0.8,0l-0.1,1.7l-3.5-0.1l0.1,8.4c-0.3,0.1-0.5,0.2-0.8,0.2C299,44.4,298.6,43.5,298.6,41.7z"/>
		<path id="XMLID_37_" d="M309.9,42.3c1.4,0,3.6-0.6,6.4-1.9c0.2,0,0.3,0.1,0.4,0.2c0.1,0.1,0.2,0.3,0.2,0.4c-0.6,1.1-1.9,2-3.7,2.6
			c-1.8,0.6-3.5,0.7-5.1,0.3c-1.8-0.5-2.9-1.5-3.3-3c0-0.3,0-0.7,0-1.2s0.1-1.2,0.4-2c0.3-0.8,0.7-1.7,1.4-2.4
			c0.6-0.8,1.4-1.4,2.3-1.8c0.9-0.4,1.8-0.7,2.8-0.7c0.9,0,2,0.3,3.2,1c0.5,0.3,1,0.7,1.3,1c0.3,0.4,0.5,0.8,0.5,1.2
			c0,0.1,0,0.2,0,0.3c0,1-0.5,1.6-1.4,1.9c-0.4,0.1-0.9,0.2-1.4,0.2l-3.5-0.1c-1.2,0-2.1,0.3-2.7,0.8c-0.4,0.3-0.6,0.7-0.8,1.2
			C307.2,41.6,308.3,42.3,309.9,42.3z M314.3,34.8c-0.4-0.3-0.7-0.4-1.1-0.6c-0.4-0.1-0.7-0.2-1-0.2c-0.3,0-0.7,0.1-1.3,0.3
			c-0.6,0.2-1.1,0.4-1.6,0.6c-1.1,0.5-1.7,1.1-1.7,1.6c1.3,0.1,2.3,0.2,2.9,0.2c1.8,0,3-0.2,3.6-0.5c0.4-0.2,0.6-0.4,0.6-0.6
			C314.8,35.4,314.6,35.1,314.3,34.8z"/>
	</g>
</g>
</svg>
