<svg version="1.1" xmlns="http://www.w3.org/2000/svg" xmlns:xlink="http://www.w3.org/1999/xlink" x="0px" y="0px"
	 viewBox="0 0 424.3 244.7" style="enable-background:new 0 0 424.3 244.7;" xml:space="preserve">
<style type="text/css">
	.st0{fill:#202020;}
	.st1{fill:#FFFFFF;}
</style>
<g id="Main_Block">
	<g id="XMLID_8_">
		<g id="XMLID_7_">
			<polygon id="XMLID_137_" class="st0" points="84.7,90.7 84.8,90.6 84.5,90.3 			"/>
			<path id="XMLID_136_" class="st0" d="M84,88.9c-0.1,0.1-0.1,0-0.2,0.1l0.9,1.1C85.2,89.5,83.7,89.2,84,88.9z"/>
			<path id="XMLID_135_" class="st0" d="M84.1,88.5c0.2-0.4-0.2-0.6-0.4-0.7C84.1,88,83.6,88.6,84.1,88.5z"/>
			<path id="XMLID_134_" class="st0" d="M74.5,59.1c0,0,0.1,0,0.1,0C74.6,59.1,74.6,59.1,74.5,59.1z"/>
			<path id="XMLID_133_" class="st0" d="M65.1,60.5L65,60.8c1.8-0.6,3.8,0,5.6-0.2l-0.1,0.1c2.1,0.1,4.1,0,6.1-0.1
				c2.1-0.1,4.1-0.3,6.2-0.4c0,0.6,0.1,1.1,0.1,1.7c0-0.1-0.1-0.1-0.2-0.1c0.1,0.2,0.3,0.5,0.3,0.8c-0.1,0.1-0.2-0.1-0.2-0.2
				c-0.6,1,0.3,2.9-0.1,3.6c0.1,0.3,0.3,0.4,0.5,0.2c0.1,3.7,0.2,7.6,0.7,11.4c-0.1,0.2-0.2,0.2-0.4,0.2c0.9,3.2,0.5,6.6,0.4,9.9
				c0.2,0.1,0.2-0.3,0.5,0c0.3-1.1-0.6-1.9-0.1-2.9l0.2,0.1c0.1-0.7-0.6-0.1-0.3-0.9c0.2-0.3,0.3,0.1,0.3-0.1
				c-0.1-1.5,0.1-3-0.4-4.4c0.5-0.3,0-1.6,0.5-2.1c-0.2-0.4-0.1-0.8-0.5-0.9c0.1-2.6,0.1-5.2,0-7.9c0-1.3-0.1-2.6-0.1-4l0-2l0-3.1
				c0-0.1-0.1-0.2-0.1-0.3c-1.1,0.2-2,0.3-2.9,0.3l-0.6,0l-0.5,0c-0.3,0-0.7-0.1-1-0.1c-1.4-0.1-2.8-0.3-4.2-0.2c0,0,0-0.1,0-0.1
				c-1,0.2-2.4,0.3-3.5,0.2l-1,0.4c-6.9-0.8-14-0.2-21-0.6c-8-0.2-15-0.9-22.7,0.3c0-0.1-0.1-0.1,0.1-0.2c-2.2,0.2-4.3-0.2-6.4,0
				l0-0.1C14.8,60,9.2,59.1,4.1,60c-1.3,0-2.6,0-4,0c0,1.4,0,2.8,0,4.2c0,1.3,0,2.7,0,4c0,2.7,0.1,5.4,0.2,8l-0.2,0
				c0.2,2.4,0.1,4.8-0.1,7.2C0,84.6-0.1,85.8-0.1,87l0,0.9l0,1c0,0.8,0,1.6,0,2.3c0.4,0,0.8,0,1.3,0c0.4,0,0.8,0,1.3,0.1l1.1,0
				c0.7,0,1.4,0,2-0.1c1.4-0.1,2.7-0.2,4.1-0.3c2.8-0.3,5.5-0.5,8.2-0.2c3.3,0.9,7.7-1.1,10.8-0.1c6.4,1.4,12.7,0.5,19.1-0.4
				c5.9,0.5,11.9-0.8,17.6,0.2c2.7-0.7,5.7,0.8,8.8,0.6L74,90.9c1.1,0.7,2.4-1,3.1,0.1L77,91c0.6,0.5,1.3-1.3,1.7-0.6l0.1-0.3
				c0.7-0.1,0.1,0.3,0.6,0.4c0.2,0,0.1-0.5,0.5-0.3c0.1,1.1,1.7-0.2,1.8,1c-0.4,0,0.6,0.5-0.3,0.7c0.2,0.1,1.4,0.1,1.3-0.5
				c0.1-0.5,0.6-1-0.2-1.4l-0.1,0.4c-0.2-0.4-0.2-0.2-0.3-0.5c-0.9-0.1-1.1-0.6-1.7-0.9c0,0,0,0,0,0c-0.5,0.5-1.1,0.2-1.4,0.1
				L78.8,89c-0.2-0.5-1.1,0.9-0.8,0.1c-1.9,0.2-4.1,0.2-6.2,0.2c-0.3,0.3-1.6,0-1.2,0.6c-0.5-0.7-2.1-0.8-2.7-0.8
				c0-0.1,0-0.1,0.1-0.1c-1.1-0.9-1.3,0.8-2.4-0.3c-0.2,0.7-1.9-0.2-2.5,0.6c-0.1-0.2-0.2-0.3-0.1-0.4c-1.9,0-4-0.3-5.6-0.3
				c-1.4,0.7-3.3-0.3-4.5,0.6C52,89,50.4,88.6,49,89l0.1-0.1c-1.5,0.1-3.5,0.1-4.5,0.7c-0.5-0.9-1.1-0.7-1.8-1
				c-1,0.4-3.1,0.3-4.7,0.6c-0.2-0.4-1.3,0.2-1.4-0.4c-4.4,1.1-9.9,0.7-14.6-0.1l0.1,0c-0.6,0.3-1.3,1-1.9,1.4
				c-0.1-0.1-0.1-0.1,0.1-0.1c-0.9,0.1-1.7-0.5-2.5-0.4c0-0.1,0-0.1,0.1-0.2c-0.8,0.3-1.7-0.5-2.6,0l-0.1-0.2l-0.6,0.2
				c0-0.2,0-0.5,0.4-0.4c-2.4-0.1-4.8,0-7.3,0.1c-1.2,0.1-2.5,0.1-3.7,0.2l-0.9,0.1l-0.5,0l-0.2,0l-0.1,0l-0.8,0.1l-0.1-0.9
				l-0.1-1.9c0-1.3,0-2.7,0-4L1.6,83l-0.3-1.5c0.1,0,0.1,0.1,0.2,0.1c0.3-1.9-0.2-3.8-0.1-5.6c0.1,0,0.3,0.3,0.4,0
				c-0.5-1.4,0.7-2.2-0.4-2.9c0.1-0.1,0.3-0.1,0.4,0c-0.2-1.9-0.3-3.8-0.3-5.7c0-1,0-1.9,0-2.9l0-1.4l0-0.7c0-0.2,0-0.3,0-0.4
				c-0.2-0.3-0.3-0.7-0.3-1.1C1.5,61,2,60.9,2.5,60.9c0.7,0,1.4,0,2.1,0c1.4,0,2.9,0,4.2-0.4l0,0.2c4.2-0.7,8.8,0,13.2-0.1
				c1.8,0.1,3.1-0.2,4.9-0.2l0,0.2c3.1-0.9,6.5,0.8,9.7-0.2l-0.2,0.3c0.5-0.5,2,0.2,1.8-0.7l0.6,0.3c2.2-1.2,4,0.5,6.7-0.2l-0.2,0.2
				c0.7-0.2,1.5-0.3,2.1-0.1c-0.1,0,0,0.1-0.2,0.1c2.2,0.8,4.7-0.1,7.1-0.1l-0.3,0.4c1.1-0.5,3.2,0,4.7-0.2l-0.1,0.2l0.8-0.3l0,0.4
				C61.3,60.9,63.1,60.6,65.1,60.5z"/>
			<path id="XMLID_132_" class="st0" d="M82.9,62.3C82.9,62.3,82.9,62.3,82.9,62.3C82.9,62.2,82.9,62.3,82.9,62.3z"/>
			<path id="XMLID_84_" class="st0" d="M80.2,89c0.1,0,0.2,0,0.2,0.1C80.4,89,80.2,89,80.2,89z"/>
		</g>
		<g id="XMLID_477_">
			<path id="XMLID_478_" d="M29.9,74.7h0.3c0.1,0,0.3,0,0.4,0s0.2,0.1,0.2,0.3c0.1,0.3-0.1,0.5-0.6,0.5c-0.1,0-0.2,0-0.3,0
				s-0.2,0-0.2,0s-0.1,0-0.1,0.1c0.1,0.2,0.2,0.5,0.3,0.8s0.2,0.6,0.3,0.8c0.3,0.7,0.5,1.2,0.8,1.5c-0.1,0.2-0.3,0.3-0.5,0.4
				s-0.3,0.2-0.3,0.2s0,0,0,0l-1.7-3.5l-3.2,0.8L25.2,77c-0.2,0.9-0.5,1.5-0.8,1.9c0,0.1-0.1,0.1-0.3,0c-0.3-0.1-0.4-0.2-0.4-0.2
				c0,0,0.1-0.2,0.2-0.7s0.3-0.9,0.5-1.3s0.3-0.9,0.5-1.4s0.4-1,0.5-1.4s0.3-0.8,0.4-1.2s0.2-0.6,0.3-0.8s0.1-0.3,0.1-0.4
				s0-0.2,0.1-0.3c0.1-0.2,0.3-0.3,0.6-0.3c0.3,0.2,0.6,0.4,0.8,0.7s0.3,0.6,0.5,1s0.3,0.7,0.4,1s0.3,0.7,0.5,1
				c0.1,0.1,0.2,0.2,0.3,0.2S29.8,74.7,29.9,74.7z M27,72.2c-0.1,0.5-0.2,1-0.4,1.5s-0.4,0.9-0.5,1.2s-0.2,0.5-0.3,0.8
				c0.5,0,1.2-0.2,2-0.5c0.2-0.1,0.4-0.2,0.6-0.2C27.8,73.3,27.4,72.4,27,72.2z"/>
			<path id="XMLID_481_" d="M36.2,77.8c0.3-0.1,0.6-0.2,0.9-0.4s0.6-0.2,0.9-0.2s0.4,0.1,0.4,0.3c0,0,0,0.1,0,0.2s-0.1,0.2-0.3,0.3
				s-0.4,0.2-0.7,0.3s-0.6,0.2-0.9,0.3s-0.6,0.2-1,0.2c-0.6,0.1-1.1,0.2-1.4,0.2s-0.6,0-0.9-0.1s-0.6-0.2-0.9-0.3
				c-0.6-0.3-0.9-0.8-0.9-1.5c0,0,0-0.1,0-0.3s0.1-0.3,0.2-0.6s0.3-0.5,0.5-0.8s0.5-0.5,0.8-0.7c0.7-0.5,1.3-0.8,2.1-0.9
				c0.3-0.1,0.5-0.1,0.6-0.1s0.3,0,0.4,0s0.2,0,0.3,0s0.2,0,0.3,0.1c0.2,0.1,0.3,0.3,0.3,0.6c0,0.2-0.1,0.4-0.4,0.6
				c-0.1,0-0.1,0.1-0.2,0.1c0-0.2-0.1-0.3-0.2-0.5s-0.2-0.2-0.4-0.2c-0.9,0.2-1.7,0.5-2.4,0.9c-0.8,0.4-1.1,0.9-1.1,1.4
				c0,0.1,0,0.1,0,0.2c0,0.5,0.2,0.9,0.6,1.1c0.3,0.2,0.7,0.2,1.1,0.2s0.9-0.1,1.2-0.2S35.9,77.9,36.2,77.8z"/>
			<path id="XMLID_483_" d="M43.8,77.8c0.3-0.1,0.6-0.2,0.9-0.4s0.6-0.2,0.9-0.2s0.4,0.1,0.4,0.3c0,0,0,0.1,0,0.2s-0.1,0.2-0.3,0.3
				s-0.4,0.2-0.7,0.3s-0.6,0.2-0.9,0.3s-0.6,0.2-1,0.2C42.5,78.9,42,79,41.7,79s-0.6,0-0.9-0.1s-0.6-0.2-0.9-0.3
				c-0.6-0.3-0.9-0.8-0.9-1.5c0,0,0-0.1,0-0.3s0.1-0.3,0.2-0.6s0.3-0.5,0.5-0.8s0.5-0.5,0.8-0.7c0.7-0.5,1.3-0.8,2.1-0.9
				c0.3-0.1,0.5-0.1,0.6-0.1s0.3,0,0.4,0s0.2,0,0.3,0s0.2,0,0.3,0.1c0.2,0.1,0.3,0.3,0.3,0.6c0,0.2-0.1,0.4-0.4,0.6
				c-0.1,0-0.1,0.1-0.2,0.1c0-0.2-0.1-0.3-0.2-0.5s-0.2-0.2-0.4-0.2c-0.9,0.2-1.7,0.5-2.4,0.9c-0.8,0.4-1.1,0.9-1.1,1.4
				c0,0.1,0,0.1,0,0.2c0,0.5,0.2,0.9,0.6,1.1c0.3,0.2,0.7,0.2,1.1,0.2s0.9-0.1,1.2-0.2S43.5,77.9,43.8,77.8z"/>
			<path id="XMLID_485_" d="M46.6,77.4c0-0.1,0-0.3,0-0.5s0-0.5-0.1-0.7s0-0.5,0-0.8s0-0.5,0.1-0.8c0.1-0.5,0.3-0.8,0.6-0.8
				c0.2,0.1,0.4,0.1,0.4,0.2s0.1,0.2,0.1,0.3s0,0.3-0.1,0.5c-0.3,0.7-0.4,1.3-0.4,1.8c0,0.2,0,0.4,0,0.6c0.1,0.5,0.6,0.8,1.3,0.8
				c0.4,0,0.7-0.1,1.1-0.2c0.7-0.2,1.1-0.5,1.3-0.9c0.1-0.4,0.1-0.7,0.1-0.9s0-0.5,0-0.7s0-0.4-0.1-0.7s0-0.5-0.1-0.8
				c0.1,0,0.2-0.1,0.3-0.1s0.2,0.1,0.3,0.2s0.2,0.3,0.3,0.6s0.1,0.6,0.1,1s0,0.8,0,1.2s0,0.8,0,1.2s0,0.7,0,1C52,79,51.9,79,51.8,79
				c-0.3,0-0.5-0.3-0.7-0.9c-0.1,0.1-0.3,0.2-0.5,0.3c-0.5,0.3-1.1,0.5-1.8,0.6c-0.1,0-0.3,0-0.4,0s-0.4,0-0.6-0.1s-0.5-0.2-0.7-0.4
				S46.7,77.9,46.6,77.4z"/>
			<path id="XMLID_487_" d="M55.2,78.2c0.7,0,1.7-0.3,3.1-0.9c0.1,0,0.2,0,0.2,0.1s0.1,0.1,0.1,0.2c-0.3,0.5-0.9,0.9-1.8,1.2
				s-1.7,0.3-2.5,0.2c-0.9-0.2-1.4-0.7-1.6-1.5c0-0.1,0-0.3,0-0.6s0.1-0.6,0.2-1s0.3-0.8,0.7-1.2s0.7-0.7,1.1-0.9s0.9-0.3,1.3-0.3
				c0.5,0,1,0.2,1.5,0.5c0.3,0.1,0.5,0.3,0.6,0.5s0.2,0.4,0.2,0.6c0,0.1,0,0.1,0,0.2c0,0.5-0.2,0.8-0.7,0.9
				c-0.2,0.1-0.4,0.1-0.7,0.1l-1.7-0.1c-0.6,0-1,0.1-1.3,0.4c-0.2,0.1-0.3,0.3-0.4,0.6C53.8,77.8,54.3,78.2,55.2,78.2z M57.2,74.6
				c-0.2-0.1-0.4-0.2-0.5-0.3s-0.3-0.1-0.5-0.1s-0.3,0-0.6,0.1s-0.5,0.2-0.8,0.3c-0.5,0.3-0.8,0.5-0.8,0.8c0.6,0.1,1.1,0.1,1.4,0.1
				c0.9,0,1.5-0.1,1.8-0.2c0.2-0.1,0.3-0.2,0.3-0.3C57.5,74.8,57.4,74.7,57.2,74.6z"/>
			<path id="XMLID_490_" d="M59.2,71.9c0-0.3,0.2-0.4,0.5-0.4c0.2,0,0.4,0,0.5,0.1c0,0.1,0,0.2,0,0.3s0,0.2-0.1,0.2
				s-0.2,0.1-0.3,0.1s-0.3,0-0.4-0.1S59.3,72,59.2,71.9z M60.3,73.5c0.1,1.5,0.2,3.2,0.3,5.1c0,0.2-0.2,0.4-0.6,0.4
				c-0.1,0-0.2,0-0.3-0.1s-0.1-0.1-0.2-0.1v-5.2H60.3z"/>
			<path id="XMLID_493_" d="M61.3,74.5c0-0.4,0-0.8,0-1.1s0-0.6,0-0.7S61.1,72,61,71.4c0.1-0.1,0.1-0.2,0.2-0.3s0.2-0.1,0.3-0.1
				c0.3,0,0.5,1.2,0.6,3.5c0.1,1.3,0.1,2.7,0.1,4c0,0.4-0.3,0.5-0.8,0.5l-0.1,0c0-0.4,0-0.9,0-1.6s0-1.2-0.1-1.7
				S61.3,74.9,61.3,74.5z"/>
		</g>
	</g>
	<g id="XMLID_13_">
		<g id="XMLID_9_">
			<polygon id="XMLID_131_" class="st0" points="184.2,90.7 184.3,90.6 184,90.3 			"/>
			<path id="XMLID_130_" class="st0" d="M183.5,88.9c-0.1,0.1-0.1,0-0.2,0.1l0.9,1.1C184.7,89.5,183.2,89.2,183.5,88.9z"/>
			<path id="XMLID_129_" class="st0" d="M183.6,88.5c0.2-0.4-0.2-0.6-0.4-0.7C183.6,88,183.1,88.6,183.6,88.5z"/>
			<path id="XMLID_128_" class="st0" d="M174.1,59.1c0,0,0.1,0,0.1,0C174.1,59.1,174.1,59.1,174.1,59.1z"/>
			<path id="XMLID_127_" class="st0" d="M164.6,60.5l-0.1,0.3c1.8-0.6,3.8,0,5.6-0.2l-0.1,0.1c2.1,0.1,4.1,0,6.1-0.1
				c2.1-0.1,4.1-0.3,6.2-0.4c0,0.6,0.1,1.1,0.1,1.7c0-0.1-0.1-0.1-0.2-0.1c0.1,0.2,0.3,0.5,0.3,0.8c-0.1,0.1-0.2-0.1-0.2-0.2
				c-0.6,1,0.3,2.9-0.1,3.6c0.1,0.3,0.3,0.4,0.5,0.2c0.1,3.7,0.2,7.6,0.7,11.4c-0.1,0.2-0.2,0.2-0.4,0.2c0.9,3.2,0.5,6.6,0.4,9.9
				c0.2,0.1,0.2-0.3,0.5,0c0.3-1.1-0.6-1.9-0.1-2.9l0.2,0.1c0.1-0.7-0.6-0.1-0.3-0.9c0.2-0.3,0.3,0.1,0.3-0.1
				c-0.1-1.5,0.1-3-0.4-4.4c0.5-0.3,0-1.6,0.5-2.1c-0.2-0.4-0.1-0.8-0.5-0.9c0.1-2.6,0.1-5.2,0-7.9c0-1.3-0.1-2.6-0.1-4l0-2l0-3.1
				c0-0.1-0.1-0.2-0.1-0.3c-1.1,0.2-2,0.3-2.9,0.3l-0.6,0l-0.5,0c-0.3,0-0.7-0.1-1-0.1c-1.4-0.1-2.8-0.3-4.2-0.2c0,0,0-0.1,0-0.1
				c-1,0.2-2.4,0.3-3.5,0.2l-1,0.4c-6.9-0.8-14-0.2-21-0.6c-8-0.2-15-0.9-22.7,0.3c0-0.1-0.1-0.1,0.1-0.2c-2.2,0.2-4.3-0.2-6.4,0
				l0-0.1c-5.2,0.8-10.9-0.1-16,0.7c-1.3,0-2.6,0-4,0c0,1.4,0,2.8,0,4.2c0,1.3,0,2.7,0,4c0,2.7,0.1,5.4,0.2,8l-0.2,0
				c0.2,2.4,0.1,4.8-0.1,7.2c-0.1,1.2-0.1,2.4-0.2,3.6l0,0.9l0,1c0,0.8,0,1.6,0,2.3c0.4,0,0.8,0,1.3,0c0.4,0,0.8,0,1.3,0.1l1.1,0
				c0.7,0,1.4,0,2-0.1c1.4-0.1,2.7-0.2,4.1-0.3c2.8-0.3,5.5-0.5,8.2-0.2c3.3,0.9,7.7-1.1,10.8-0.1c6.4,1.4,12.7,0.5,19.1-0.4
				c5.9,0.5,11.9-0.8,17.6,0.2c2.7-0.7,5.7,0.8,8.8,0.6l-0.1-0.2c1.1,0.7,2.4-1,3.1,0.1l-0.1,0c0.6,0.5,1.3-1.3,1.7-0.6l0.1-0.3
				c0.7-0.1,0.1,0.3,0.6,0.4c0.2,0,0.1-0.5,0.5-0.3c0.1,1.1,1.7-0.2,1.8,1c-0.4,0,0.6,0.5-0.3,0.7c0.2,0.1,1.4,0.1,1.3-0.5
				c0.1-0.5,0.6-1-0.2-1.4l-0.1,0.4c-0.2-0.4-0.2-0.2-0.3-0.5c-0.9-0.1-1.1-0.6-1.7-0.9c0,0,0,0,0,0c-0.5,0.5-1.1,0.2-1.4,0.1
				l-0.1-0.2c-0.2-0.5-1.1,0.9-0.8,0.1c-1.9,0.2-4.1,0.2-6.2,0.2c-0.3,0.3-1.6,0-1.2,0.6c-0.5-0.7-2.1-0.8-2.7-0.8
				c0-0.1,0-0.1,0.1-0.1c-1.1-0.9-1.3,0.8-2.4-0.3c-0.2,0.7-1.9-0.2-2.5,0.6c-0.1-0.2-0.2-0.3-0.1-0.4c-1.9,0-4-0.3-5.6-0.3
				c-1.4,0.7-3.3-0.3-4.5,0.6c-1-0.2-2.6-0.6-3.9-0.2l0.1-0.1c-1.5,0.1-3.5,0.1-4.5,0.7c-0.5-0.9-1.1-0.7-1.8-1
				c-1,0.4-3.1,0.3-4.7,0.6c-0.2-0.4-1.3,0.2-1.4-0.4c-4.4,1.1-9.9,0.7-14.6-0.1l0.1,0c-0.6,0.3-1.3,1-1.9,1.4
				c-0.1-0.1-0.1-0.1,0.1-0.1c-0.9,0.1-1.7-0.5-2.5-0.4c0-0.1,0-0.1,0.1-0.2c-0.8,0.3-1.7-0.5-2.6,0l-0.1-0.2l-0.6,0.2
				c0-0.2,0-0.5,0.4-0.4c-2.4-0.1-4.8,0-7.3,0.1c-1.2,0.1-2.5,0.1-3.7,0.2l-0.9,0.1l-0.5,0l-0.2,0l-0.1,0l-0.8,0.1l-0.1-0.9
				l-0.1-1.9c0-1.3,0-2.7,0-4l0.2,0.3l-0.3-1.5c0.1,0,0.1,0.1,0.2,0.1c0.3-1.9-0.2-3.8-0.1-5.6c0.1,0,0.3,0.3,0.4,0
				c-0.5-1.4,0.7-2.2-0.4-2.9c0.1-0.1,0.3-0.1,0.4,0c-0.2-1.9-0.3-3.8-0.3-5.7c0-1,0-1.9,0-2.9l0-1.4l0-0.7c0-0.2,0-0.3,0-0.4
				c-0.2-0.3-0.3-0.7-0.3-1.1c0.3-0.1,0.8-0.1,1.3-0.2c0.7,0,1.4,0,2.1,0c1.4,0,2.9,0,4.2-0.4l0,0.2c4.2-0.7,8.8,0,13.2-0.1
				c1.8,0.1,3.1-0.2,4.9-0.2l0,0.2c3.1-0.9,6.5,0.8,9.7-0.2l-0.2,0.3c0.5-0.5,2,0.2,1.8-0.7l0.6,0.3c2.2-1.2,4,0.5,6.7-0.2l-0.2,0.2
				c0.7-0.2,1.5-0.3,2.1-0.1c-0.1,0,0,0.1-0.2,0.1c2.2,0.8,4.7-0.1,7.1-0.1l-0.3,0.4c1.1-0.5,3.2,0,4.7-0.2l-0.1,0.2l0.8-0.3l0,0.4
				C160.8,60.9,162.7,60.6,164.6,60.5z"/>
			<path id="XMLID_126_" class="st0" d="M182.4,62.3C182.4,62.3,182.4,62.3,182.4,62.3C182.4,62.2,182.4,62.3,182.4,62.3z"/>
			<path id="XMLID_83_" class="st0" d="M179.7,89c0.1,0,0.2,0,0.2,0.1C179.9,89,179.7,89,179.7,89z"/>
		</g>
		<g id="XMLID_455_">
			<path id="XMLID_456_" d="M122.3,74.9c0,2.4-0.1,3.8-0.3,4.2l-0.9-0.1c-0.4-0.7-1.2-1.8-2.2-3.1c-0.4-0.5-0.8-1.1-1.2-1.6
				s-0.8-1-1.1-1.6c-0.2,0.7-0.2,2.1-0.2,4.2c0,0.8,0,1.5,0,2c-0.1,0.1-0.3,0.2-0.5,0.2s-0.3,0-0.4-0.1s-0.1-0.1-0.1-0.2
				s0-0.2,0-0.4s0-0.5,0.1-0.9s0.1-0.9,0.1-1.3c0.1-1.2,0.1-2.2,0.1-3.1s0-1.6,0-2.2c0.2-0.2,0.3-0.3,0.4-0.3s0.2-0.1,0.3,0
				s0.3,0.2,0.5,0.5s0.4,0.6,0.8,1.1c1.1,1.6,2.3,3.2,3.4,4.6l0.2-5.8c0.1-0.2,0.2-0.3,0.3-0.3s0.2-0.1,0.3-0.1
				c0.3,0,0.4,0.3,0.4,0.8l0,0.4L122.3,74.9z"/>
			<path id="XMLID_458_" d="M123.3,76.8c0-0.9,0.4-1.7,1.2-2.2c0.6-0.4,1.4-0.7,2.3-0.8c0,0,0.2,0,0.3,0s0.4,0.1,0.7,0.2
				c0.6,0.2,1.1,0.6,1.3,1.2c0.1,0.2,0.1,0.4,0.1,0.6s0,0.3,0,0.3c0,1-0.4,1.7-1.1,2.3c-0.7,0.5-1.5,0.8-2.6,0.8
				c-0.7,0-1.3-0.2-1.7-0.5S123.3,77.6,123.3,76.8z M124.1,77.1c0,0.5,0.1,0.8,0.4,1c0.2,0.1,0.5,0.2,1,0.2s0.9,0,1.2-0.1
				s0.7-0.2,0.9-0.4c0.6-0.4,0.9-1,0.9-1.7c0-0.5-0.1-0.9-0.4-1.1c-0.3-0.3-0.6-0.5-1.1-0.5c-0.3,0.1-0.6,0.1-0.9,0.2
				s-0.6,0.2-0.9,0.4C124.7,75.3,124.3,76,124.1,77.1z"/>
			<path id="XMLID_461_" d="M129.7,77.4c0-0.1,0-0.3,0-0.5s0-0.5-0.1-0.7s0-0.5,0-0.8s0-0.5,0.1-0.8c0.1-0.5,0.3-0.8,0.6-0.8
				c0.2,0.1,0.4,0.1,0.4,0.2s0.1,0.2,0.1,0.3s0,0.3-0.1,0.5c-0.3,0.7-0.4,1.3-0.4,1.8c0,0.2,0,0.4,0,0.6c0.1,0.5,0.6,0.8,1.3,0.8
				c0.4,0,0.7-0.1,1.1-0.2c0.7-0.2,1.1-0.5,1.3-0.9c0.1-0.4,0.1-0.7,0.1-0.9s0-0.5,0-0.7s0-0.4-0.1-0.7s0-0.5-0.1-0.8
				c0.1,0,0.2-0.1,0.3-0.1s0.2,0.1,0.3,0.2s0.2,0.3,0.3,0.6s0.1,0.6,0.1,1s0,0.8,0,1.2s0,0.8,0,1.2s0,0.7,0,1
				c-0.1,0.1-0.2,0.1-0.3,0.1c-0.3,0-0.5-0.3-0.7-0.9c-0.1,0.1-0.3,0.2-0.5,0.3c-0.5,0.3-1.1,0.5-1.8,0.6c-0.1,0-0.3,0-0.4,0
				s-0.4,0-0.6-0.1s-0.5-0.2-0.7-0.4S129.8,77.9,129.7,77.4z"/>
			<path id="XMLID_463_" d="M136,74.5c0,0,0-0.1,0-0.1s0-0.1,0.1-0.2s0.1-0.2,0.2-0.2s0.2-0.1,0.2-0.1s0.2,0.1,0.2,0.2l2,3.7
				c0.1-0.1,0.2-0.3,0.3-0.5s0.3-0.5,0.5-0.9s0.4-0.7,0.6-1s0.4-0.7,0.5-1c0.4-0.7,0.6-1,0.7-1c0.2,0,0.3,0.1,0.4,0.2
				s0.1,0.2,0.1,0.3s0,0.1,0,0.1c-0.4,1-0.8,1.8-1.2,2.6s-0.6,1.3-0.7,1.6s-0.2,0.4-0.3,0.6c-0.2,0.2-0.3,0.4-0.5,0.4
				s-0.3-0.1-0.5-0.4s-0.4-0.6-0.7-1C137.2,76.9,136.6,75.8,136,74.5z"/>
			<path id="XMLID_465_" d="M144.5,78.2c0.7,0,1.7-0.3,3.1-0.9c0.1,0,0.2,0,0.2,0.1s0.1,0.1,0.1,0.2c-0.3,0.5-0.9,0.9-1.8,1.2
				s-1.7,0.3-2.5,0.2c-0.9-0.2-1.4-0.7-1.6-1.5c0-0.1,0-0.3,0-0.6s0.1-0.6,0.2-1s0.3-0.8,0.7-1.2s0.7-0.7,1.1-0.9s0.9-0.3,1.3-0.3
				c0.5,0,1,0.2,1.5,0.5c0.3,0.1,0.5,0.3,0.6,0.5s0.2,0.4,0.2,0.6c0,0.1,0,0.1,0,0.2c0,0.5-0.2,0.8-0.7,0.9
				c-0.2,0.1-0.4,0.1-0.7,0.1l-1.7-0.1c-0.6,0-1,0.1-1.3,0.4c-0.2,0.1-0.3,0.3-0.4,0.6C143.2,77.8,143.7,78.2,144.5,78.2z
				 M146.6,74.6c-0.2-0.1-0.4-0.2-0.5-0.3s-0.3-0.1-0.5-0.1s-0.3,0-0.6,0.1s-0.5,0.2-0.8,0.3c-0.5,0.3-0.8,0.5-0.8,0.8
				c0.6,0.1,1.1,0.1,1.4,0.1c0.9,0,1.5-0.1,1.8-0.2c0.2-0.1,0.3-0.2,0.3-0.3C146.9,74.8,146.8,74.7,146.6,74.6z"/>
			<path id="XMLID_468_" d="M148.8,74.5c0-0.4,0-0.8,0-1.1s0-0.6,0-0.7s-0.1-0.6-0.2-1.2c0.1-0.1,0.1-0.2,0.2-0.3s0.2-0.1,0.3-0.1
				c0.3,0,0.5,1.2,0.6,3.5c0.1,1.3,0.1,2.7,0.1,4c0,0.4-0.3,0.5-0.8,0.5l-0.1,0c0-0.4,0-0.9,0-1.6s0-1.2-0.1-1.7
				S148.8,74.9,148.8,74.5z"/>
			<path id="XMLID_470_" d="M150.7,74.5c0-0.4,0-0.8,0-1.1s0-0.6,0-0.7s-0.1-0.6-0.2-1.2c0.1-0.1,0.1-0.2,0.2-0.3s0.2-0.1,0.3-0.1
				c0.3,0,0.5,1.2,0.6,3.5c0.1,1.3,0.1,2.7,0.1,4c0,0.4-0.3,0.5-0.8,0.5l-0.1,0c0-0.4,0-0.9,0-1.6s0-1.2-0.1-1.7
				S150.7,74.9,150.7,74.5z"/>
			<path id="XMLID_472_" d="M154.8,78.2c0.7,0,1.7-0.3,3.1-0.9c0.1,0,0.2,0,0.2,0.1s0.1,0.1,0.1,0.2c-0.3,0.5-0.9,0.9-1.8,1.2
				s-1.7,0.3-2.5,0.2c-0.9-0.2-1.4-0.7-1.6-1.5c0-0.1,0-0.3,0-0.6s0.1-0.6,0.2-1s0.3-0.8,0.7-1.2s0.7-0.7,1.1-0.9s0.9-0.3,1.3-0.3
				c0.5,0,1,0.2,1.5,0.5c0.3,0.1,0.5,0.3,0.6,0.5s0.2,0.4,0.2,0.6c0,0.1,0,0.1,0,0.2c0,0.5-0.2,0.8-0.7,0.9
				c-0.2,0.1-0.4,0.1-0.7,0.1l-1.7-0.1c-0.6,0-1,0.1-1.3,0.4c-0.2,0.1-0.3,0.3-0.4,0.6C153.5,77.8,154,78.2,154.8,78.2z M156.9,74.6
				c-0.2-0.1-0.4-0.2-0.5-0.3s-0.3-0.1-0.5-0.1s-0.3,0-0.6,0.1s-0.5,0.2-0.8,0.3c-0.5,0.3-0.8,0.5-0.8,0.8c0.6,0.1,1.1,0.1,1.4,0.1
				c0.9,0,1.5-0.1,1.8-0.2c0.2-0.1,0.3-0.2,0.3-0.3C157.1,74.8,157,74.7,156.9,74.6z"/>
			<path id="XMLID_475_" d="M162.9,76c0.9,0,1.3,0.2,1.3,0.7c0,0.3-0.2,0.7-0.7,1.1c-0.7,0.6-1.7,1.2-2.9,1.6
				c-0.1,0-0.1-0.1-0.2-0.2s-0.1-0.2-0.2-0.3s-0.1-0.1-0.1-0.1c0.9-0.3,1.6-0.7,2.2-1.1c0.4-0.3,0.6-0.5,0.6-0.7s-0.2-0.3-0.7-0.3
				s-1.1,0.1-2,0.3c-0.4,0-0.8-0.2-1.1-0.4c-0.3-0.2-0.4-0.5-0.4-0.7s0.1-0.5,0.2-0.7s0.3-0.4,0.6-0.6s0.5-0.3,0.8-0.5
				c0.8-0.4,1.6-0.6,2.4-0.6c0.2,0,0.5,0,0.7,0.1c0.2,0,0.3,0.1,0.3,0.2s0,0.4,0,0.8c-0.5-0.2-1-0.3-1.6-0.3c-0.7,0-1.3,0.1-1.8,0.4
				c-0.5,0.3-0.7,0.6-0.8,1.1c0,0.2,0.2,0.3,0.5,0.3l0.9-0.1C161.8,76.1,162.4,76,162.9,76z"/>
		</g>
	</g>
	<g id="XMLID_14_">
		<g id="XMLID_10_">
			<polygon id="XMLID_125_" class="st0" points="283.7,90.7 283.8,90.6 283.5,90.3 			"/>
			<path id="XMLID_124_" class="st0" d="M283,88.9c-0.1,0.1-0.1,0-0.2,0.1l0.9,1.1C284.2,89.5,282.7,89.2,283,88.9z"/>
			<path id="XMLID_123_" class="st0" d="M283.1,88.5c0.2-0.4-0.2-0.6-0.4-0.7C283.1,88,282.7,88.6,283.1,88.5z"/>
			<path id="XMLID_121_" class="st0" d="M273.6,59.1c0,0,0.1,0,0.1,0C273.6,59.1,273.6,59.1,273.6,59.1z"/>
			<path id="XMLID_113_" class="st0" d="M264.1,60.5l-0.1,0.3c1.8-0.6,3.8,0,5.6-0.2l-0.1,0.1c2.1,0.1,4.1,0,6.1-0.1
				c2.1-0.1,4.1-0.3,6.2-0.4c0,0.6,0.1,1.1,0.1,1.7c0-0.1-0.1-0.1-0.2-0.1c0.1,0.2,0.3,0.5,0.3,0.8c-0.1,0.1-0.2-0.1-0.2-0.2
				c-0.6,1,0.3,2.9-0.1,3.6c0.1,0.3,0.3,0.4,0.5,0.2c0.1,3.7,0.2,7.6,0.7,11.4c-0.1,0.2-0.2,0.2-0.4,0.2c0.9,3.2,0.5,6.6,0.4,9.9
				c0.2,0.1,0.2-0.3,0.5,0c0.3-1.1-0.6-1.9-0.1-2.9l0.2,0.1c0.1-0.7-0.6-0.1-0.3-0.9c0.2-0.3,0.3,0.1,0.3-0.1
				c-0.1-1.5,0.1-3-0.4-4.4c0.5-0.3,0-1.6,0.5-2.1c-0.2-0.4-0.1-0.8-0.5-0.9c0.1-2.6,0.1-5.2,0-7.9c0-1.3-0.1-2.6-0.1-4l0-2l0-3.1
				c0-0.1-0.1-0.2-0.1-0.3c-1.1,0.2-2,0.3-2.9,0.3l-0.6,0l-0.5,0c-0.3,0-0.7-0.1-1-0.1c-1.4-0.1-2.8-0.3-4.2-0.2c0,0,0-0.1,0-0.1
				c-1,0.2-2.4,0.3-3.5,0.2l-1,0.4c-6.9-0.8-14-0.2-21-0.6c-8-0.2-15-0.9-22.7,0.3c0-0.1-0.1-0.1,0.1-0.2c-2.2,0.2-4.3-0.2-6.4,0
				l0-0.1c-5.2,0.8-10.9-0.1-16,0.7c-1.3,0-2.6,0-4,0c0,1.4,0,2.8,0,4.2c0,1.3,0,2.7,0,4c0,2.7,0.1,5.4,0.2,8l-0.2,0
				c0.2,2.4,0.1,4.8-0.1,7.2c-0.1,1.2-0.1,2.4-0.2,3.6l0,0.9l0,1c0,0.8,0,1.6,0,2.3c0.4,0,0.8,0,1.3,0c0.4,0,0.8,0,1.3,0.1l1.1,0
				c0.7,0,1.4,0,2-0.1c1.4-0.1,2.7-0.2,4.1-0.3c2.8-0.3,5.5-0.5,8.2-0.2c3.3,0.9,7.7-1.1,10.8-0.1c6.4,1.4,12.7,0.5,19.1-0.4
				c5.9,0.5,11.9-0.8,17.6,0.2c2.7-0.7,5.7,0.8,8.8,0.6l-0.1-0.2c1.1,0.7,2.4-1,3.1,0.1l-0.1,0c0.6,0.5,1.3-1.3,1.7-0.6l0.1-0.3
				c0.7-0.1,0.1,0.3,0.6,0.4c0.2,0,0.1-0.5,0.5-0.3c0.1,1.1,1.7-0.2,1.8,1c-0.4,0,0.6,0.5-0.3,0.7c0.2,0.1,1.4,0.1,1.3-0.5
				c0.1-0.5,0.6-1-0.2-1.4l-0.1,0.4c-0.2-0.4-0.2-0.2-0.3-0.5c-0.9-0.1-1.1-0.6-1.7-0.9c0,0,0,0,0,0c-0.5,0.5-1.1,0.2-1.4,0.1
				l-0.1-0.2c-0.2-0.5-1.1,0.9-0.8,0.1c-1.9,0.2-4.1,0.2-6.2,0.2c-0.3,0.3-1.6,0-1.2,0.6c-0.5-0.7-2.1-0.8-2.7-0.8
				c0-0.1,0-0.1,0.1-0.1c-1.1-0.9-1.3,0.8-2.4-0.3c-0.2,0.7-1.9-0.2-2.5,0.6c-0.1-0.2-0.2-0.3-0.1-0.4c-1.9,0-4-0.3-5.6-0.3
				c-1.4,0.7-3.3-0.3-4.5,0.6c-1-0.2-2.6-0.6-3.9-0.2l0.1-0.1c-1.5,0.1-3.5,0.1-4.5,0.7c-0.5-0.9-1.1-0.7-1.8-1
				c-1,0.4-3.1,0.3-4.7,0.6c-0.2-0.4-1.3,0.2-1.4-0.4c-4.4,1.1-9.9,0.7-14.6-0.1l0.1,0c-0.6,0.3-1.3,1-1.9,1.4
				c-0.1-0.1-0.1-0.1,0.1-0.1c-0.9,0.1-1.7-0.5-2.5-0.4c0-0.1,0-0.1,0.1-0.2c-0.8,0.3-1.7-0.5-2.6,0l-0.1-0.2l-0.6,0.2
				c0-0.2,0-0.5,0.4-0.4c-2.4-0.1-4.8,0-7.3,0.1c-1.2,0.1-2.5,0.1-3.7,0.2l-0.9,0.1l-0.5,0l-0.2,0l-0.1,0l-0.8,0.1l-0.1-0.9
				l-0.1-1.9c0-1.3,0-2.7,0-4l0.2,0.3l-0.3-1.5c0.1,0,0.1,0.1,0.2,0.1c0.3-1.9-0.2-3.8-0.1-5.6c0.1,0,0.3,0.3,0.4,0
				c-0.5-1.4,0.7-2.2-0.4-2.9c0.1-0.1,0.3-0.1,0.4,0c-0.2-1.9-0.3-3.8-0.3-5.7c0-1,0-1.9,0-2.9l0-1.4l0-0.7c0-0.2,0-0.3,0-0.4
				c-0.2-0.3-0.3-0.7-0.3-1.1c0.3-0.1,0.8-0.1,1.3-0.2c0.7,0,1.4,0,2.1,0c1.4,0,2.9,0,4.2-0.4l0,0.2c4.2-0.7,8.8,0,13.2-0.1
				c1.8,0.1,3.1-0.2,4.9-0.2l0,0.2c3.1-0.9,6.5,0.8,9.7-0.2l-0.2,0.3c0.5-0.5,2,0.2,1.8-0.7l0.6,0.3c2.2-1.2,4,0.5,6.7-0.2l-0.2,0.2
				c0.7-0.2,1.5-0.3,2.1-0.1c-0.1,0,0,0.1-0.2,0.1c2.2,0.8,4.7-0.1,7.1-0.1l-0.3,0.4c1.1-0.5,3.2,0,4.7-0.2l-0.1,0.2l0.8-0.3l0,0.4
				C260.3,60.9,262.2,60.6,264.1,60.5z"/>
			<path id="XMLID_104_" class="st0" d="M281.9,62.3C281.9,62.3,281.9,62.3,281.9,62.3C281.9,62.2,281.9,62.3,281.9,62.3z"/>
			<path id="XMLID_82_" class="st0" d="M279.2,89c0.1,0,0.2,0,0.2,0.1C279.4,89,279.3,89,279.2,89z"/>
		</g>
		<g id="XMLID_434_">
			<path id="XMLID_435_" d="M224.3,74.8h0.3c0.1,0,0.3,0,0.4,0s0.2,0.1,0.2,0.3c0.1,0.3-0.1,0.5-0.6,0.5c-0.1,0-0.2,0-0.3,0
				s-0.2,0-0.2,0s-0.1,0-0.1,0.1c0.1,0.2,0.2,0.5,0.3,0.8s0.2,0.6,0.3,0.8c0.3,0.7,0.5,1.2,0.8,1.5c-0.1,0.2-0.3,0.3-0.5,0.4
				s-0.3,0.2-0.3,0.2s0,0,0,0l-1.7-3.5l-3.2,0.8l-0.1,0.5c-0.2,0.9-0.5,1.5-0.8,1.9c0,0.1-0.1,0.1-0.3,0c-0.3-0.1-0.4-0.2-0.4-0.2
				c0,0,0.1-0.2,0.2-0.7s0.3-0.9,0.5-1.3s0.3-0.9,0.5-1.4s0.4-1,0.5-1.4s0.3-0.8,0.4-1.2s0.2-0.6,0.3-0.8s0.1-0.3,0.1-0.4
				s0-0.2,0.1-0.3c0.1-0.2,0.3-0.3,0.6-0.3c0.3,0.2,0.6,0.4,0.8,0.7s0.3,0.6,0.5,1s0.3,0.7,0.4,1s0.3,0.7,0.5,1
				c0.1,0.1,0.2,0.2,0.3,0.2S224.2,74.8,224.3,74.8z M221.4,72.2c-0.1,0.5-0.2,1-0.4,1.5s-0.4,0.9-0.5,1.2s-0.2,0.5-0.3,0.8
				c0.5,0,1.2-0.2,2-0.5c0.2-0.1,0.4-0.2,0.6-0.2C222.2,73.4,221.8,72.5,221.4,72.2z M220.9,69.2c0-0.2,0.1-0.3,0.2-0.3
				c0.1,0,0.2,0.1,0.3,0.2l0.8,0.8l-0.2,0.5c-0.5-0.4-0.8-0.6-0.9-0.8c0-0.1-0.1-0.1-0.1-0.2S220.9,69.2,220.9,69.2z"/>
			<path id="XMLID_439_" d="M231.9,74.3c1.1-0.4,2-0.6,2.8-0.6c1,0,1.6,0.3,2,0.8c0.1,0.2,0.2,0.5,0.2,0.8c0,0.4-0.1,0.8-0.4,1.2
				s-0.6,0.8-1,1.1c-0.9,0.8-2.1,1.3-3.4,1.4c0,0.1,0,0.2,0,0.4s0,0.4,0,0.6s0,0.5,0,0.8s0,0.5,0,0.8c0,0.6,0,0.9,0.1,1s0,0.2,0,0.2
				c0,0.2-0.1,0.3-0.2,0.4s-0.3,0.1-0.5,0.1c0,0-0.1,0-0.1,0l-0.2-9.4c0.1-0.1,0.2-0.1,0.3-0.1s0.2,0,0.3,0.1S231.8,74.2,231.9,74.3
				z M235.3,74.7c-0.3-0.1-0.5-0.2-0.8-0.2s-0.6,0-0.9,0.1c-0.7,0.1-1.1,0.4-1.5,0.8c-0.1,0.2-0.2,0.5-0.2,0.8c0,0,0,0.1,0,0.1v2
				c1.6-0.4,2.8-0.9,3.4-1.5c0.4-0.4,0.6-0.7,0.6-1.1C235.9,75.2,235.7,74.9,235.3,74.7z"/>
			<path id="XMLID_442_" d="M243.2,74.7c-0.3-0.2-0.8-0.4-1.3-0.4c-0.5,0-0.9,0.1-1.3,0.3c-0.8,0.3-1.3,0.8-1.6,1.3
				c-0.1,0.2-0.2,0.5-0.2,0.8c0,0,0,0.2,0,0.4s0,0.5,0.1,0.9s0.1,0.7,0.1,1.1c-0.2,0-0.3,0-0.4,0.1s-0.2,0-0.3,0s-0.1,0-0.2-0.1
				s-0.1-0.2-0.2-0.4c0,0,0-0.2,0-0.4s-0.1-0.5-0.1-0.8s-0.1-0.7-0.1-1s-0.1-0.7-0.1-1.1c-0.1-0.8-0.2-1.4-0.2-1.7
				c0-0.2,0.1-0.3,0.4-0.3c0.2,0,0.3,0.1,0.4,0.2s0.2,0.3,0.2,0.5s0.1,0.3,0.1,0.5s0,0.3,0.1,0.4c1-0.9,2.3-1.4,3.8-1.4
				c0.2,0,0.4,0,0.5,0c0,0,0.1,0,0.2,0s0.1,0,0.2,0.1c0.1,0.1,0.1,0.2,0.1,0.4C243.5,74.5,243.4,74.7,243.2,74.7z"/>
			<path id="XMLID_444_" d="M244.3,76.8c0-0.9,0.4-1.7,1.2-2.2c0.6-0.4,1.4-0.7,2.3-0.8c0,0,0.2,0,0.3,0s0.4,0.1,0.7,0.2
				c0.6,0.2,1.1,0.6,1.3,1.2c0.1,0.2,0.1,0.4,0.1,0.6s0,0.3,0,0.3c0,1-0.4,1.7-1.1,2.3c-0.7,0.5-1.5,0.8-2.6,0.8
				c-0.7,0-1.3-0.2-1.7-0.5S244.3,77.6,244.3,76.8z M245.1,77.1c0,0.5,0.1,0.8,0.4,1c0.2,0.1,0.5,0.2,1,0.2s0.9,0,1.2-0.1
				s0.7-0.2,0.9-0.4c0.6-0.4,0.9-1,0.9-1.7c0-0.5-0.1-0.9-0.4-1.1c-0.3-0.3-0.6-0.5-1.1-0.5c-0.3,0.1-0.6,0.1-0.9,0.2
				s-0.6,0.2-0.9,0.4C245.7,75.3,245.3,76,245.1,77.1z"/>
			<path id="XMLID_447_" d="M251.9,74.3c1.1-0.4,2-0.6,2.8-0.6c1,0,1.6,0.3,2,0.8c0.1,0.2,0.2,0.5,0.2,0.8c0,0.4-0.1,0.8-0.4,1.2
				s-0.6,0.8-1,1.1c-0.9,0.8-2.1,1.3-3.4,1.4c0,0.1,0,0.2,0,0.4s0,0.4,0,0.6s0,0.5,0,0.8s0,0.5,0,0.8c0,0.6,0,0.9,0.1,1s0,0.2,0,0.2
				c0,0.2-0.1,0.3-0.2,0.4s-0.3,0.1-0.5,0.1c0,0-0.1,0-0.1,0l-0.2-9.4c0.1-0.1,0.2-0.1,0.3-0.1s0.2,0,0.3,0.1S251.9,74.2,251.9,74.3
				z M255.3,74.7c-0.3-0.1-0.5-0.2-0.8-0.2s-0.6,0-0.9,0.1c-0.7,0.1-1.1,0.4-1.5,0.8c-0.1,0.2-0.2,0.5-0.2,0.8c0,0,0,0.1,0,0.1v2
				c1.6-0.4,2.8-0.9,3.4-1.5c0.4-0.4,0.6-0.7,0.6-1.1C256,75.2,255.8,74.9,255.3,74.7z"/>
			<path id="XMLID_450_" d="M257.8,76.8c0-0.9,0.4-1.7,1.2-2.2c0.6-0.4,1.4-0.7,2.3-0.8c0,0,0.2,0,0.3,0s0.4,0.1,0.7,0.2
				c0.6,0.2,1.1,0.6,1.3,1.2c0.1,0.2,0.1,0.4,0.1,0.6s0,0.3,0,0.3c0,1-0.4,1.7-1.1,2.3c-0.7,0.5-1.5,0.8-2.6,0.8
				c-0.7,0-1.3-0.2-1.7-0.5S257.8,77.6,257.8,76.8z M258.6,77.1c0,0.5,0.1,0.8,0.4,1c0.2,0.1,0.5,0.2,1,0.2s0.9,0,1.2-0.1
				s0.7-0.2,0.9-0.4c0.6-0.4,0.9-1,0.9-1.7c0-0.5-0.1-0.9-0.4-1.1c-0.3-0.3-0.6-0.5-1.1-0.5c-0.3,0.1-0.6,0.1-0.9,0.2
				s-0.6,0.2-0.9,0.4C259.1,75.3,258.7,76,258.6,77.1z"/>
			<path id="XMLID_453_" d="M268.2,76c0.9,0,1.3,0.2,1.3,0.7c0,0.3-0.2,0.7-0.7,1.1c-0.7,0.6-1.7,1.2-2.9,1.6
				c-0.1,0-0.1-0.1-0.2-0.2s-0.1-0.2-0.2-0.3s-0.1-0.1-0.1-0.1c0.9-0.3,1.6-0.7,2.2-1.1c0.4-0.3,0.6-0.5,0.6-0.7s-0.2-0.3-0.7-0.3
				s-1.1,0.1-2,0.3c-0.4,0-0.8-0.2-1.1-0.4c-0.3-0.2-0.4-0.5-0.4-0.7s0.1-0.5,0.2-0.7s0.3-0.4,0.6-0.6s0.5-0.3,0.8-0.5
				c0.8-0.4,1.6-0.6,2.4-0.6c0.2,0,0.5,0,0.7,0.1c0.2,0,0.3,0.1,0.3,0.2s0,0.4,0,0.8c-0.5-0.2-1-0.3-1.6-0.3c-0.7,0-1.3,0.1-1.8,0.4
				c-0.5,0.3-0.7,0.6-0.8,1.1c0,0.2,0.2,0.3,0.5,0.3l0.9-0.1C267.2,76.1,267.8,76,268.2,76z"/>
		</g>
	</g>
	<g id="XMLID_15_">
		<g id="XMLID_12_">
			<polygon id="XMLID_96_" class="st0" points="256.5,30.8 256.6,30.7 256.3,30.3 			"/>
			<path id="XMLID_81_" class="st0" d="M255.8,28.5c-0.1,0.1-0.1,0-0.2,0.1l0.9,1.3C257,29.3,255.5,28.9,255.8,28.5z"/>
			<path id="XMLID_80_" class="st0" d="M255.9,28.1c0.2-0.5-0.2-0.7-0.4-0.9C255.9,27.4,255.5,28.2,255.9,28.1z"/>
			<path id="XMLID_78_" class="st0" d="M236.1-0.8c0,0,0.1,0,0.2,0C236.2-0.8,236.2-0.8,236.1-0.8z"/>
			<path id="XMLID_77_" class="st0" d="M224.1,0.6L224,1c2.2-0.6,4.8,0,7.1-0.2L231,0.8c6,0.1,11.6-0.4,17.5-0.7
				c-0.1,0-0.1,0.1-0.2,0.2c0.3-0.1,0.6-0.3,0.9-0.3c0.1,0.1-0.1,0.2-0.2,0.2c1.3,0.6,3.7-0.3,4.6,0.1c0.4-0.1,0.8-0.3,0.6-0.5
				c0.3,0,0.6,0,0.9,0c0,1.3,0.1,2.6,0.1,4c0,1.1,0.1,2.3,0.1,3.5c0.1,2.3,0.2,4.6,0.4,6.9c-0.1,0.2-0.2,0.3-0.4,0.2
				c0.9,4.1,0.5,8.3,0.4,12.5c0.2,0.2,0.2-0.4,0.5,0c0.3-1.3-0.6-2.5-0.1-3.7l0.2,0.2c0.1-0.9-0.6-0.2-0.3-1.1
				c0.2-0.4,0.3,0.1,0.3-0.1c-0.1-1.9,0.1-3.8-0.4-5.6c0.5-0.4,0-2,0.5-2.7c-0.2-0.5-0.1-1-0.5-1.2c0.1-2,0.1-4.1,0.1-6.1
				c0-2.5-0.1-5-0.1-7.5c-1.7,0-3.5,0.1-5.2,0.1c-1.3,0-2.6,0-3.9,0c-3.2,1-6.9-0.2-10.7,0.1c0,0,0-0.1,0-0.1
				c-1.2,0.2-3,0.3-4.5,0.2l-1.2,0.4c-8.8-0.8-17.7-0.2-26.6-0.6c-10.1-0.2-19-0.9-28.8,0.3c0-0.1-0.1-0.1,0.2-0.2
				c-2.8,0.2-5.4-0.2-8.1,0l0-0.1c-6.6,0.8-13.8-0.1-20.2,0.7c-1.6,0-3.2,0-5,0c0,1.7,0,3.5,0,5.3c0,1.7,0,3.4,0,5.1
				c0,3.4,0.1,6.8,0.2,10.2l-0.2,0c0.1,1.7,0.1,3.4,0.1,5.1l-0.1,2.6l-0.1,2.9c1.7,0.1,3.3,0.1,5,0.2c1.6,0,3.1,0,4.7,0
				c6.8,0.4,13.9-1.1,20.7-0.5c4.2,0.9,9.8-1.1,13.7-0.1c8.2,1.4,16.1,0.5,24.2-0.4c7.5,0.5,15-0.8,22.3,0.2
				c3.4-0.7,7.3,0.8,11.1,0.6l-0.1-0.2c1.4,0.7,3.1-1,3.9,0.1l-0.1,0c0.7,0.5,1.7-1.3,2.1-0.6l0.1-0.3c0.9-0.1,0.1,0.3,0.8,0.4
				c0.3,0,0.1-0.5,0.6-0.3c0.1,1.1,2.2-0.2,2.2,1c-0.5,0,0.8,0.5-0.3,0.7c0.3,0.1,1.8,0.1,1.7-0.5c0.1-0.5,0.7-1-0.2-1.4l-0.2,0.4
				c-0.3-0.4-0.2-0.2-0.3-0.5c-1.2-0.1-1.3-0.6-2.2-0.9c0,0,0,0,0,0c-0.6,0.5-1.4,0.2-1.8,0.1l-0.2-0.2c-0.3-0.5-1.3,0.9-1,0.1
				c-2.4,0.2-5.1,0.2-7.8,0.2c-0.4,0.3-2,0-1.5,0.6c-0.7-0.7-2.7-0.8-3.4-0.8c0-0.1,0.1-0.1,0.2-0.1c-1.4-0.9-1.7,0.8-3-0.3
				c-0.2,0.7-2.4-0.2-3.2,0.6c-0.2-0.2-0.2-0.3-0.2-0.4c-2.4,0-5.1-0.3-7.1-0.3c-1.7,0.7-4.2-0.3-5.7,0.6c-1.2-0.2-3.3-0.6-5-0.2
				l0.2-0.1c-2,0.1-4.4,0.1-5.8,0.7c-0.6-0.9-1.4-0.7-2.3-1c-1.3,0.4-3.9,0.3-5.9,0.6c-0.3-0.4-1.6,0.2-1.7-0.4
				c-5.6,1.1-12.5,0.7-18.5-0.1l0.1,0c-0.8,0.3-1.7,1-2.5,1.4c-0.1-0.1-0.1-0.1,0.1-0.1c-1.1,0.1-2.1-0.5-3.2-0.4
				c0-0.1,0-0.1,0.2-0.2c-1,0.3-2.1-0.5-3.3,0l-0.1-0.2l-0.8,0.2c0-0.2,0-0.5,0.5-0.4c-4.4-0.1-8.8,0.1-13.2,0.3
				c-2.2,0.1-4.5,0.2-6.7,0.3l-3.4,0.1l-2.4,0l0-1.1c0,0,0.2,0.2,0.2,0.1c0,0-0.1-0.1-0.2-0.7c-0.1-0.5-0.2-0.9-0.2-0.9
				c0.1,0,0.1,0.1,0.2,0.2c0.3-2.4-0.2-4.8-0.1-7.2c0.1,0,0.3,0.4,0.4,0c-0.5-1.7,0.7-2.8-0.4-3.6c0.1-0.1,0.3-0.1,0.4,0
				c-0.2-2.4-0.3-4.8-0.3-7.2c0-1.2,0-2.4,0-3.6l0-1.8l0.1-1.7c-0.2-0.3-0.3-0.8-0.3-1.3c0.2-0.1,0.5-0.1,0.8-0.1l0.5,0l0.6,0
				c0.9,0,1.8,0,2.7,0c1.8,0,3.6,0,5.4-0.4l0,0.2c5.4-0.7,11.1,0,16.7-0.1c2.3,0.1,3.9-0.2,6.2-0.2l0.1,0.2
				c3.9-0.9,8.2,0.8,12.3-0.2L187.9,1c0.6-0.5,2.5,0.2,2.2-0.7l0.7,0.3c2.8-1.2,5.1,0.5,8.5-0.2L199,0.5c0.9-0.2,2-0.3,2.6-0.1
				c-0.1,0-0.1,0.1-0.3,0.1c2.8,0.8,6-0.1,9-0.1L210,0.9c1.4-0.5,4.1,0,6-0.2l-0.1,0.2l1-0.3l0,0.4C219.4,1,221.7,0.7,224.1,0.6z"/>
			<path id="XMLID_40_" class="st0" d="M249,0.2C249,0.2,249,0.2,249,0.2C248.9,0.2,249,0.2,249,0.2z"/>
			<path id="XMLID_39_" class="st0" d="M251.3,29.1c0.1,0,0.2,0,0.3,0.1C251.6,29.1,251.4,29.1,251.3,29.1z"/>
		</g>
		<g id="XMLID_400_">
			<path id="XMLID_401_" d="M152.9,12.2c0.4-0.4,1.2-0.6,2.3-0.6c0.7,0,1.3,0.1,1.8,0.2s0.8,0.3,1.1,0.4s0.4,0.3,0.4,0.5
				c0,0.4-0.5,0.9-1.5,1.3c-0.1,0.1-0.5,0.2-1.2,0.4s-1.1,0.4-1.3,0.4c-0.5,0.2-0.8,0.3-0.9,0.4c0,0,0,0.1,0,0.1s0.1,0.1,0.2,0.1
				s0.3,0.2,0.5,0.3s0.6,0.3,1,0.5c1.2,0.7,2.5,1.4,3.8,2.2c0.1,0,0.1,0.1,0.2,0.2s0.2,0.2,0.2,0.3s0,0.2-0.1,0.2s-0.1,0.1-0.2,0.1
				s-0.2,0-0.3,0h-0.2c-0.2,0-0.5-0.2-1-0.5s-0.9-0.6-1.3-0.9s-0.7-0.5-1.1-0.7c-0.9-0.6-1.6-0.9-2.1-1.1v2.7c0,0.2-0.1,0.2-0.4,0.2
				h-0.1c-0.2,0-0.3-0.1-0.4-0.2c-0.1-0.3-0.2-0.7-0.2-1.4l0-2.4c0-1.2-0.1-2.2-0.2-3c0.2-0.3,0.4-0.3,0.7,0
				C152.8,12,152.9,12.1,152.9,12.2z M156.9,12.3l-0.8,0c-1.8,0-2.8,0.2-3,0.6c-0.1,0.1-0.1,0.2-0.1,0.4s0,0.3,0,0.4
				c0,0.3,0.1,0.6,0.3,0.7c0,0,0.1,0,0.1,0s0.2,0,0.3,0s0.4-0.1,0.6-0.2s0.6-0.2,0.9-0.3s0.6-0.2,0.9-0.4c0.9-0.4,1.3-0.7,1.3-1
				C157.4,12.5,157.2,12.4,156.9,12.3z"/>
			<path id="XMLID_404_" d="M162.8,18.3c0.7,0,1.7-0.3,3.1-0.9c0.1,0,0.2,0,0.2,0.1s0.1,0.1,0.1,0.2c-0.3,0.5-0.9,0.9-1.8,1.2
				s-1.7,0.3-2.5,0.2c-0.9-0.2-1.4-0.7-1.6-1.5c0-0.1,0-0.3,0-0.6s0.1-0.6,0.2-1s0.3-0.8,0.7-1.2s0.7-0.7,1.1-0.9s0.9-0.3,1.3-0.3
				c0.5,0,1,0.2,1.5,0.5c0.3,0.1,0.5,0.3,0.6,0.5s0.2,0.4,0.2,0.6c0,0.1,0,0.1,0,0.2c0,0.5-0.2,0.8-0.7,0.9
				c-0.2,0.1-0.4,0.1-0.7,0.1l-1.7-0.1c-0.6,0-1,0.1-1.3,0.4c-0.2,0.1-0.3,0.3-0.4,0.6C161.5,17.9,162,18.3,162.8,18.3z M164.9,14.7
				c-0.2-0.1-0.4-0.2-0.5-0.3s-0.3-0.1-0.5-0.1s-0.3,0-0.6,0.1s-0.5,0.2-0.8,0.3c-0.5,0.3-0.8,0.5-0.8,0.8c0.6,0.1,1.1,0.1,1.4,0.1
				c0.9,0,1.5-0.1,1.8-0.2c0.2-0.1,0.3-0.2,0.3-0.3C165.1,14.9,165.1,14.8,164.9,14.7z"/>
			<path id="XMLID_407_" d="M173.6,15.2c0,0,0.1,0.1,0.1,0.3s0,0.4,0,0.4l-4,0.5l0.2,2.6l-0.9,0c0-0.7-0.1-1.5-0.2-2.4l-1.5,0.6
				c-0.1,0-0.2-0.1-0.3-0.2c-0.1-0.2-0.2-0.4-0.2-0.6l1.8-0.6c-0.2-1.3-0.2-2.4-0.2-3.3s0.1-1.5,0.2-2s0.3-0.8,0.6-0.9
				s0.6-0.2,0.9-0.2s0.6,0.1,0.9,0.2s0.6,0.3,0.9,0.5s0.5,0.4,0.7,0.7s0.3,0.5,0.3,0.7c0,0.2,0,0.3-0.1,0.4
				c-0.3-0.4-0.7-0.8-1.1-1.2c-0.5-0.4-1-0.6-1.5-0.6c-0.4,0-0.7,0.3-0.9,0.9c-0.1,0.3-0.1,0.8-0.1,1.4s0,1.1,0,1.6s0.1,1,0.3,1.5
				c0.5,0,1,0,1.6-0.1C172.3,15.3,173.1,15.2,173.6,15.2z"/>
			<path id="XMLID_409_" d="M174,17.6c0-0.1,0-0.3,0-0.5s0-0.5-0.1-0.7s0-0.5,0-0.8s0-0.5,0.1-0.8c0.1-0.5,0.3-0.8,0.6-0.8
				c0.2,0.1,0.4,0.1,0.4,0.2s0.1,0.2,0.1,0.3s0,0.3-0.1,0.5c-0.3,0.7-0.4,1.3-0.4,1.8c0,0.2,0,0.4,0,0.6c0.1,0.5,0.6,0.8,1.3,0.8
				c0.4,0,0.7-0.1,1.1-0.2c0.7-0.2,1.1-0.5,1.3-0.9c0.1-0.4,0.1-0.7,0.1-0.9s0-0.5,0-0.7s0-0.4-0.1-0.7s0-0.5-0.1-0.8
				c0.1,0,0.2-0.1,0.3-0.1s0.2,0.1,0.3,0.2s0.2,0.3,0.3,0.6s0.1,0.6,0.1,1s0,0.8,0,1.2s0,0.8,0,1.2s0,0.7,0,1
				c-0.1,0.1-0.2,0.1-0.3,0.1c-0.3,0-0.5-0.3-0.7-0.9c-0.1,0.1-0.3,0.2-0.5,0.3c-0.5,0.3-1.1,0.5-1.8,0.6c-0.1,0-0.3,0-0.4,0
				s-0.4,0-0.6-0.1s-0.5-0.2-0.7-0.4S174,18,174,17.6z"/>
			<path id="XMLID_411_" d="M183.5,24.1l-0.2,0c-0.2,0-0.5,0-0.8,0h-0.4c-0.5,0-0.8-0.1-1.1-0.3c-0.1-0.1-0.2-0.2-0.2-0.4l2.7-0.1
				c0.8,0,1.2-0.5,1.2-1.3c0,0,0-0.1,0-0.2s0-0.2,0-0.5l0.1-3.8c0-0.1,0-0.2,0-0.3c-1.3,1.2-2.5,1.8-3.7,1.8c-0.1,0-0.2,0-0.3,0
				c-0.5,0-0.8-0.2-0.8-0.7c0-0.4,0.1-0.8,0.3-1.2s0.4-0.9,0.8-1.3s0.7-0.8,1-1.1c0.6-0.5,1.2-0.7,1.7-0.7c0.7,0,1.2,0.3,1.6,1
				c0.1,1.9,0.2,3.2,0.2,4s0,1.4,0,1.9s-0.1,1-0.2,1.4s-0.2,0.7-0.3,1s-0.3,0.4-0.5,0.5C184.5,24.1,184,24.1,183.5,24.1z
				 M184.2,14.9c-0.1,0-0.2,0-0.4,0s-0.4,0.1-0.7,0.2s-0.5,0.3-0.8,0.5s-0.5,0.5-0.7,0.7c-0.5,0.7-0.8,1.2-0.8,1.6
				c0,0.1,0,0.2,0.1,0.3c0.1,0,0.1,0,0.2,0s0.2,0,0.4,0s0.4-0.1,0.6-0.2s0.5-0.3,0.8-0.4s0.6-0.4,0.8-0.6c0.5-0.5,0.8-1,0.8-1.5
				C184.7,15.3,184.5,15.1,184.2,14.9z"/>
			<path id="XMLID_414_" d="M188.7,18.3c0.7,0,1.7-0.3,3.1-0.9c0.1,0,0.2,0,0.2,0.1s0.1,0.1,0.1,0.2c-0.3,0.5-0.9,0.9-1.8,1.2
				s-1.7,0.3-2.5,0.2c-0.9-0.2-1.4-0.7-1.6-1.5c0-0.1,0-0.3,0-0.6s0.1-0.6,0.2-1s0.3-0.8,0.7-1.2s0.7-0.7,1.1-0.9s0.9-0.3,1.3-0.3
				c0.5,0,1,0.2,1.5,0.5c0.3,0.1,0.5,0.3,0.6,0.5s0.2,0.4,0.2,0.6c0,0.1,0,0.1,0,0.2c0,0.5-0.2,0.8-0.7,0.9
				c-0.2,0.1-0.4,0.1-0.7,0.1l-1.7-0.1c-0.6,0-1,0.1-1.3,0.4c-0.2,0.1-0.3,0.3-0.4,0.6C187.4,17.9,187.9,18.3,188.7,18.3z
				 M190.8,14.7c-0.2-0.1-0.4-0.2-0.5-0.3s-0.3-0.1-0.5-0.1s-0.3,0-0.6,0.1s-0.5,0.2-0.8,0.3c-0.5,0.3-0.8,0.5-0.8,0.8
				c0.6,0.1,1.1,0.1,1.4,0.1c0.9,0,1.5-0.1,1.8-0.2c0.2-0.1,0.3-0.2,0.3-0.3C191,14.9,191,14.8,190.8,14.7z"/>
			<path id="XMLID_417_" d="M203.1,11.9c0,0.7-0.1,1.4-0.1,2.1s-0.1,1.4-0.1,2.2s0.1,1.6,0.2,2.4c0,0.2,0,0.3-0.1,0.4
				s-0.2,0.1-0.3,0.1c-0.4,0-0.6-0.3-0.6-0.9v-0.4c-1.1,0.8-2,1.2-2.8,1.2c-0.3,0-0.6-0.1-0.9-0.2s-0.6-0.4-0.9-0.9
				c0-0.2-0.1-0.4-0.1-0.6s0-0.4,0.1-0.7s0.2-0.6,0.5-0.9s0.5-0.6,0.8-0.8c0.7-0.5,1.5-0.7,2.3-0.7c0.4,0,0.7,0.1,1,0.2
				c0-0.1,0-0.4,0-0.7s0-0.7,0.1-1.1c0-1,0.1-1.6,0.1-1.8s0-0.3,0.1-0.5s0.1-0.2,0.1-0.3c0.1-0.2,0.3-0.3,0.6-0.3
				C203.1,10.5,203.1,11.2,203.1,11.9z M198.2,17.3c0,0.6,0.2,0.9,0.7,0.9c0.1,0,0.1,0,0.2,0c0.3,0,0.7-0.1,1.2-0.3
				c0.9-0.4,1.4-0.7,1.6-0.9v-1.6c0-0.3-0.2-0.4-0.7-0.4c-0.1,0-0.1,0-0.2,0s-0.2,0-0.4,0.1s-0.4,0.1-0.6,0.2s-0.5,0.2-0.7,0.4
				c-0.5,0.3-0.8,0.7-1,1.1C198.3,16.9,198.2,17.1,198.2,17.3z"/>
			<path id="XMLID_420_" d="M206.1,18.3c0.7,0,1.7-0.3,3.1-0.9c0.1,0,0.2,0,0.2,0.1s0.1,0.1,0.1,0.2c-0.3,0.5-0.9,0.9-1.8,1.2
				s-1.7,0.3-2.5,0.2c-0.9-0.2-1.4-0.7-1.6-1.5c0-0.1,0-0.3,0-0.6s0.1-0.6,0.2-1s0.3-0.8,0.7-1.2s0.7-0.7,1.1-0.9s0.9-0.3,1.3-0.3
				c0.5,0,1,0.2,1.5,0.5c0.3,0.1,0.5,0.3,0.6,0.5s0.2,0.4,0.2,0.6c0,0.1,0,0.1,0,0.2c0,0.5-0.2,0.8-0.7,0.9
				c-0.2,0.1-0.4,0.1-0.7,0.1l-1.7-0.1c-0.6,0-1,0.1-1.3,0.4c-0.2,0.1-0.3,0.3-0.4,0.6C204.8,17.9,205.3,18.3,206.1,18.3z
				 M208.2,14.7c-0.2-0.1-0.4-0.2-0.5-0.3s-0.3-0.1-0.5-0.1s-0.3,0-0.6,0.1s-0.5,0.2-0.8,0.3c-0.5,0.3-0.8,0.5-0.8,0.8
				c0.6,0.1,1.1,0.1,1.4,0.1c0.9,0,1.5-0.1,1.8-0.2c0.2-0.1,0.3-0.2,0.3-0.3C208.5,14.9,208.4,14.8,208.2,14.7z"/>
			<path id="XMLID_423_" d="M219.8,17.9c0.3-0.1,0.6-0.2,0.9-0.4s0.6-0.2,0.9-0.2s0.4,0.1,0.4,0.3c0,0,0,0.1,0,0.2s-0.1,0.2-0.3,0.3
				s-0.4,0.2-0.7,0.3s-0.6,0.2-0.9,0.3s-0.6,0.2-1,0.2c-0.6,0.1-1.1,0.2-1.4,0.2s-0.6,0-0.9-0.1s-0.6-0.2-0.9-0.3
				c-0.6-0.3-0.9-0.8-0.9-1.5c0,0,0-0.1,0-0.3s0.1-0.3,0.2-0.6s0.3-0.5,0.5-0.8s0.5-0.5,0.8-0.7c0.7-0.5,1.3-0.8,2.1-0.9
				c0.3-0.1,0.5-0.1,0.6-0.1s0.3,0,0.4,0s0.2,0,0.3,0s0.2,0,0.3,0.1c0.2,0.1,0.3,0.3,0.3,0.6c0,0.2-0.1,0.4-0.4,0.6
				c-0.1,0-0.1,0.1-0.2,0.1c0-0.2-0.1-0.3-0.2-0.5s-0.2-0.2-0.4-0.2c-0.9,0.2-1.7,0.5-2.4,0.9c-0.8,0.4-1.1,0.9-1.1,1.4
				c0,0.1,0,0.1,0,0.2c0,0.5,0.2,0.9,0.6,1.1c0.3,0.2,0.7,0.2,1.1,0.2s0.9-0.1,1.2-0.2S219.5,18,219.8,17.9z"/>
			<path id="XMLID_425_" d="M228.1,19c-0.1,0.1-0.3,0.2-0.5,0.2s-0.4-0.1-0.4-0.3c0-0.9,0-1.6-0.1-1.9c-0.1-0.8-0.2-1.2-0.4-1.2
				c-0.6-0.1-1-0.2-1.4-0.2s-0.6,0.1-0.9,0.3s-0.4,0.6-0.5,1.1s-0.2,1.2-0.3,2.1h-0.9c0-0.4,0-0.9,0-1.2s0-0.8,0-1.4s0-1.1-0.1-1.7
				c0-0.7-0.1-1.3-0.1-1.8s0-1,0.1-1.4c0.1-0.1,0.2-0.2,0.3-0.2c0.2,0,0.3,0.1,0.4,0.2s0.2,0.2,0.2,0.3l-0.1,1.9
				c0,0.7,0,1.3,0.1,1.6c0.7-0.5,1.4-0.7,2.2-0.7c0.2,0,0.5,0,0.8,0.1c0.6,0.3,1,0.6,1.1,1c0.1,0.2,0.1,0.4,0.2,0.6s0,0.4,0,0.7
				C228,17.9,228.1,18.5,228.1,19z"/>
			<path id="XMLID_427_" d="M233.2,17.2c-0.6,0.9-1.4,1.5-2.3,1.7c-0.2,0-0.4,0.1-0.6,0.1s-0.3,0-0.5,0s-0.3,0-0.4-0.1
				s-0.3-0.1-0.4-0.2c-0.3-0.2-0.4-0.4-0.4-0.7c0-0.1,0-0.3,0-0.5s0-0.4,0.1-0.7s0.2-0.6,0.4-0.9s0.5-0.6,0.8-0.9
				c0.6-0.6,1.3-1,2-1.1c0.2,0,0.4-0.1,0.6-0.1s0.3,0,0.5,0c0.5,0,0.8,0.3,0.9,0.9c0.1,0.4,0.2,0.9,0.2,1.6s0,1.2,0.1,1.6
				s0.1,0.7,0.1,1h-0.7c0-0.2-0.1-0.4-0.1-0.6s0-0.3,0-0.5C233.3,17.7,233.2,17.4,233.2,17.2z M233.1,15.4c0-0.5-0.2-0.7-0.7-0.7
				c-0.1,0-0.1,0-0.2,0c-0.6,0-1.2,0.3-1.8,0.8c-0.3,0.3-0.6,0.5-0.8,0.8c-0.3,0.4-0.5,0.8-0.5,1.2c0,0.5,0.3,0.7,0.8,0.8
				c0.7,0,1.4-0.3,2-1c0.3-0.3,0.5-0.6,0.7-0.9C233,16.1,233.1,15.7,233.1,15.4z"/>
			<path id="XMLID_430_" d="M236.5,18l0-1.9c0-0.3,0-0.6-0.1-0.8h-1.8l0-0.8h1.8v-3c0-0.1,0.1-0.1,0.1-0.2c0.1-0.1,0.2-0.2,0.3-0.2
				s0.1,0,0.2,0s0.1,0.1,0.2,0.2c0.1,0.5,0.2,1.3,0.2,2.3c0,0.3,0,0.5,0,0.8c0.3,0,0.5,0,0.8,0h0.6c0.1,0,0.3,0,0.4,0l0,0.8l-1.7,0
				l0.1,4c-0.1,0.1-0.3,0.1-0.4,0.1C236.7,19.3,236.5,18.9,236.5,18z"/>
			<path id="XMLID_432_" d="M243.5,16.1c0.9,0,1.3,0.2,1.3,0.7c0,0.3-0.2,0.7-0.7,1.1c-0.7,0.6-1.7,1.2-2.9,1.6
				c-0.1,0-0.1-0.1-0.2-0.2s-0.1-0.2-0.2-0.3s-0.1-0.1-0.1-0.1c0.9-0.3,1.6-0.7,2.2-1.1c0.4-0.3,0.6-0.5,0.6-0.7s-0.2-0.3-0.7-0.3
				s-1.1,0.1-2,0.3c-0.4,0-0.8-0.2-1.1-0.4c-0.3-0.2-0.4-0.5-0.4-0.7s0.1-0.5,0.2-0.7s0.3-0.4,0.6-0.6s0.5-0.3,0.8-0.5
				c0.8-0.4,1.6-0.6,2.4-0.6c0.2,0,0.5,0,0.7,0.1c0.2,0,0.3,0.1,0.3,0.2s0,0.4,0,0.8c-0.5-0.2-1-0.3-1.6-0.3c-0.7,0-1.3,0.1-1.8,0.4
				c-0.5,0.3-0.7,0.6-0.8,1.1c0,0.2,0.2,0.3,0.5,0.3l0.9-0.1C242.5,16.2,243.1,16.1,243.5,16.1z"/>
		</g>
	</g>
	<g id="XMLID_16_">
		<g id="XMLID_11_">
			<polygon id="XMLID_38_" class="st0" points="395.4,90.7 395.5,90.6 395.2,90.3 			"/>
			<path id="XMLID_37_" class="st0" d="M394.7,88.9c-0.1,0.1-0.2,0-0.2,0.1l0.9,1.1C395.9,89.5,394.3,89.2,394.7,88.9z"/>
			<path id="XMLID_36_" class="st0" d="M394.8,88.5c0.2-0.4-0.2-0.6-0.4-0.7C394.7,88,394.3,88.6,394.8,88.5z"/>
			<path id="XMLID_22_" class="st0" d="M385.2,59.1c0,0,0.1,0,0.1,0C385.3,59.1,385.2,59.1,385.2,59.1z"/>
			<path id="XMLID_18_" class="st0" d="M375.7,60.5l-0.1,0.3c1.8-0.6,3.8,0,5.6-0.2l-0.1,0.1c2.1,0.1,4.1,0,6.1-0.1
				c2.1-0.1,4.1-0.3,6.2-0.4c0,0.6,0.1,1.1,0.1,1.7c0-0.1-0.1-0.1-0.2-0.1c0.1,0.2,0.3,0.5,0.3,0.8c-0.1,0.1-0.2-0.1-0.2-0.2
				c-0.6,1,0.3,2.9-0.1,3.6c0.1,0.3,0.3,0.4,0.5,0.2c0.1,3.7,0.2,7.6,0.7,11.4c-0.1,0.2-0.2,0.2-0.4,0.2c0.9,3.2,0.5,6.6,0.4,9.9
				c0.2,0.1,0.2-0.3,0.5,0c0.3-1.1-0.6-1.9-0.1-2.9l0.2,0.1c0.1-0.7-0.6-0.1-0.3-0.9c0.2-0.3,0.3,0.1,0.3-0.1
				c-0.1-1.5,0.1-3-0.4-4.4c0.5-0.3,0-1.6,0.5-2.1c-0.2-0.4-0.1-0.8-0.5-0.9c0.1-2.6,0.1-5.2,0-7.9c0-1.3-0.1-2.6-0.1-4l0-2l0-3.1
				c0-0.1-0.1-0.2-0.1-0.3c-1.1,0.2-2,0.3-2.9,0.3l-0.6,0l-0.5,0c-0.3,0-0.7-0.1-1-0.1c-1.4-0.1-2.8-0.3-4.2-0.2c0,0,0-0.1,0-0.1
				c-1,0.2-2.4,0.3-3.5,0.2l-1,0.4c-6.9-0.8-14-0.2-21-0.6c-8-0.2-15-0.9-22.7,0.3c0-0.1-0.1-0.1,0.1-0.2c-2.2,0.2-4.3-0.2-6.4,0
				l0-0.1c-5.2,0.8-10.9-0.1-16,0.7c-1.3,0-2.6,0-4,0c0,1.4,0,2.8,0,4.2c0,1.3,0,2.7,0,4c0,2.7,0.1,5.4,0.2,8l-0.2,0
				c0.2,2.4,0.1,4.8-0.1,7.2c-0.1,1.2-0.1,2.4-0.2,3.6l0,0.9l0,1c0,0.8,0,1.6,0,2.3c0.4,0,0.8,0,1.3,0c0.4,0,0.8,0,1.3,0.1l1.1,0
				c0.7,0,1.4,0,2-0.1c1.4-0.1,2.7-0.2,4.1-0.3c2.8-0.3,5.5-0.5,8.2-0.2c3.3,0.9,7.7-1.1,10.8-0.1c6.4,1.4,12.7,0.5,19.1-0.4
				c5.9,0.5,11.9-0.8,17.6,0.2c2.7-0.7,5.7,0.8,8.8,0.6l-0.1-0.2c1.1,0.7,2.4-1,3.1,0.1l-0.1,0c0.6,0.5,1.3-1.3,1.7-0.6l0.1-0.3
				c0.7-0.1,0.1,0.3,0.6,0.4c0.2,0,0.1-0.5,0.5-0.3c0.1,1.1,1.7-0.2,1.8,1c-0.4,0,0.6,0.5-0.3,0.7c0.2,0.1,1.4,0.1,1.3-0.5
				c0.1-0.5,0.6-1-0.2-1.4l-0.1,0.4c-0.2-0.4-0.2-0.2-0.3-0.5c-0.9-0.1-1.1-0.6-1.7-0.9c0,0,0,0,0,0c-0.5,0.5-1.1,0.2-1.4,0.1
				l-0.1-0.2c-0.2-0.5-1.1,0.9-0.8,0.1c-1.9,0.2-4.1,0.2-6.2,0.2c-0.3,0.3-1.6,0-1.2,0.6c-0.5-0.7-2.1-0.8-2.7-0.8
				c0-0.1,0-0.1,0.1-0.1c-1.1-0.9-1.3,0.8-2.4-0.3c-0.2,0.7-1.9-0.2-2.5,0.6c-0.1-0.2-0.2-0.3-0.1-0.4c-1.9,0-4-0.3-5.6-0.3
				c-1.4,0.7-3.3-0.3-4.5,0.6c-1-0.2-2.6-0.6-3.9-0.2l0.1-0.1c-1.5,0.1-3.5,0.1-4.5,0.7c-0.5-0.9-1.1-0.7-1.8-1
				c-1,0.4-3.1,0.3-4.7,0.6c-0.2-0.4-1.3,0.2-1.4-0.4c-4.4,1.1-9.9,0.7-14.6-0.1l0.1,0c-0.6,0.3-1.3,1-1.9,1.4
				c-0.1-0.1-0.1-0.1,0.1-0.1c-0.9,0.1-1.7-0.5-2.5-0.4c0-0.1,0-0.1,0.1-0.2c-0.8,0.3-1.7-0.5-2.6,0l-0.1-0.2l-0.6,0.2
				c0-0.2,0-0.5,0.4-0.4c-2.4-0.1-4.8,0-7.3,0.1c-1.2,0.1-2.5,0.1-3.7,0.2l-0.9,0.1l-0.5,0l-0.2,0l-0.1,0l-0.8,0.1l-0.1-0.9
				l-0.1-1.9c0-1.3,0-2.7,0-4l0.2,0.3l-0.3-1.5c0.1,0,0.1,0.1,0.2,0.1c0.3-1.9-0.2-3.8-0.1-5.6c0.1,0,0.3,0.3,0.4,0
				c-0.5-1.4,0.7-2.2-0.4-2.9c0.1-0.1,0.3-0.1,0.4,0c-0.2-1.9-0.3-3.8-0.3-5.7c0-1,0-1.9,0-2.9l0-1.4l0-0.7c0-0.2,0-0.3,0-0.4
				c-0.2-0.3-0.3-0.7-0.3-1.1c0.3-0.1,0.8-0.1,1.3-0.2c0.7,0,1.4,0,2.1,0c1.4,0,2.9,0,4.2-0.4l0,0.2c4.2-0.7,8.8,0,13.2-0.1
				c1.8,0.1,3.1-0.2,4.9-0.2l0,0.2c3.1-0.9,6.5,0.8,9.7-0.2l-0.2,0.3c0.5-0.5,2,0.2,1.8-0.7l0.6,0.3c2.2-1.2,4,0.5,6.7-0.2l-0.2,0.2
				c0.7-0.2,1.5-0.3,2.1-0.1c-0.1,0,0,0.1-0.2,0.1c2.2,0.8,4.7-0.1,7.1-0.1l-0.3,0.4c1.1-0.5,3.2,0,4.7-0.2l-0.1,0.2l0.8-0.3l0,0.4
				C372,60.9,373.8,60.6,375.7,60.5z"/>
			<path id="XMLID_6_" class="st0" d="M393.6,62.3C393.6,62.3,393.6,62.3,393.6,62.3C393.5,62.2,393.5,62.3,393.6,62.3z"/>
			<path id="XMLID_5_" class="st0" d="M390.8,89c0.1,0,0.2,0,0.2,0.1C391.1,89,390.9,89,390.8,89z"/>
		</g>
		<g id="XMLID_388_">
			<path id="XMLID_389_" d="M345.2,72.5c-0.5-0.5-1.1-0.8-1.7-0.8c-0.6,0-1.1,0.2-1.7,0.7c-0.7,0.6-1.1,1.3-1.4,2.2
				c-0.1,0.3-0.1,0.6-0.1,0.8s0,0.4,0,0.5c0,0.8,0.3,1.4,0.8,1.8c0.5,0.4,1.1,0.6,1.9,0.6c1-0.1,2.1-0.5,3-1.2
				c0.3-0.2,0.5-0.4,0.8-0.6c0.1,0,0.2,0,0.3,0s0.2,0.1,0.2,0.3c-0.8,0.7-1.4,1.2-2,1.5c-1,0.5-1.9,0.8-2.7,0.8c-0.1,0-0.1,0-0.2,0
				c-0.9,0-1.6-0.3-2.2-0.8c-0.7-0.6-1-1.3-1-2.1c0-0.6,0.1-1.3,0.3-1.8s0.5-1.1,0.9-1.6s0.9-0.8,1.4-1.1s1.1-0.4,1.8-0.4
				c0.5,0,0.9,0.1,1.1,0.2C345.1,71.6,345.2,72,345.2,72.5z"/>
			<path id="XMLID_391_" d="M353.4,78.8c-0.1,0.1-0.3,0.2-0.5,0.2s-0.4-0.1-0.4-0.3c0-0.9,0-1.6-0.1-1.9c-0.1-0.8-0.2-1.2-0.4-1.2
				c-0.6-0.1-1-0.2-1.4-0.2s-0.6,0.1-0.9,0.3s-0.4,0.6-0.5,1.1s-0.2,1.2-0.3,2.1h-0.9c0-0.4,0-0.9,0-1.2s0-0.8,0-1.4s0-1.1-0.1-1.7
				c0-0.7-0.1-1.3-0.1-1.8s0-1,0.1-1.4c0.1-0.1,0.2-0.2,0.3-0.2c0.2,0,0.3,0.1,0.4,0.2s0.2,0.2,0.2,0.3l-0.1,1.9
				c0,0.7,0,1.3,0.1,1.6c0.7-0.5,1.4-0.7,2.2-0.7c0.2,0,0.5,0,0.8,0.1c0.6,0.3,1,0.6,1.1,1c0.1,0.2,0.1,0.4,0.2,0.6s0,0.4,0,0.7
				C353.3,77.8,353.3,78.4,353.4,78.8z"/>
			<path id="XMLID_393_" d="M358.4,77.1c-0.6,0.9-1.4,1.5-2.3,1.7c-0.2,0-0.4,0.1-0.6,0.1s-0.3,0-0.5,0s-0.3,0-0.4-0.1
				s-0.3-0.1-0.4-0.2c-0.3-0.2-0.4-0.4-0.4-0.7c0-0.1,0-0.3,0-0.5s0-0.4,0.1-0.7s0.2-0.6,0.4-0.9s0.5-0.6,0.8-0.9
				c0.6-0.6,1.3-1,2-1.1c0.2,0,0.4-0.1,0.6-0.1s0.3,0,0.5,0c0.5,0,0.8,0.3,0.9,0.9c0.1,0.4,0.2,0.9,0.2,1.6s0,1.2,0.1,1.6
				s0.1,0.7,0.1,1h-0.7c0-0.2-0.1-0.4-0.1-0.6s0-0.3,0-0.5C358.5,77.6,358.5,77.3,358.4,77.1z M358.4,75.2c0-0.5-0.2-0.7-0.7-0.7
				c-0.1,0-0.1,0-0.2,0c-0.6,0-1.2,0.3-1.8,0.8c-0.3,0.3-0.6,0.5-0.8,0.8c-0.3,0.4-0.5,0.8-0.5,1.2c0,0.5,0.3,0.7,0.8,0.8
				c0.7,0,1.4-0.3,2-1c0.3-0.3,0.5-0.6,0.7-0.9C358.3,75.9,358.4,75.6,358.4,75.2z"/>
			<path id="XMLID_396_" d="M361.7,77.9l0-1.9c0-0.3,0-0.6-0.1-0.8h-1.8l0-0.8h1.8v-3c0-0.1,0.1-0.1,0.1-0.2
				c0.1-0.1,0.2-0.2,0.3-0.2s0.1,0,0.2,0s0.1,0.1,0.2,0.2c0.1,0.5,0.2,1.3,0.2,2.3c0,0.3,0,0.5,0,0.8c0.3,0,0.5,0,0.8,0h0.6
				c0.1,0,0.3,0,0.4,0l0,0.8l-1.7,0l0.1,4c-0.1,0.1-0.3,0.1-0.4,0.1C361.9,79.2,361.7,78.7,361.7,77.9z"/>
			<path id="XMLID_398_" d="M368.8,76c0.9,0,1.3,0.2,1.3,0.7c0,0.3-0.2,0.7-0.7,1.1c-0.7,0.6-1.7,1.2-2.9,1.6
				c-0.1,0-0.1-0.1-0.2-0.2s-0.1-0.2-0.2-0.3s-0.1-0.1-0.1-0.1c0.9-0.3,1.6-0.7,2.2-1.1c0.4-0.3,0.6-0.5,0.6-0.7s-0.2-0.3-0.7-0.3
				s-1.1,0.1-2,0.3c-0.4,0-0.8-0.2-1.1-0.4c-0.3-0.2-0.4-0.5-0.4-0.7s0.1-0.5,0.2-0.7s0.3-0.4,0.6-0.6s0.5-0.3,0.8-0.5
				c0.8-0.4,1.6-0.6,2.4-0.6c0.2,0,0.5,0,0.7,0.1c0.2,0,0.3,0.1,0.3,0.2s0,0.4,0,0.8c-0.5-0.2-1-0.3-1.6-0.3c-0.7,0-1.3,0.1-1.8,0.4
				c-0.5,0.3-0.7,0.6-0.8,1.1c0,0.2,0.2,0.3,0.5,0.3l0.9-0.1C367.8,76.1,368.3,76,368.8,76z"/>
		</g>
	</g>
</g>
<g id="Nouvelles">
	<g id="XMLID_375_">
		<path id="XMLID_376_" d="M122.3,196.1l-1,0c-0.3,0-0.6,0-0.9,0.1c0,0.3,0,0.7-0.1,1.2c-0.2,1.7-0.2,2.8-0.2,3.3s0,0.9,0,1.1
			l-1.1,0.1l0.4-5.8l-2.5-0.1c-0.1,0-0.1-0.1-0.1-0.2s-0.1-0.2-0.1-0.3s0-0.2,0.1-0.3s0.2-0.2,0.2-0.2c0.6,0,1.1,0.1,1.7,0.1
			c1.1,0.1,2,0.1,2.7,0.1l0.7,0c0.6,0,1.1-0.1,1.7-0.2c0.1,0,0.2,0.2,0.2,0.6c0,0.1,0,0.1,0,0.2C123.5,196,122.9,196.1,122.3,196.1z
			"/>
		<path id="XMLID_378_" d="M124.3,194.7c0-0.3,0.2-0.4,0.5-0.4c0.2,0,0.4,0,0.5,0.1c0,0.1,0,0.2,0,0.3s0,0.2-0.1,0.2
			s-0.2,0.1-0.3,0.1s-0.3,0-0.4-0.1S124.4,194.8,124.3,194.7z M125.4,196.3c0.1,1.5,0.2,3.2,0.3,5.1c0,0.2-0.2,0.4-0.6,0.4
			c-0.1,0-0.2,0-0.3-0.1s-0.1-0.1-0.2-0.1v-5.2H125.4z"/>
		<path id="XMLID_381_" d="M127.9,200.7l0-1.9c0-0.3,0-0.6-0.1-0.8H126l0-0.8h1.8v-3c0-0.1,0.1-0.1,0.1-0.2c0.1-0.1,0.2-0.2,0.3-0.2
			s0.1,0,0.2,0s0.1,0.1,0.2,0.2c0.1,0.5,0.2,1.3,0.2,2.3c0,0.3,0,0.5,0,0.8c0.3,0,0.5,0,0.8,0h0.6c0.1,0,0.3,0,0.4,0l0,0.8l-1.7,0
			l0.1,4c-0.1,0.1-0.3,0.1-0.4,0.1C128.1,202,127.9,201.6,127.9,200.7z"/>
		<path id="XMLID_383_" d="M136.8,197.5c-0.3-0.2-0.8-0.4-1.3-0.4c-0.5,0-0.9,0.1-1.3,0.3c-0.8,0.3-1.3,0.8-1.6,1.3
			c-0.1,0.2-0.2,0.5-0.2,0.8c0,0,0,0.2,0,0.4s0,0.5,0.1,0.9s0.1,0.7,0.1,1.1c-0.2,0-0.3,0-0.4,0.1s-0.2,0-0.3,0s-0.1,0-0.2-0.1
			s-0.1-0.2-0.2-0.4c0,0,0-0.2,0-0.4s-0.1-0.5-0.1-0.8s-0.1-0.7-0.1-1s-0.1-0.7-0.1-1.1c-0.1-0.8-0.2-1.4-0.2-1.7
			c0-0.2,0.1-0.3,0.4-0.3c0.2,0,0.3,0.1,0.4,0.2s0.2,0.3,0.2,0.5s0.1,0.3,0.1,0.5s0,0.3,0.1,0.4c1-0.9,2.3-1.4,3.8-1.4
			c0.2,0,0.4,0,0.5,0c0,0,0.1,0,0.2,0s0.1,0,0.2,0.1c0.1,0.1,0.1,0.2,0.1,0.4C137.1,197.3,137,197.5,136.8,197.5z"/>
		<path id="XMLID_385_" d="M140,201c0.7,0,1.7-0.3,3.1-0.9c0.1,0,0.2,0,0.2,0.1s0.1,0.1,0.1,0.2c-0.3,0.5-0.9,0.9-1.8,1.2
			s-1.7,0.3-2.5,0.2c-0.9-0.2-1.4-0.7-1.6-1.5c0-0.1,0-0.3,0-0.6s0.1-0.6,0.2-1s0.3-0.8,0.7-1.2s0.7-0.7,1.1-0.9s0.9-0.3,1.3-0.3
			c0.5,0,1,0.2,1.5,0.5c0.3,0.1,0.5,0.3,0.6,0.5s0.2,0.4,0.2,0.6c0,0.1,0,0.1,0,0.2c0,0.5-0.2,0.8-0.7,0.9c-0.2,0.1-0.4,0.1-0.7,0.1
			l-1.7-0.1c-0.6,0-1,0.1-1.3,0.4c-0.2,0.1-0.3,0.3-0.4,0.6C138.7,200.7,139.2,201,140,201z M142.1,197.4c-0.2-0.1-0.4-0.2-0.5-0.3
			s-0.3-0.1-0.5-0.1s-0.3,0-0.6,0.1s-0.5,0.2-0.8,0.3c-0.5,0.3-0.8,0.5-0.8,0.8c0.6,0.1,1.1,0.1,1.4,0.1c0.9,0,1.5-0.1,1.8-0.2
			c0.2-0.1,0.3-0.2,0.3-0.3C142.4,197.6,142.3,197.5,142.1,197.4z"/>
	</g>
	<g id="XMLID_358_">
		<path id="XMLID_359_" d="M124.3,215.3c-0.5-0.5-1.1-0.8-1.7-0.8c-0.6,0-1.1,0.2-1.7,0.7c-0.7,0.6-1.1,1.3-1.4,2.2
			c-0.1,0.3-0.1,0.6-0.1,0.8s0,0.4,0,0.5c0,0.8,0.3,1.4,0.8,1.8c0.5,0.4,1.1,0.6,1.9,0.6c1-0.1,2.1-0.5,3-1.2
			c0.3-0.2,0.5-0.4,0.8-0.6c0.1,0,0.2,0,0.3,0s0.2,0.1,0.2,0.3c-0.8,0.7-1.4,1.2-2,1.5c-1,0.5-1.9,0.8-2.7,0.8c-0.1,0-0.1,0-0.2,0
			c-0.9,0-1.6-0.3-2.2-0.8c-0.7-0.6-1-1.3-1-2.1c0-0.6,0.1-1.3,0.3-1.8s0.5-1.1,0.9-1.6s0.9-0.8,1.4-1.1s1.1-0.4,1.8-0.4
			c0.5,0,0.9,0.1,1.1,0.2C124.2,214.4,124.3,214.7,124.3,215.3z"/>
		<path id="XMLID_361_" d="M127.3,219.5c0-0.9,0.4-1.7,1.2-2.2c0.6-0.4,1.4-0.7,2.3-0.8c0,0,0.2,0,0.3,0s0.4,0.1,0.7,0.2
			c0.6,0.2,1.1,0.6,1.3,1.2c0.1,0.2,0.1,0.4,0.1,0.6s0,0.3,0,0.3c0,1-0.4,1.7-1.1,2.3c-0.7,0.5-1.5,0.8-2.6,0.8
			c-0.7,0-1.3-0.2-1.7-0.5S127.3,220.3,127.3,219.5z M128.1,219.8c0,0.5,0.1,0.8,0.4,1c0.2,0.1,0.5,0.2,1,0.2s0.9,0,1.2-0.1
			s0.7-0.2,0.9-0.4c0.6-0.4,0.9-1,0.9-1.7c0-0.5-0.1-0.9-0.4-1.1c-0.3-0.3-0.6-0.5-1.1-0.5c-0.3,0.1-0.6,0.1-0.9,0.2
			s-0.6,0.2-0.9,0.4C128.7,218.1,128.3,218.8,128.1,219.8z"/>
		<path id="XMLID_364_" d="M138.3,219.2c0-0.9-0.1-1.6-0.2-2.1c0.1-0.1,0-0.2-0.3-0.2c-0.3,0-0.6,0.1-1,0.2s-0.8,0.3-1,0.4
			c-0.6,0.3-1,0.6-1.1,0.9v3.2H134c-0.1-0.3-0.2-1-0.2-2.2c0-1.1,0-1.9,0.1-2.4s0.1-0.8,0.1-0.9c0.2-0.1,0.4-0.2,0.5-0.2
			c0.2,0,0.3,0.2,0.3,0.7c0,0.2,0,0.4,0,0.5s0,0.3,0,0.3c1.3-0.9,2.2-1.4,2.9-1.4c0.8,0,1.2,0.6,1.3,1.9c0,0.4,0.1,1.1,0.1,1.9
			l0,0.9c0,0.3,0,0.7,0,1c-0.1,0-0.1,0.1-0.2,0.1c0,0-0.1,0-0.2,0s-0.2,0-0.3,0c-0.1-0.3-0.1-0.6-0.1-1s0-0.6,0-0.9L138.3,219.2z"/>
		<path id="XMLID_366_" d="M141.5,220.6l0-1.9c0-0.3,0-0.6-0.1-0.8h-1.8l0-0.8h1.8v-3c0-0.1,0.1-0.1,0.1-0.2
			c0.1-0.1,0.2-0.2,0.3-0.2s0.1,0,0.2,0s0.1,0.1,0.2,0.2c0.1,0.5,0.2,1.3,0.2,2.3c0,0.3,0,0.5,0,0.8c0.3,0,0.5,0,0.8,0h0.6
			c0.1,0,0.3,0,0.4,0l0,0.8l-1.7,0l0.1,4c-0.1,0.1-0.3,0.1-0.4,0.1C141.7,221.9,141.5,221.5,141.5,220.6z"/>
		<path id="XMLID_368_" d="M147,220.9c0.7,0,1.7-0.3,3.1-0.9c0.1,0,0.2,0,0.2,0.1s0.1,0.1,0.1,0.2c-0.3,0.5-0.9,0.9-1.8,1.2
			s-1.7,0.3-2.5,0.2c-0.9-0.2-1.4-0.7-1.6-1.5c0-0.1,0-0.3,0-0.6s0.1-0.6,0.2-1s0.3-0.8,0.7-1.2s0.7-0.7,1.1-0.9s0.9-0.3,1.3-0.3
			c0.5,0,1,0.2,1.5,0.5c0.3,0.1,0.5,0.3,0.6,0.5s0.2,0.4,0.2,0.6c0,0.1,0,0.1,0,0.2c0,0.5-0.2,0.8-0.7,0.9c-0.2,0.1-0.4,0.1-0.7,0.1
			l-1.7-0.1c-0.6,0-1,0.1-1.3,0.4c-0.2,0.1-0.3,0.3-0.4,0.6C145.7,220.6,146.2,220.9,147,220.9z M149.1,217.3
			c-0.2-0.1-0.4-0.2-0.5-0.3s-0.3-0.1-0.5-0.1s-0.3,0-0.6,0.1s-0.5,0.2-0.8,0.3c-0.5,0.3-0.8,0.5-0.8,0.8c0.6,0.1,1.1,0.1,1.4,0.1
			c0.9,0,1.5-0.1,1.8-0.2c0.2-0.1,0.3-0.2,0.3-0.3C149.4,217.6,149.3,217.4,149.1,217.3z"/>
		<path id="XMLID_371_" d="M155.7,219.2c0-0.9-0.1-1.6-0.2-2.1c0.1-0.1,0-0.2-0.3-0.2c-0.3,0-0.6,0.1-1,0.2s-0.8,0.3-1,0.4
			c-0.6,0.3-1,0.6-1.1,0.9v3.2h-0.8c-0.1-0.3-0.2-1-0.2-2.2c0-1.1,0-1.9,0.1-2.4s0.1-0.8,0.1-0.9c0.2-0.1,0.4-0.2,0.5-0.2
			c0.2,0,0.3,0.2,0.3,0.7c0,0.2,0,0.4,0,0.5s0,0.3,0,0.3c1.3-0.9,2.2-1.4,2.9-1.4c0.8,0,1.2,0.6,1.3,1.9c0,0.4,0.1,1.1,0.1,1.9
			l0,0.9c0,0.3,0,0.7,0,1c-0.1,0-0.1,0.1-0.2,0.1c0,0-0.1,0-0.2,0s-0.2,0-0.3,0c-0.1-0.3-0.1-0.6-0.1-1s0-0.6,0-0.9L155.7,219.2z"/>
		<path id="XMLID_373_" d="M157.1,220.2c0-0.1,0-0.3,0-0.5s0-0.5-0.1-0.7s0-0.5,0-0.8s0-0.5,0.1-0.8c0.1-0.5,0.3-0.8,0.6-0.8
			c0.2,0.1,0.4,0.1,0.4,0.2s0.1,0.2,0.1,0.3s0,0.3-0.1,0.5c-0.3,0.7-0.4,1.3-0.4,1.8c0,0.2,0,0.4,0,0.6c0.1,0.5,0.6,0.8,1.3,0.8
			c0.4,0,0.7-0.1,1.1-0.2c0.7-0.2,1.1-0.5,1.3-0.9c0.1-0.4,0.1-0.7,0.1-0.9s0-0.5,0-0.7s0-0.4-0.1-0.7s0-0.5-0.1-0.8
			c0.1,0,0.2-0.1,0.3-0.1s0.2,0.1,0.3,0.2s0.2,0.3,0.3,0.6s0.1,0.6,0.1,1s0,0.8,0,1.2s0,0.8,0,1.2s0,0.7,0,1
			c-0.1,0.1-0.2,0.1-0.3,0.1c-0.3,0-0.5-0.3-0.7-0.9c-0.1,0.1-0.3,0.2-0.5,0.3c-0.5,0.3-1.1,0.5-1.8,0.6c-0.1,0-0.3,0-0.4,0
			s-0.4,0-0.6-0.1s-0.5-0.2-0.7-0.4S157.1,220.6,157.1,220.2z"/>
	</g>
	<g id="XMLID_312_">
		<path id="XMLID_313_" d="M117.5,234.5c0.6-0.2,1.3-0.3,2.3-0.3c1.7,0,2.9,0.4,3.6,1.3c0.3,0.3,0.4,0.7,0.4,1.3c0,0.1,0,0.1,0,0.2
			c0,0.8-0.5,1.6-1.4,2.4c-0.8,0.8-1.9,1.4-3.1,1.8c-0.8,0.3-1.5,0.5-2,0.5c-0.2,0-0.4,0-0.6-0.1v-7.3h0.2c0.2,0,0.3,0,0.4,0.1
			S117.5,234.4,117.5,234.5z M123,236.8c-0.1-0.7-0.5-1.2-1.2-1.5c-0.5-0.3-1.2-0.4-2-0.4l-0.2,0c-0.7,0-1.4,0.1-1.9,0.4v5.6
			c0.5,0,1.2-0.2,2.1-0.6c1.4-0.7,2.4-1.5,2.9-2.4C122.9,237.5,123,237.2,123,236.8z"/>
		<path id="XMLID_316_" d="M129,239.8c-0.6,0.9-1.4,1.5-2.3,1.7c-0.2,0-0.4,0.1-0.6,0.1s-0.3,0-0.5,0s-0.3,0-0.4-0.1
			s-0.3-0.1-0.4-0.2c-0.3-0.2-0.4-0.4-0.4-0.7c0-0.1,0-0.3,0-0.5s0-0.4,0.1-0.7s0.2-0.6,0.4-0.9s0.5-0.6,0.8-0.9
			c0.6-0.6,1.3-1,2-1.1c0.2,0,0.4-0.1,0.6-0.1s0.3,0,0.5,0c0.5,0,0.8,0.3,0.9,0.9c0.1,0.4,0.2,0.9,0.2,1.6s0,1.2,0.1,1.6
			s0.1,0.7,0.1,1h-0.7c0-0.2-0.1-0.4-0.1-0.6s0-0.3,0-0.5C129.1,240.3,129.1,240,129,239.8z M129,237.9c0-0.5-0.2-0.7-0.7-0.7
			c-0.1,0-0.1,0-0.2,0c-0.6,0-1.2,0.3-1.8,0.8c-0.3,0.3-0.6,0.5-0.8,0.8c-0.3,0.4-0.5,0.8-0.5,1.2c0,0.5,0.3,0.7,0.8,0.8
			c0.7,0,1.4-0.3,2-1c0.3-0.3,0.5-0.6,0.7-0.9C128.8,238.6,129,238.3,129,237.9z"/>
		<path id="XMLID_319_" d="M132.3,240.6l0-1.9c0-0.3,0-0.6-0.1-0.8h-1.8l0-0.8h1.8v-3c0-0.1,0.1-0.1,0.1-0.2
			c0.1-0.1,0.2-0.2,0.3-0.2s0.1,0,0.2,0s0.1,0.1,0.2,0.2c0.1,0.5,0.2,1.3,0.2,2.3c0,0.3,0,0.5,0,0.8c0.3,0,0.5,0,0.8,0h0.6
			c0.1,0,0.3,0,0.4,0l0,0.8l-1.7,0l0.1,4c-0.1,0.1-0.3,0.1-0.4,0.1C132.5,241.9,132.3,241.4,132.3,240.6z"/>
		<path id="XMLID_321_" d="M137.8,240.9c0.7,0,1.7-0.3,3.1-0.9c0.1,0,0.2,0,0.2,0.1s0.1,0.1,0.1,0.2c-0.3,0.5-0.9,0.9-1.8,1.2
			s-1.7,0.3-2.5,0.2c-0.9-0.2-1.4-0.7-1.6-1.5c0-0.1,0-0.3,0-0.6s0.1-0.6,0.2-1s0.3-0.8,0.7-1.2s0.7-0.7,1.1-0.9s0.9-0.3,1.3-0.3
			c0.5,0,1,0.2,1.5,0.5c0.3,0.1,0.5,0.3,0.6,0.5s0.2,0.4,0.2,0.6c0,0.1,0,0.1,0,0.2c0,0.5-0.2,0.8-0.7,0.9c-0.2,0.1-0.4,0.1-0.7,0.1
			l-1.7-0.1c-0.6,0-1,0.1-1.3,0.4c-0.2,0.1-0.3,0.3-0.4,0.6C136.5,240.5,137,240.9,137.8,240.9z M139.9,237.3
			c-0.2-0.1-0.4-0.2-0.5-0.3s-0.3-0.1-0.5-0.1s-0.3,0-0.6,0.1s-0.5,0.2-0.8,0.3c-0.5,0.3-0.8,0.5-0.8,0.8c0.6,0.1,1.1,0.1,1.4,0.1
			c0.9,0,1.5-0.1,1.8-0.2c0.2-0.1,0.3-0.2,0.3-0.3C140.1,237.5,140,237.4,139.9,237.3z"/>
		<path id="XMLID_324_" d="M152.1,234.5c0,0.7-0.1,1.4-0.1,2.1s-0.1,1.4-0.1,2.2s0.1,1.6,0.2,2.4c0,0.2,0,0.3-0.1,0.4
			s-0.2,0.1-0.3,0.1c-0.4,0-0.6-0.3-0.6-0.9v-0.4c-1.1,0.8-2,1.2-2.8,1.2c-0.3,0-0.6-0.1-0.9-0.2s-0.6-0.4-0.9-0.9
			c0-0.2-0.1-0.4-0.1-0.6s0-0.4,0.1-0.7s0.2-0.6,0.5-0.9s0.5-0.6,0.8-0.8c0.7-0.5,1.5-0.7,2.3-0.7c0.4,0,0.7,0.1,1,0.2
			c0-0.1,0-0.4,0-0.7s0-0.7,0.1-1.1c0-1,0.1-1.6,0.1-1.8s0-0.3,0.1-0.5s0.1-0.2,0.1-0.3c0.1-0.2,0.3-0.3,0.6-0.3
			C152.2,233,152.2,233.8,152.1,234.5z M147.3,239.9c0,0.6,0.2,0.9,0.7,0.9c0.1,0,0.1,0,0.2,0c0.3,0,0.7-0.1,1.2-0.3
			c0.9-0.4,1.4-0.7,1.6-0.9V238c0-0.3-0.2-0.4-0.7-0.4c-0.1,0-0.1,0-0.2,0s-0.2,0-0.4,0.1s-0.4,0.1-0.6,0.2s-0.5,0.2-0.7,0.4
			c-0.5,0.3-0.8,0.7-1,1.1C147.3,239.5,147.3,239.7,147.3,239.9z"/>
		<path id="XMLID_327_" d="M155.2,240.9c0.7,0,1.7-0.3,3.1-0.9c0.1,0,0.2,0,0.2,0.1s0.1,0.1,0.1,0.2c-0.3,0.5-0.9,0.9-1.8,1.2
			s-1.7,0.3-2.5,0.2c-0.9-0.2-1.4-0.7-1.6-1.5c0-0.1,0-0.3,0-0.6s0.1-0.6,0.2-1s0.3-0.8,0.7-1.2s0.7-0.7,1.1-0.9s0.9-0.3,1.3-0.3
			c0.5,0,1,0.2,1.5,0.5c0.3,0.1,0.5,0.3,0.6,0.5s0.2,0.4,0.2,0.6c0,0.1,0,0.1,0,0.2c0,0.5-0.2,0.8-0.7,0.9c-0.2,0.1-0.4,0.1-0.7,0.1
			l-1.7-0.1c-0.6,0-1,0.1-1.3,0.4c-0.2,0.1-0.3,0.3-0.4,0.6C153.9,240.5,154.4,240.9,155.2,240.9z M157.3,237.3
			c-0.2-0.1-0.4-0.2-0.5-0.3s-0.3-0.1-0.5-0.1s-0.3,0-0.6,0.1s-0.5,0.2-0.8,0.3c-0.5,0.3-0.8,0.5-0.8,0.8c0.6,0.1,1.1,0.1,1.4,0.1
			c0.9,0,1.5-0.1,1.8-0.2c0.2-0.1,0.3-0.2,0.3-0.3C157.6,237.5,157.5,237.4,157.3,237.3z"/>
		<path id="XMLID_330_" d="M165.2,237c1.1-0.4,2-0.6,2.8-0.6c1,0,1.6,0.3,2,0.8c0.1,0.2,0.2,0.5,0.2,0.8c0,0.4-0.1,0.8-0.4,1.2
			s-0.6,0.8-1,1.1c-0.9,0.8-2.1,1.3-3.4,1.4c0,0.1,0,0.2,0,0.4s0,0.4,0,0.6s0,0.5,0,0.8s0,0.5,0,0.8c0,0.6,0,0.9,0.1,1s0,0.2,0,0.2
			c0,0.2-0.1,0.3-0.2,0.4s-0.3,0.1-0.5,0.1c0,0-0.1,0-0.1,0l-0.2-9.4c0.1-0.1,0.2-0.1,0.3-0.1s0.2,0,0.3,0.1S165.2,236.9,165.2,237z
			 M168.7,237.4c-0.3-0.1-0.5-0.2-0.8-0.2s-0.6,0-0.9,0.1c-0.7,0.1-1.1,0.4-1.5,0.8c-0.1,0.2-0.2,0.5-0.2,0.8c0,0,0,0.1,0,0.1v2
			c1.6-0.4,2.8-0.9,3.4-1.5c0.4-0.4,0.6-0.7,0.6-1.1C169.3,237.9,169.1,237.6,168.7,237.4z"/>
		<path id="XMLID_333_" d="M170.7,240.1c0-0.1,0-0.3,0-0.5s0-0.5-0.1-0.7s0-0.5,0-0.8s0-0.5,0.1-0.8c0.1-0.5,0.3-0.8,0.6-0.8
			c0.2,0.1,0.4,0.1,0.4,0.2s0.1,0.2,0.1,0.3s0,0.3-0.1,0.5c-0.3,0.7-0.4,1.3-0.4,1.8c0,0.2,0,0.4,0,0.6c0.1,0.5,0.6,0.8,1.3,0.8
			c0.4,0,0.7-0.1,1.1-0.2c0.7-0.2,1.1-0.5,1.3-0.9c0.1-0.4,0.1-0.7,0.1-0.9s0-0.5,0-0.7s0-0.4-0.1-0.7s0-0.5-0.1-0.8
			c0.1,0,0.2-0.1,0.3-0.1s0.2,0.1,0.3,0.2s0.2,0.3,0.3,0.6s0.1,0.6,0.1,1s0,0.8,0,1.2s0,0.8,0,1.2s0,0.7,0,1
			c-0.1,0.1-0.2,0.1-0.3,0.1c-0.3,0-0.5-0.3-0.7-0.9c-0.1,0.1-0.3,0.2-0.5,0.3c-0.5,0.3-1.1,0.5-1.8,0.6c-0.1,0-0.3,0-0.4,0
			s-0.4,0-0.6-0.1s-0.5-0.2-0.7-0.4S170.8,240.6,170.7,240.1z"/>
		<path id="XMLID_335_" d="M177,234.9l0-1.5c0-0.1,0-0.2,0.1-0.3s0.2-0.1,0.3-0.1s0.2,0,0.3,0.1s0.1,0.2,0.1,0.3l0.1,5.1
			c0.5-0.7,1.2-1.2,2-1.7c0.7-0.4,1.3-0.6,1.8-0.6c0.5,0,0.8,0.1,1.1,0.4c0.2,0.2,0.3,0.5,0.3,0.9s-0.1,0.7-0.2,1s-0.3,0.6-0.6,0.8
			s-0.5,0.5-0.8,0.7s-0.6,0.4-0.9,0.6c-0.6,0.3-1.2,0.6-1.8,0.9c0,0-0.1,0-0.2,0s-0.2,0-0.4,0c-0.4,0-0.8-0.1-1.1-0.2
			c-0.1-0.7-0.1-1.9-0.1-3.4L177,234.9z M177.9,240.7c0,0.1,0.1,0.1,0.2,0.1s0.4,0,0.6-0.1s0.5-0.2,0.8-0.3s0.7-0.3,1-0.6
			c0.8-0.6,1.4-1.2,1.8-2c-0.1-0.4-0.4-0.7-0.9-0.7c-0.5,0-1,0.2-1.6,0.5c-0.8,0.5-1.4,1.1-1.8,1.8c-0.1,0.3-0.2,0.6-0.2,0.9
			C177.9,240.5,177.9,240.5,177.9,240.7C177.9,240.6,177.9,240.6,177.9,240.7z"/>
		<path id="XMLID_338_" d="M183.8,237.2c0-0.4,0-0.8,0-1.1s0-0.6,0-0.7s-0.1-0.6-0.2-1.2c0.1-0.1,0.1-0.2,0.2-0.3s0.2-0.1,0.3-0.1
			c0.3,0,0.5,1.2,0.6,3.5c0.1,1.3,0.1,2.7,0.1,4c0,0.4-0.3,0.5-0.8,0.5l-0.1,0c0-0.4,0-0.9,0-1.6s0-1.2-0.1-1.7
			S183.9,237.6,183.8,237.2z"/>
		<path id="XMLID_340_" d="M185.5,234.6c0-0.3,0.2-0.4,0.5-0.4c0.2,0,0.4,0,0.5,0.1c0,0.1,0,0.2,0,0.3s0,0.2-0.1,0.2
			s-0.2,0.1-0.3,0.1s-0.3,0-0.4-0.1S185.5,234.7,185.5,234.6z M186.6,236.2c0.1,1.5,0.2,3.2,0.3,5.1c0,0.2-0.2,0.4-0.6,0.4
			c-0.1,0-0.2,0-0.3-0.1s-0.1-0.1-0.2-0.1v-5.2H186.6z"/>
		<path id="XMLID_343_" d="M192.1,240.5c0.3-0.1,0.6-0.2,0.9-0.4s0.6-0.2,0.9-0.2s0.4,0.1,0.4,0.3c0,0,0,0.1,0,0.2s-0.1,0.2-0.3,0.3
			s-0.4,0.2-0.7,0.3s-0.6,0.2-0.9,0.3s-0.6,0.2-1,0.2c-0.6,0.1-1.1,0.2-1.4,0.2s-0.6,0-0.9-0.1s-0.6-0.2-0.9-0.3
			c-0.6-0.3-0.9-0.8-0.9-1.5c0,0,0-0.1,0-0.3s0.1-0.3,0.2-0.6s0.3-0.5,0.5-0.8s0.5-0.5,0.8-0.7c0.7-0.5,1.3-0.8,2.1-0.9
			c0.3-0.1,0.5-0.1,0.6-0.1s0.3,0,0.4,0s0.2,0,0.3,0s0.2,0,0.3,0.1c0.2,0.1,0.3,0.3,0.3,0.6c0,0.2-0.1,0.4-0.4,0.6
			c-0.1,0-0.1,0.1-0.2,0.1c0-0.2-0.1-0.3-0.2-0.5s-0.2-0.2-0.4-0.2c-0.9,0.2-1.7,0.5-2.4,0.9c-0.8,0.4-1.1,0.9-1.1,1.4
			c0,0.1,0,0.1,0,0.2c0,0.5,0.2,0.9,0.6,1.1c0.3,0.2,0.7,0.2,1.1,0.2s0.9-0.1,1.2-0.2S191.8,240.6,192.1,240.5z"/>
		<path id="XMLID_345_" d="M199.5,239.8c-0.6,0.9-1.4,1.5-2.3,1.7c-0.2,0-0.4,0.1-0.6,0.1s-0.3,0-0.5,0s-0.3,0-0.4-0.1
			s-0.3-0.1-0.4-0.2c-0.3-0.2-0.4-0.4-0.4-0.7c0-0.1,0-0.3,0-0.5s0-0.4,0.1-0.7s0.2-0.6,0.4-0.9s0.5-0.6,0.8-0.9
			c0.6-0.6,1.3-1,2-1.1c0.2,0,0.4-0.1,0.6-0.1s0.3,0,0.5,0c0.5,0,0.8,0.3,0.9,0.9c0.1,0.4,0.2,0.9,0.2,1.6s0,1.2,0.1,1.6
			s0.1,0.7,0.1,1h-0.7c0-0.2-0.1-0.4-0.1-0.6s0-0.3,0-0.5C199.6,240.3,199.6,240,199.5,239.8z M199.5,237.9c0-0.5-0.2-0.7-0.7-0.7
			c-0.1,0-0.1,0-0.2,0c-0.6,0-1.2,0.3-1.8,0.8c-0.3,0.3-0.6,0.5-0.8,0.8c-0.3,0.4-0.5,0.8-0.5,1.2c0,0.5,0.3,0.7,0.8,0.8
			c0.7,0,1.4-0.3,2-1c0.3-0.3,0.5-0.6,0.7-0.9C199.4,238.6,199.5,238.3,199.5,237.9z"/>
		<path id="XMLID_348_" d="M202.8,240.6l0-1.9c0-0.3,0-0.6-0.1-0.8h-1.8l0-0.8h1.8v-3c0-0.1,0.1-0.1,0.1-0.2
			c0.1-0.1,0.2-0.2,0.3-0.2s0.1,0,0.2,0s0.1,0.1,0.2,0.2c0.1,0.5,0.2,1.3,0.2,2.3c0,0.3,0,0.5,0,0.8c0.3,0,0.5,0,0.8,0h0.6
			c0.1,0,0.3,0,0.4,0l0,0.8l-1.7,0l0.1,4c-0.1,0.1-0.3,0.1-0.4,0.1C203,241.9,202.8,241.4,202.8,240.6z"/>
		<path id="XMLID_350_" d="M205.8,234.6c0-0.3,0.2-0.4,0.5-0.4c0.2,0,0.4,0,0.5,0.1c0,0.1,0,0.2,0,0.3s0,0.2-0.1,0.2
			s-0.2,0.1-0.3,0.1s-0.3,0-0.4-0.1S205.9,234.7,205.8,234.6z M206.9,236.2c0.1,1.5,0.2,3.2,0.3,5.1c0,0.2-0.2,0.4-0.6,0.4
			c-0.1,0-0.2,0-0.3-0.1s-0.1-0.1-0.2-0.1v-5.2H206.9z"/>
		<path id="XMLID_353_" d="M208,239.5c0-0.9,0.4-1.7,1.2-2.2c0.6-0.4,1.4-0.7,2.3-0.8c0,0,0.2,0,0.3,0s0.4,0.1,0.7,0.2
			c0.6,0.2,1.1,0.6,1.3,1.2c0.1,0.2,0.1,0.4,0.1,0.6s0,0.3,0,0.3c0,1-0.4,1.7-1.1,2.3c-0.7,0.5-1.5,0.8-2.6,0.8
			c-0.7,0-1.3-0.2-1.7-0.5S208,240.3,208,239.5z M208.8,239.8c0,0.5,0.1,0.8,0.4,1c0.2,0.1,0.5,0.2,1,0.2s0.9,0,1.2-0.1
			s0.7-0.2,0.9-0.4c0.6-0.4,0.9-1,0.9-1.7c0-0.5-0.1-0.9-0.4-1.1c-0.3-0.3-0.6-0.5-1.1-0.5c-0.3,0.1-0.6,0.1-0.9,0.2
			s-0.6,0.2-0.9,0.4C209.4,238,209,238.7,208.8,239.8z"/>
		<path id="XMLID_356_" d="M219,239.1c0-0.9-0.1-1.6-0.2-2.1c0.1-0.1,0-0.2-0.3-0.2c-0.3,0-0.6,0.1-1,0.2s-0.8,0.3-1,0.4
			c-0.6,0.3-1,0.6-1.1,0.9v3.2h-0.8c-0.1-0.3-0.2-1-0.2-2.2c0-1.1,0-1.9,0.1-2.4s0.1-0.8,0.1-0.9c0.2-0.1,0.4-0.2,0.5-0.2
			c0.2,0,0.3,0.2,0.3,0.7c0,0.2,0,0.4,0,0.5s0,0.3,0,0.3c1.3-0.9,2.2-1.4,2.9-1.4c0.8,0,1.2,0.6,1.3,1.9c0,0.4,0.1,1.1,0.1,1.9
			l0,0.9c0,0.3,0,0.7,0,1c-0.1,0-0.1,0.1-0.2,0.1c0,0-0.1,0-0.2,0s-0.2,0-0.3,0c-0.1-0.3-0.1-0.6-0.1-1s0-0.6,0-0.9L219,239.1z"/>
	</g>
	<g id="XMLID_43_">
		<g id="XMLID_41_">
			<rect id="XMLID_79_" x="99.9" y="105.4" class="st1" width="82.3" height="29.7"/>
			<g id="XMLID_95_">
				<polygon id="XMLID_120_" class="st0" points="184.2,135.1 184.3,135 184,134.7 				"/>
				<path id="XMLID_119_" class="st0" d="M183.5,133.3c-0.1,0.1-0.1,0-0.2,0.1l0.9,1.1C184.7,134,183.2,133.6,183.5,133.3z"/>
				<path id="XMLID_118_" class="st0" d="M183.6,133c0.2-0.4-0.2-0.6-0.4-0.7C183.6,132.5,183.1,133.1,183.6,133z"/>
				<path id="XMLID_117_" class="st0" d="M173.6,104.2c0,0,0.1,0,0.1,0C173.7,104.1,173.7,104.1,173.6,104.2z"/>
				<path id="XMLID_116_" class="st0" d="M164.2,105.6l-0.1,0.3c1.8-0.6,3.7,0,5.6-0.2l-0.1,0.1c2.2,0.1,4.2,0,6.3-0.2
					c1-0.1,2.1-0.1,3.1-0.2c1-0.1,2.1-0.2,3.3-0.2c0,0.4,0,0.8,0.1,1.2c0-0.1-0.1,0-0.2-0.1c0.1,0.2,0.3,0.4,0.3,0.7
					c-0.1,0.1-0.2-0.1-0.2-0.1c-0.6,1.1,0.3,2.9-0.1,3.6c0.1,0.3,0.3,0.4,0.5,0.2c0.1,3.7,0.2,7.6,0.7,11.3
					c-0.1,0.2-0.2,0.2-0.4,0.2c0.9,3.2,0.5,6.5,0.4,9.8c0.2,0.1,0.2-0.3,0.5,0c0.3-1.1-0.6-1.9-0.1-2.9l0.2,0.1
					c0.1-0.7-0.6-0.1-0.3-0.9c0.2-0.3,0.3,0.1,0.3-0.1c-0.1-1.5,0.1-3-0.4-4.4c0.5-0.3,0-1.6,0.5-2.1c-0.2-0.4-0.1-0.8-0.5-0.9
					c0.1-2.6,0.1-5.1,0-7.7c0-1.3-0.1-2.6-0.1-3.9l0-2.1l0-3.1l-0.3,0c-1.2,0.2-2.1,0.3-3.1,0.4c-0.7,0-1.4,0-2.1-0.1
					c-1.4-0.1-2.9-0.3-4.4-0.2c0,0,0-0.1,0-0.1c-1,0.2-2.4,0.3-3.5,0.2l-1,0.4c-6.9-0.8-13.9-0.2-20.9-0.6
					c-7.9-0.2-14.9-0.9-22.6,0.3c0-0.1-0.1-0.1,0.1-0.2c-2.2,0.2-4.3-0.2-6.4,0l0-0.1c-5.2,0.8-10.8-0.1-15.9,0.7c-1.3,0-2.6,0-4,0
					c0,1.4,0,2.8,0,4.2c0,1.3,0,2.6,0,4c0,2.7,0.1,5.4,0.2,8l-0.2,0c0.2,2.4,0.1,4.7-0.1,7c-0.1,1.2-0.1,2.3-0.2,3.5l0,0.9l0,1
					c0,0.7,0,1.5,0,2.3c0.6,0,1.2,0,1.8-0.1c0.9,0.1,1.5,0.1,2.2,0.1c0.7,0,1.3,0,2-0.1c1.4-0.1,2.7-0.2,4.1-0.3
					c2.7-0.3,5.5-0.5,8.2-0.2c3.3,0.9,7.7-1.1,10.8-0.1c6.4,1.4,12.6,0.5,19-0.4c5.9,0.5,11.8-0.8,17.5,0.2c2.7-0.7,5.7,0.8,8.7,0.6
					l-0.1-0.2c1.1,0.7,2.4-1,3.1,0.1l-0.1,0c0.6,0.5,1.3-1.3,1.7-0.6l0.1-0.3c0.7-0.1,0.1,0.3,0.6,0.4c0.2,0,0.1-0.5,0.5-0.3
					c0.1,1.1,1.7-0.2,1.7,1c-0.4,0,0.6,0.5-0.3,0.7c0.2,0.1,1.4,0.1,1.3-0.5c0.1-0.5,0.6-1-0.2-1.4l-0.1,0.4
					c-0.2-0.4-0.2-0.2-0.3-0.5c-0.9-0.1-1-0.6-1.7-0.9c0,0,0,0,0,0c-0.5,0.5-1.1,0.2-1.4,0.1l-0.1-0.2c-0.2-0.5-1,0.9-0.8,0.1
					c-1.9,0.2-4,0.2-6.1,0.2c-0.3,0.3-1.6,0-1.1,0.6c-0.5-0.7-2.1-0.8-2.7-0.8c0-0.1,0-0.1,0.1-0.1c-1.1-0.9-1.3,0.8-2.4-0.3
					c-0.2,0.7-1.9-0.2-2.5,0.6c-0.1-0.2-0.2-0.3-0.1-0.4c-1.9,0-4-0.3-5.6-0.3c-1.4,0.7-3.3-0.3-4.5,0.6c-1-0.2-2.6-0.6-3.9-0.2
					l0.1-0.1c-1.5,0.1-3.5,0.1-4.5,0.7c-0.5-0.9-1.1-0.7-1.8-1c-1,0.4-3.1,0.3-4.7,0.6c-0.2-0.4-1.3,0.2-1.4-0.4
					c-4.4,1.1-9.8,0.7-14.5-0.1l0.1,0c-0.6,0.3-1.3,1-1.9,1.4c-0.1-0.1-0.1-0.1,0.1-0.1c-0.9,0.1-1.7-0.5-2.5-0.4
					c0-0.1,0-0.1,0.1-0.2c-0.8,0.3-1.7-0.5-2.6,0l-0.1-0.2l-0.6,0.2c0-0.2,0-0.5,0.4-0.4c-2.5-0.1-5,0-7.5,0.1
					c-1.3,0.1-2.5,0.1-3.8,0.2l-1.8,0.1l-0.9,0.1l-0.1-0.8l0-0.3l0-0.5l0-0.9c0-1.2,0-2.5,0-3.7l0.2,0.3l-0.3-1.5
					c0.1,0,0.1,0.1,0.2,0.1c0.3-1.9-0.2-3.8-0.1-5.6c0.1,0,0.3,0.3,0.4,0c-0.5-1.3,0.7-2.2-0.4-2.8c0.1-0.1,0.3-0.1,0.4,0
					c-0.2-1.9-0.3-3.8-0.3-5.7c0-0.9,0-1.9,0-2.8l0-1.4l0-0.7c0-0.2,0-0.3,0-0.4c-0.2-0.3-0.3-0.7-0.3-1.1c0.3-0.1,0.8-0.1,1.3-0.2
					c0.7,0,1.4,0,2.1,0c1.4,0,2.8,0,4.2-0.4l0,0.2c4.2-0.7,8.7,0,13.1-0.1c1.8,0.1,3-0.2,4.9-0.2l0,0.2c3.1-0.9,6.5,0.8,9.7-0.2
					l-0.2,0.3c0.5-0.5,1.9,0.2,1.8-0.7l0.6,0.3c2.2-1.2,4,0.5,6.6-0.2l-0.2,0.2c0.7-0.2,1.5-0.3,2.1-0.1c-0.1,0,0,0.1-0.2,0.1
					c2.2,0.8,4.7-0.1,7-0.1l-0.3,0.4c1.1-0.5,3.2,0,4.7-0.2l-0.1,0.2l0.8-0.3l0,0.4C160.5,105.9,162.3,105.6,164.2,105.6z"/>
				<path id="XMLID_115_" class="st0" d="M182.4,106.9C182.4,106.9,182.4,106.9,182.4,106.9C182.4,106.8,182.4,106.8,182.4,106.9z"
					/>
				<path id="XMLID_114_" class="st0" d="M179.7,133.4c0.1,0,0.2,0,0.2,0.1C179.9,133.4,179.8,133.4,179.7,133.4z"/>
			</g>
		</g>
		<g id="XMLID_294_">
			<path id="XMLID_295_" d="M126.3,119.5h0.3c0.1,0,0.3,0,0.4,0s0.2,0.1,0.2,0.3c0.1,0.3-0.1,0.5-0.6,0.5c-0.1,0-0.2,0-0.3,0
				s-0.2,0-0.2,0s-0.1,0-0.1,0.1c0.1,0.2,0.2,0.5,0.3,0.8s0.2,0.6,0.3,0.8c0.3,0.7,0.5,1.2,0.8,1.5c-0.1,0.2-0.3,0.3-0.5,0.4
				s-0.3,0.2-0.3,0.2s0,0,0,0l-1.7-3.5l-3.2,0.8l-0.1,0.5c-0.2,0.9-0.5,1.5-0.8,1.9c0,0.1-0.1,0.1-0.3,0c-0.3-0.1-0.4-0.2-0.4-0.2
				c0,0,0.1-0.2,0.2-0.7s0.3-0.9,0.5-1.3s0.3-0.9,0.5-1.4s0.4-1,0.5-1.4s0.3-0.8,0.4-1.2s0.2-0.6,0.3-0.8s0.1-0.3,0.1-0.4
				s0-0.2,0.1-0.3c0.1-0.2,0.3-0.3,0.6-0.3c0.3,0.2,0.6,0.4,0.8,0.7s0.3,0.6,0.5,1s0.3,0.7,0.4,1s0.3,0.7,0.5,1
				c0.1,0.1,0.2,0.2,0.3,0.2S126.2,119.5,126.3,119.5z M123.4,116.9c-0.1,0.5-0.2,1-0.4,1.5s-0.4,0.9-0.5,1.2s-0.2,0.5-0.3,0.8
				c0.5,0,1.2-0.2,2-0.5c0.2-0.1,0.4-0.2,0.6-0.2C124.2,118.1,123.8,117.2,123.4,116.9z"/>
			<path id="XMLID_298_" d="M133.6,119.5c-0.3-0.2-0.8-0.4-1.3-0.4c-0.5,0-0.9,0.1-1.3,0.3c-0.8,0.3-1.3,0.8-1.6,1.3
				c-0.1,0.2-0.2,0.5-0.2,0.8c0,0,0,0.2,0,0.4s0,0.5,0.1,0.9s0.1,0.7,0.1,1.1c-0.2,0-0.3,0-0.4,0.1s-0.2,0-0.3,0s-0.1,0-0.2-0.1
				s-0.1-0.2-0.2-0.4c0,0,0-0.2,0-0.4s-0.1-0.5-0.1-0.8s-0.1-0.7-0.1-1s-0.1-0.7-0.1-1.1c-0.1-0.8-0.2-1.4-0.2-1.7
				c0-0.2,0.1-0.3,0.4-0.3c0.2,0,0.3,0.1,0.4,0.2s0.2,0.3,0.2,0.5s0.1,0.3,0.1,0.5s0,0.3,0.1,0.4c1-0.9,2.3-1.4,3.8-1.4
				c0.2,0,0.4,0,0.5,0c0,0,0.1,0,0.2,0s0.1,0,0.2,0.1c0.1,0.1,0.1,0.2,0.1,0.4C134,119.2,133.8,119.4,133.6,119.5z"/>
			<path id="XMLID_300_" d="M139.2,122.5c0.3-0.1,0.6-0.2,0.9-0.4s0.6-0.2,0.9-0.2s0.4,0.1,0.4,0.3c0,0,0,0.1,0,0.2
				s-0.1,0.2-0.3,0.3s-0.4,0.2-0.7,0.3s-0.6,0.2-0.9,0.3s-0.6,0.2-1,0.2c-0.6,0.1-1.1,0.2-1.4,0.2s-0.6,0-0.9-0.1s-0.6-0.2-0.9-0.3
				c-0.6-0.3-0.9-0.8-0.9-1.5c0,0,0-0.1,0-0.3s0.1-0.3,0.2-0.6s0.3-0.5,0.5-0.8s0.5-0.5,0.8-0.7c0.7-0.5,1.3-0.8,2.1-0.9
				c0.3-0.1,0.5-0.1,0.6-0.1s0.3,0,0.4,0s0.2,0,0.3,0s0.2,0,0.3,0.1c0.2,0.1,0.3,0.3,0.3,0.6c0,0.2-0.1,0.4-0.4,0.6
				c-0.1,0-0.1,0.1-0.2,0.1c0-0.2-0.1-0.3-0.2-0.5s-0.2-0.2-0.4-0.2c-0.9,0.2-1.7,0.5-2.4,0.9c-0.8,0.4-1.1,0.9-1.1,1.4
				c0,0.1,0,0.1,0,0.2c0,0.5,0.2,0.9,0.6,1.1c0.3,0.2,0.7,0.2,1.1,0.2s0.9-0.1,1.2-0.2S138.9,122.6,139.2,122.5z"/>
			<path id="XMLID_302_" d="M147.6,123.6c-0.1,0.1-0.3,0.2-0.5,0.2s-0.4-0.1-0.4-0.3c0-0.9,0-1.6-0.1-1.9c-0.1-0.8-0.2-1.2-0.4-1.2
				c-0.6-0.1-1-0.2-1.4-0.2s-0.6,0.1-0.9,0.3s-0.4,0.6-0.5,1.1s-0.2,1.2-0.3,2.1h-0.9c0-0.4,0-0.9,0-1.2s0-0.8,0-1.4s0-1.1-0.1-1.7
				c0-0.7-0.1-1.3-0.1-1.8s0-1,0.1-1.4c0.1-0.1,0.2-0.2,0.3-0.2c0.2,0,0.3,0.1,0.4,0.2s0.2,0.2,0.2,0.3l-0.1,1.9
				c0,0.7,0,1.3,0.1,1.6c0.7-0.5,1.4-0.7,2.2-0.7c0.2,0,0.5,0,0.8,0.1c0.6,0.3,1,0.6,1.1,1c0.1,0.2,0.1,0.4,0.2,0.6s0,0.4,0,0.7
				C147.5,122.5,147.5,123.2,147.6,123.6z"/>
			<path id="XMLID_304_" d="M148,116.6c0-0.3,0.2-0.4,0.5-0.4c0.2,0,0.4,0,0.5,0.1c0,0.1,0,0.2,0,0.3s0,0.2-0.1,0.2
				s-0.2,0.1-0.3,0.1s-0.3,0-0.4-0.1S148.1,116.8,148,116.6z M149.1,118.2c0.1,1.5,0.2,3.2,0.3,5.1c0,0.2-0.2,0.4-0.6,0.4
				c-0.1,0-0.2,0-0.3-0.1s-0.1-0.1-0.2-0.1v-5.2H149.1z"/>
			<path id="XMLID_307_" d="M150,119.2c0,0,0-0.1,0-0.1s0-0.1,0.1-0.2s0.1-0.2,0.2-0.2s0.2-0.1,0.2-0.1s0.2,0.1,0.2,0.2l2,3.7
				c0.1-0.1,0.2-0.3,0.3-0.5s0.3-0.5,0.5-0.9s0.4-0.7,0.6-1s0.4-0.7,0.5-1c0.4-0.7,0.6-1,0.7-1c0.2,0,0.3,0.1,0.4,0.2
				s0.1,0.2,0.1,0.3s0,0.1,0,0.1c-0.4,1-0.8,1.8-1.2,2.6s-0.6,1.3-0.7,1.6s-0.2,0.4-0.3,0.6c-0.2,0.2-0.3,0.4-0.5,0.4
				s-0.3-0.1-0.5-0.4s-0.4-0.6-0.7-1C151.1,121.7,150.6,120.6,150,119.2z"/>
			<path id="XMLID_309_" d="M158.5,122.9c0.7,0,1.7-0.3,3.1-0.9c0.1,0,0.2,0,0.2,0.1s0.1,0.1,0.1,0.2c-0.3,0.5-0.9,0.9-1.8,1.2
				s-1.7,0.3-2.5,0.2c-0.9-0.2-1.4-0.7-1.6-1.5c0-0.1,0-0.3,0-0.6s0.1-0.6,0.2-1s0.3-0.8,0.7-1.2s0.7-0.7,1.1-0.9s0.9-0.3,1.3-0.3
				c0.5,0,1,0.2,1.5,0.5c0.3,0.1,0.5,0.3,0.6,0.5s0.2,0.4,0.2,0.6c0,0.1,0,0.1,0,0.2c0,0.5-0.2,0.8-0.7,0.9
				c-0.2,0.1-0.4,0.1-0.7,0.1l-1.7-0.1c-0.6,0-1,0.1-1.3,0.4c-0.2,0.1-0.3,0.3-0.4,0.6C157.2,122.6,157.7,122.9,158.5,122.9z
				 M160.6,119.3c-0.2-0.1-0.4-0.2-0.5-0.3s-0.3-0.1-0.5-0.1s-0.3,0-0.6,0.1s-0.5,0.2-0.8,0.3c-0.5,0.3-0.8,0.5-0.8,0.8
				c0.6,0.1,1.1,0.1,1.4,0.1c0.9,0,1.5-0.1,1.8-0.2c0.2-0.1,0.3-0.2,0.3-0.3C160.8,119.6,160.7,119.4,160.6,119.3z"/>
		</g>
	</g>
	<g id="XMLID_44_">
		<g id="XMLID_42_">
			<rect id="XMLID_91_" x="99.9" y="152" class="st1" width="82.3" height="31.6"/>
			<g id="XMLID_94_">
				<polygon id="XMLID_112_" class="st0" points="184.2,183.6 184.3,183.5 184,183.2 				"/>
				<path id="XMLID_111_" class="st0" d="M183.5,181.8c-0.1,0.1-0.1,0-0.2,0.1l0.9,1.1C184.7,182.5,183.2,182.1,183.5,181.8z"/>
				<path id="XMLID_110_" class="st0" d="M183.6,181.5c0.2-0.4-0.2-0.6-0.4-0.7C183.6,180.9,183.1,181.6,183.6,181.5z"/>
				<path id="XMLID_109_" class="st0" d="M174.9,150.8c0,0,0.1,0,0.1,0C174.9,150.8,174.9,150.8,174.9,150.8z"/>
				<path id="XMLID_108_" class="st0" d="M165.3,152.2l-0.1,0.3c1.8-0.6,3.8,0,5.7-0.2l-0.1,0.1c2,0.1,3.9,0,5.8-0.1
					c1.9-0.1,3.8-0.3,5.8-0.4c0.1,0.9,0.1,1.8,0.2,2.7c0-0.1-0.1-0.1-0.2-0.2c0.1,0.2,0.3,0.5,0.3,0.7c-0.1,0.1-0.2-0.1-0.2-0.2
					c-0.6,1,0.3,3-0.1,3.6c0.1,0.3,0.3,0.4,0.5,0.3c0.1,3.7,0.2,7.7,0.7,11.5c-0.1,0.2-0.2,0.2-0.4,0.2c0.9,3.2,0.5,6.7,0.4,10
					c0.2,0.1,0.2-0.3,0.5,0c0.3-1.1-0.6-2-0.1-2.9l0.2,0.1c0.1-0.7-0.6-0.1-0.3-0.9c0.2-0.3,0.3,0.1,0.3-0.1
					c-0.1-1.5,0.1-3.1-0.4-4.5c0.5-0.3,0-1.6,0.5-2.2c-0.2-0.4-0.1-0.8-0.5-0.9c0.1-2.6,0.1-5.3,0-7.9c0-1.3-0.1-2.7-0.1-4l0-2
					l0-2.6c-0.1-0.5-0.2-1-0.3-1.6c-0.9,0.1-1.7,0.1-2.5,0.1l-0.6,0l-0.5,0c-0.3,0-0.6-0.1-0.9-0.1c-1.2-0.1-2.5-0.2-3.8-0.1
					c0,0,0-0.1,0-0.1c-1,0.2-2.4,0.3-3.6,0.2l-1,0.4c-7-0.8-14.1-0.2-21.2-0.6c-8.1-0.2-15.1-0.9-23,0.3c0-0.1-0.1-0.1,0.1-0.2
					c-2.3,0.2-4.3-0.2-6.5,0l0-0.1c-5.3,0.8-11-0.1-16.1,0.7c-1.3,0-2.6,0-4.1,0c0,1.4,0,2.8,0,4.3c0,1.3,0,2.7,0,4
					c0,2.7,0.1,5.5,0.2,8.1l-0.2,0c0.2,2.6,0,5.2-0.1,7.8c-0.1,1.3-0.2,2.6-0.2,3.9c0,0.7,0,1.2,0,2c0,0.8,0,1.7,0.1,2.5l0.1,0
					c0.8,0.1,1.7,0.1,2.6,0.1c0.7,0,1.4,0,2.1-0.1c1.4-0.1,2.8-0.2,4.2-0.3c2.8-0.3,5.6-0.5,8.3-0.2c3.4,0.9,7.8-1.1,11-0.1
					c6.5,1.4,12.8,0.5,19.3-0.4c6,0.5,12-0.8,17.8,0.2c2.8-0.7,5.8,0.8,8.9,0.6l-0.1-0.2c1.1,0.7,2.5-1,3.1,0.1l-0.1,0
					c0.6,0.5,1.4-1.3,1.7-0.6l0.1-0.3c0.7-0.1,0.1,0.3,0.6,0.4c0.2,0,0.1-0.5,0.5-0.3c0.1,1.1,1.7-0.2,1.8,1c-0.4,0,0.6,0.5-0.3,0.7
					c0.2,0.1,1.4,0.1,1.3-0.5c0.1-0.5,0.6-1-0.2-1.4l-0.1,0.4c-0.2-0.4-0.2-0.2-0.3-0.5c-0.9-0.1-1.1-0.6-1.7-0.9c0,0,0,0,0,0
					c-0.5,0.5-1.1,0.2-1.5,0.1l-0.1-0.2c-0.2-0.5-1.1,0.9-0.8,0.1c-1.9,0.2-4.1,0.2-6.2,0.2c-0.3,0.3-1.6,0-1.2,0.6
					c-0.5-0.7-2.1-0.8-2.7-0.8c0-0.1,0-0.1,0.1-0.1c-1.1-0.9-1.4,0.8-2.4-0.3c-0.2,0.7-1.9-0.2-2.6,0.6c-0.1-0.2-0.2-0.3-0.1-0.4
					c-1.9,0-4.1-0.3-5.7-0.3c-1.4,0.7-3.4-0.3-4.6,0.6c-1-0.2-2.6-0.6-4-0.2l0.1-0.1c-1.6,0.1-3.5,0.1-4.6,0.7
					c-0.5-0.9-1.1-0.7-1.8-1c-1,0.4-3.2,0.3-4.7,0.6c-0.2-0.4-1.3,0.2-1.4-0.4c-4.5,1.1-10,0.7-14.8-0.1l0.1,0c-0.6,0.3-1.3,1-2,1.4
					c-0.1-0.1-0.1-0.1,0.1-0.1c-0.9,0.1-1.7-0.5-2.6-0.4c0-0.1,0-0.1,0.1-0.2c-0.8,0.3-1.7-0.5-2.7,0l-0.1-0.2l-0.6,0.2
					c0-0.2,0-0.5,0.4-0.4c-2.3-0.1-4.6,0-6.9,0.1c-1.2,0.1-2.3,0.1-3.5,0.2l-0.9,0l-0.4,0c-0.2,0-0.1,0-0.2,0l-0.8,0.1
					c0-0.3-0.1-0.5-0.1-1l-0.1-2.2c0-1.5-0.1-3,0-4.5l0.2,0.3l-0.3-1.5c0.1,0,0.1,0.1,0.2,0.2c0.3-1.9-0.2-3.9-0.1-5.7
					c0.1,0,0.3,0.3,0.4,0c-0.5-1.4,0.7-2.2-0.4-2.9c0.1-0.1,0.3-0.1,0.4,0c-0.2-1.9-0.3-3.8-0.3-5.8c0-1,0-1.9,0-2.9l0-1.4l0-0.7
					l0-0.2l0-0.2c-0.2-0.3-0.3-0.7-0.3-1.1c0.3-0.1,0.8-0.1,1.3-0.2c0.7,0,1.4,0,2.1,0c1.4,0,2.9,0,4.3-0.4l0,0.2
					c4.3-0.7,8.8,0,13.3-0.1c1.8,0.1,3.1-0.2,5-0.2l0,0.2c3.1-0.9,6.6,0.8,9.8-0.2l-0.2,0.3c0.5-0.5,2,0.2,1.8-0.7l0.6,0.3
					c2.2-1.2,4,0.5,6.7-0.2l-0.2,0.2c0.7-0.2,1.6-0.3,2.1-0.1c-0.1,0,0,0.1-0.2,0.1c2.3,0.8,4.8-0.1,7.2-0.1l-0.3,0.4
					c1.2-0.5,3.3,0,4.8-0.2l-0.1,0.2l0.8-0.3l0,0.4C161.5,152.6,163.3,152.3,165.3,152.2z"/>
				<path id="XMLID_107_" class="st0" d="M182.4,155C182.4,155,182.4,155,182.4,155C182.4,154.9,182.4,154.9,182.4,155z"/>
				<path id="XMLID_105_" class="st0" d="M179.6,181.9c0.1,0,0.2,0,0.2,0.1C179.9,181.9,179.7,181.9,179.6,181.9z"/>
			</g>
		</g>
		<g id="XMLID_278_">
			<path id="XMLID_279_" d="M126.2,170.3c0-0.1,0.1-0.3,0.2-0.4s0.2-0.2,0.3-0.2s0.1-0.1,0.1-0.1c0,0.7,0.5,1.1,1.4,1.1
				c0.7,0,1.6-0.2,2.5-0.7c0.7-0.3,1.1-0.6,1.4-1c0.1-0.1,0.1-0.2,0.1-0.3s0-0.1,0-0.2l-4.9-1.1c-0.1,0-0.3-0.1-0.4-0.2
				c-0.2-0.2-0.4-0.3-0.4-0.5c0-0.5,0.4-1,1.1-1.5c0.8-0.5,2-0.8,3.4-1.1c0.3-0.1,0.6-0.1,0.7-0.1c0,0,0.1,0,0.2,0s0.2,0,0.3,0.1
				c0.2,0.1,0.3,0.2,0.3,0.3c0,0.3-0.5,0.5-1.5,0.6c-1.3,0.2-2.1,0.4-2.5,0.5s-0.6,0.3-0.7,0.4s-0.2,0.3-0.2,0.5
				c0,0,0.1,0.1,0.3,0.1s0.4,0.1,0.6,0.2s0.6,0.2,1,0.3c1,0.3,2.2,0.6,3.6,1c0.1,0.2,0.1,0.3,0.1,0.5c0,0.4-0.2,0.8-0.7,1.2
				c-0.5,0.4-1.3,0.8-2.3,1.1c-0.8,0.2-1.4,0.4-1.9,0.4c-0.4,0-0.8-0.1-1.1-0.2s-0.6-0.3-0.8-0.4S126.2,170.4,126.2,170.3z"/>
			<path id="XMLID_281_" d="M134,164.2c0-0.3,0.2-0.4,0.5-0.4c0.2,0,0.4,0,0.5,0.1c0,0.1,0,0.2,0,0.3s0,0.2-0.1,0.2
				s-0.2,0.1-0.3,0.1s-0.3,0-0.4-0.1S134.1,164.3,134,164.2z M135.1,165.8c0.1,1.5,0.2,3.2,0.3,5.1c0,0.2-0.2,0.4-0.6,0.4
				c-0.1,0-0.2,0-0.3-0.1s-0.1-0.1-0.2-0.1v-5.2H135.1z"/>
			<path id="XMLID_284_" d="M140.4,168.8c0-0.9-0.1-1.6-0.2-2.1c0.1-0.1,0-0.2-0.3-0.2c-0.3,0-0.6,0.1-1,0.2s-0.8,0.3-1,0.4
				c-0.6,0.3-1,0.6-1.1,0.9v3.2h-0.8c-0.1-0.3-0.2-1-0.2-2.2c0-1.1,0-1.9,0.1-2.4s0.1-0.8,0.1-0.9c0.2-0.1,0.4-0.2,0.5-0.2
				c0.2,0,0.3,0.2,0.3,0.7c0,0.2,0,0.4,0,0.5s0,0.3,0,0.3c1.3-0.9,2.2-1.4,2.9-1.4c0.8,0,1.2,0.6,1.3,1.9c0,0.4,0.1,1.1,0.1,1.9
				l0,0.9c0,0.3,0,0.7,0,1c-0.1,0-0.1,0.1-0.2,0.1c0,0-0.1,0-0.2,0s-0.2,0-0.3,0c-0.1-0.3-0.1-0.6-0.1-1s0-0.6,0-0.9L140.4,168.8z"
				/>
			<path id="XMLID_286_" d="M145.2,176.3l-0.2,0c-0.2,0-0.5,0-0.8,0h-0.4c-0.5,0-0.8-0.1-1.1-0.3c-0.1-0.1-0.2-0.2-0.2-0.4l2.7-0.1
				c0.8,0,1.2-0.5,1.2-1.3c0,0,0-0.1,0-0.2s0-0.2,0-0.5l0.1-3.8c0-0.1,0-0.2,0-0.3c-1.3,1.2-2.5,1.8-3.7,1.8c-0.1,0-0.2,0-0.3,0
				c-0.5,0-0.8-0.2-0.8-0.7c0-0.4,0.1-0.8,0.3-1.2s0.4-0.9,0.8-1.3s0.7-0.8,1-1.1c0.6-0.5,1.2-0.7,1.7-0.7c0.7,0,1.2,0.3,1.6,1
				c0.1,1.9,0.2,3.2,0.2,4s0,1.4,0,1.9s-0.1,1-0.2,1.4s-0.2,0.7-0.3,1s-0.3,0.4-0.5,0.5C146.2,176.3,145.8,176.3,145.2,176.3z
				 M145.9,167.1c-0.1,0-0.2,0-0.4,0s-0.4,0.1-0.7,0.2s-0.5,0.3-0.8,0.5s-0.5,0.5-0.7,0.7c-0.5,0.7-0.8,1.2-0.8,1.6
				c0,0.1,0,0.2,0.1,0.3c0.1,0,0.1,0,0.2,0s0.2,0,0.4,0s0.4-0.1,0.6-0.2s0.5-0.3,0.8-0.4s0.6-0.4,0.8-0.6c0.5-0.5,0.8-1,0.8-1.5
				C146.4,167.5,146.3,167.3,145.9,167.1z"/>
			<path id="XMLID_289_" d="M148.3,166.8c0-0.4,0-0.8,0-1.1s0-0.6,0-0.7s-0.1-0.6-0.2-1.2c0.1-0.1,0.1-0.2,0.2-0.3s0.2-0.1,0.3-0.1
				c0.3,0,0.5,1.2,0.6,3.5c0.1,1.3,0.1,2.7,0.1,4c0,0.4-0.3,0.5-0.8,0.5l-0.1,0c0-0.4,0-0.9,0-1.6s0-1.2-0.1-1.7
				S148.3,167.2,148.3,166.8z"/>
			<path id="XMLID_291_" d="M152.3,170.5c0.7,0,1.7-0.3,3.1-0.9c0.1,0,0.2,0,0.2,0.1s0.1,0.1,0.1,0.2c-0.3,0.5-0.9,0.9-1.8,1.2
				s-1.7,0.3-2.5,0.2c-0.9-0.2-1.4-0.7-1.6-1.5c0-0.1,0-0.3,0-0.6s0.1-0.6,0.2-1s0.3-0.8,0.7-1.2s0.7-0.7,1.1-0.9s0.9-0.3,1.3-0.3
				c0.5,0,1,0.2,1.5,0.5c0.3,0.1,0.5,0.3,0.6,0.5s0.2,0.4,0.2,0.6c0,0.1,0,0.1,0,0.2c0,0.5-0.2,0.8-0.7,0.9
				c-0.2,0.1-0.4,0.1-0.7,0.1l-1.7-0.1c-0.6,0-1,0.1-1.3,0.4c-0.2,0.1-0.3,0.3-0.4,0.6C151,170.1,151.5,170.5,152.3,170.5z
				 M154.4,166.9c-0.2-0.1-0.4-0.2-0.5-0.3s-0.3-0.1-0.5-0.1s-0.3,0-0.6,0.1s-0.5,0.2-0.8,0.3c-0.5,0.3-0.8,0.5-0.8,0.8
				c0.6,0.1,1.1,0.1,1.4,0.1c0.9,0,1.5-0.1,1.8-0.2c0.2-0.1,0.3-0.2,0.3-0.3C154.7,167.1,154.6,167,154.4,166.9z"/>
		</g>
	</g>
</g>
<g id="Chat_properties">
	<g id="XMLID_19_">
		<g id="XMLID_17_">
			<rect id="XMLID_92_" x="311.1" y="148.2" class="st1" width="112.7" height="35.4"/>
			<g id="XMLID_93_">
				<polygon id="XMLID_103_" class="st0" points="425.7,183.6 425.9,183.5 425.5,183.1 				"/>
				<path id="XMLID_102_" class="st0" d="M425,181.2c-0.1,0.1-0.1,0-0.2,0.1l0.9,1.4C426.2,182.1,424.7,181.6,425,181.2z"/>
				<path id="XMLID_101_" class="st0" d="M425.1,180.8c0.2-0.5-0.2-0.8-0.4-0.9C425.1,180.1,424.7,180.9,425.1,180.8z"/>
				<path id="XMLID_100_" class="st0" d="M408.5,147c0.1,0,0.1,0,0.2,0C408.6,146.9,408.6,146.9,408.5,147z"/>
				<path id="XMLID_99_" class="st0" d="M396.1,148.4l-0.1,0.3c2.3-0.6,5,0,7.4-0.2l-0.2,0.1c6.3,0.1,12-0.4,18.2-0.7
					c-0.1,0-0.1,0.1-0.2,0.2c0.2-0.1,0.3-0.1,0.5-0.2c0.2-0.1,0.4-0.1,0.6-0.1c0.1,0.1-0.1,0.2-0.3,0.2c0.5,0.2,1.1,0.2,1.8,0.2
					c0.1,1,0.3,2.4,0.1,2.9c0.1,0.4,0.3,0.5,0.5,0.3c0.1,4.9,0.2,10,0.7,15c-0.1,0.2-0.2,0.3-0.4,0.2c0.9,4.2,0.5,8.7,0.4,13
					c0.2,0.2,0.2-0.4,0.5,0c0.3-1.4-0.6-2.5-0.1-3.8l0.2,0.2c0.1-0.9-0.6-0.2-0.3-1.1c0.2-0.4,0.3,0.1,0.3-0.1
					c-0.1-1.9,0.1-4-0.4-5.8c0.5-0.5,0-2.1,0.5-2.8c-0.2-0.5-0.1-1-0.5-1.2c0.1-2.7,0.1-5.5,0-8.3c0-1.4-0.1-2.8-0.1-4.2l-0.1-2.1
					l0-3.4c-1.8,0-3.6,0-5.4,0c-3.3,1-7.2-0.2-11.1,0.1c0,0,0-0.1,0-0.1c-1.3,0.2-3.1,0.3-4.6,0.2l-1.3,0.4
					c-9.1-0.8-18.4-0.2-27.6-0.6c-10.5-0.2-19.7-0.9-29.9,0.3c0-0.1-0.1-0.1,0.2-0.2c-2.9,0.2-5.6-0.2-8.4,0l0-0.1
					c-6.9,0.8-14.3-0.1-21,0.7c-1.6,0-3.3,0-5.2,0c0,1.8,0,3.6,0,5.4c0,1.7,0,3.5,0,5.3c0,3.5,0.1,7.1,0.2,10.6l-0.2,0
					c0.1,2.5,0.1,4.9,0,7.3l-0.2,3.6l-0.1,1.9l-0.1,2.3c0.6,0,1.2,0,1.8,0l1.6,0c1,0,1.9,0,2.9-0.1c7,0.4,14.5-1.1,21.5-0.5
					c4.4,0.9,10.1-1.1,14.3-0.1c8.5,1.4,16.7,0.5,25.1-0.4c7.8,0.5,15.6-0.8,23.2,0.2c3.6-0.7,7.5,0.8,11.5,0.6l-0.1-0.2
					c1.4,0.7,3.2-1,4.1,0.1l-0.2,0c0.8,0.5,1.8-1.3,2.2-0.6l0.1-0.3c0.9-0.1,0.1,0.3,0.8,0.4c0.3,0,0.1-0.5,0.7-0.3
					c0.1,1.1,2.2-0.2,2.3,1c-0.5,0,0.8,0.5-0.3,0.7c0.3,0.1,1.9,0.1,1.7-0.5c0.1-0.5,0.7-1-0.2-1.4l-0.2,0.4
					c-0.3-0.4-0.2-0.2-0.4-0.5c-1.2-0.1-1.4-0.6-2.3-0.9c0,0,0,0,0,0c-0.6,0.5-1.4,0.2-1.9,0.1l-0.2-0.2c-0.3-0.5-1.4,0.9-1,0.1
					c-2.5,0.2-5.3,0.2-8.1,0.2c-0.4,0.3-2.1,0-1.5,0.6c-0.7-0.7-2.8-0.8-3.5-0.8c0-0.1,0.1-0.1,0.2-0.1c-1.5-0.9-1.8,0.8-3.2-0.3
					c-0.2,0.7-2.5-0.2-3.3,0.6c-0.2-0.2-0.2-0.3-0.2-0.4c-2.5,0-5.3-0.3-7.4-0.3c-1.8,0.7-4.4-0.3-5.9,0.6c-1.3-0.2-3.4-0.6-5.2-0.2
					l0.2-0.1c-2,0.1-4.6,0.1-6,0.7c-0.6-0.9-1.5-0.7-2.4-1c-1.4,0.4-4.1,0.3-6.2,0.6c-0.3-0.4-1.7,0.2-1.8-0.4
					c-5.8,1.1-13,0.7-19.2-0.1l0.1,0c-0.8,0.3-1.7,1-2.6,1.4c-0.1-0.1-0.1-0.1,0.1-0.1c-1.1,0.1-2.2-0.5-3.3-0.4
					c0-0.1,0-0.1,0.2-0.2c-1.1,0.3-2.2-0.5-3.4,0l-0.1-0.2l-0.8,0.2c0-0.2,0.1-0.5,0.5-0.4c-3.9-0.1-7.8,0-11.8,0.2
					c-3.6,0.1-7.3,0.3-10.9,0.4l0-0.8l0-1.2l0-3l0.2,0.4l-0.3-1.9c0.1,0,0.1,0.1,0.2,0.2c0.3-2.5-0.2-5-0.1-7.4c0.1,0,0.3,0.4,0.4,0
					c-0.5-1.8,0.7-2.9-0.4-3.7c0.1-0.1,0.3-0.1,0.4,0c-0.4-4.9-0.3-10.1-0.2-15c-0.2-0.3-0.3-0.8-0.3-1.3c0.2-0.1,0.5-0.1,0.8-0.1
					l0.5,0l0.7,0c0.9,0,1.9,0,2.8,0c1.9,0,3.7,0,5.6-0.4l0,0.2c5.6-0.7,11.5,0,17.3-0.1c2.4,0.1,4-0.2,6.4-0.2l0.1,0.2
					c4.1-0.9,8.5,0.8,12.8-0.2l-0.3,0.3c0.7-0.5,2.6,0.2,2.3-0.7l0.7,0.3c2.9-1.2,5.2,0.5,8.8-0.2l-0.2,0.2c0.9-0.2,2-0.3,2.7-0.1
					c-0.1,0-0.1,0.1-0.3,0.1c2.9,0.8,6.2-0.1,9.3-0.1l-0.4,0.4c1.5-0.5,4.2,0,6.2-0.2l-0.1,0.2l1-0.3l0,0.4
					C391.1,148.8,393.6,148.4,396.1,148.4z"/>
				<path id="XMLID_98_" class="st0" d="M422,148C422,148,421.9,148,422,148C421.8,148,421.9,148,422,148z"/>
				<path id="XMLID_97_" class="st0" d="M420.4,181.9c0.1,0,0.2,0,0.3,0.1C420.7,181.9,420.5,181.9,420.4,181.9z"/>
			</g>
		</g>
		<g id="XMLID_241_">
			<path id="XMLID_242_" d="M324.2,169c0,0.2-0.1,0.2-0.4,0.2s-0.4-0.1-0.6-0.3s-0.3-0.4-0.5-0.6s-0.2-0.6-0.3-0.9s-0.2-0.6-0.2-0.9
				c-0.1-0.6-0.2-1-0.2-1.3s0-0.6,0.1-1s0.2-0.8,0.3-1.2s0.3-0.9,0.4-1.3s0.4-0.9,0.6-1.2c0.5-0.8,0.9-1.2,1.4-1.2
				c0.1,0,0.2,0,0.2,0s0.1,0.1,0.2,0.2c-0.7,1-1.2,1.8-1.5,2.3s-0.4,1-0.5,1.4s-0.2,0.9-0.2,1.4s0.1,0.9,0.2,1.2s0.3,0.7,0.4,1.1
				s0.3,0.7,0.4,1S324.2,168.7,324.2,169z"/>
			<path id="XMLID_244_" d="M325.7,167.9c0-0.1,0-0.3,0-0.5s0-0.5-0.1-0.7s0-0.5,0-0.8s0-0.5,0.1-0.8c0.1-0.5,0.3-0.8,0.6-0.8
				c0.2,0.1,0.4,0.1,0.4,0.2s0.1,0.2,0.1,0.3s0,0.3-0.1,0.5c-0.3,0.7-0.4,1.3-0.4,1.8c0,0.2,0,0.4,0,0.6c0.1,0.5,0.6,0.8,1.3,0.8
				c0.4,0,0.7-0.1,1.1-0.2c0.7-0.2,1.1-0.5,1.3-0.9c0.1-0.4,0.1-0.7,0.1-0.9s0-0.5,0-0.7s0-0.4-0.1-0.7s0-0.5-0.1-0.8
				c0.1,0,0.2-0.1,0.3-0.1s0.2,0.1,0.3,0.2s0.2,0.3,0.3,0.6s0.1,0.6,0.1,1s0,0.8,0,1.2s0,0.8,0,1.2s0,0.7,0,1
				c-0.1,0.1-0.2,0.1-0.3,0.1c-0.3,0-0.5-0.3-0.7-0.9c-0.1,0.1-0.3,0.2-0.5,0.3c-0.5,0.3-1.1,0.5-1.8,0.6c-0.1,0-0.3,0-0.4,0
				s-0.4,0-0.6-0.1s-0.5-0.2-0.7-0.4S325.7,168.3,325.7,167.9z"/>
			<path id="XMLID_246_" d="M336.4,166.8c0-0.9-0.1-1.6-0.2-2.1c0.1-0.1,0-0.2-0.3-0.2c-0.3,0-0.6,0.1-1,0.2s-0.8,0.3-1,0.4
				c-0.6,0.3-1,0.6-1.1,0.9v3.2h-0.8c-0.1-0.3-0.2-1-0.2-2.2c0-1.1,0-1.9,0.1-2.4s0.1-0.8,0.1-0.9c0.2-0.1,0.4-0.2,0.5-0.2
				c0.2,0,0.3,0.2,0.3,0.7c0,0.2,0,0.4,0,0.5s0,0.3,0,0.3c1.3-0.9,2.2-1.4,2.9-1.4c0.8,0,1.2,0.6,1.3,1.9c0,0.4,0.1,1.1,0.1,1.9
				l0,0.9c0,0.3,0,0.7,0,1c-0.1,0-0.1,0.1-0.2,0.1c0,0-0.1,0-0.2,0s-0.2,0-0.3,0c-0.1-0.3-0.1-0.6-0.1-1s0-0.6,0-0.9L336.4,166.8z"
				/>
			<path id="XMLID_248_" d="M337.9,160.5l0-0.2c0-0.2,0-0.3,0.1-0.3s0.2-0.1,0.4-0.1c0.6,0,1.2,0.4,1.7,1.1c0.6,0.9,1,2.1,1.2,3.5
				c0.1,0.4,0.1,0.7,0.1,0.9s0,0.5-0.1,0.7s-0.1,0.5-0.2,0.8s-0.2,0.6-0.4,0.9s-0.3,0.6-0.5,0.8c-0.4,0.5-0.8,0.8-1.2,0.8
				c0,0-0.1,0-0.1-0.1s-0.1-0.1-0.1-0.1c0.1-0.3,0.3-0.6,0.5-0.9s0.4-0.6,0.6-0.9s0.3-0.6,0.5-0.9s0.2-0.7,0.2-1.2s-0.1-1-0.2-1.5
				s-0.3-0.9-0.6-1.3s-0.5-0.7-0.9-1.1S338.2,160.8,337.9,160.5z"/>
			<path id="XMLID_250_" d="M352.7,162.9c-0.5-0.5-1.1-0.8-1.7-0.8c-0.6,0-1.1,0.2-1.7,0.7c-0.7,0.6-1.1,1.3-1.4,2.2
				c-0.1,0.3-0.1,0.6-0.1,0.8s0,0.4,0,0.5c0,0.8,0.3,1.4,0.8,1.8c0.5,0.4,1.1,0.6,1.9,0.6c1-0.1,2.1-0.5,3-1.2
				c0.3-0.2,0.5-0.4,0.8-0.6c0.1,0,0.2,0,0.3,0s0.2,0.1,0.2,0.3c-0.8,0.7-1.4,1.2-2,1.5c-1,0.5-1.9,0.8-2.7,0.8c-0.1,0-0.1,0-0.2,0
				c-0.9,0-1.6-0.3-2.2-0.8c-0.7-0.6-1-1.3-1-2.1c0-0.6,0.1-1.3,0.3-1.8s0.5-1.1,0.9-1.6s0.9-0.8,1.4-1.1s1.1-0.4,1.8-0.4
				c0.5,0,0.9,0.1,1.1,0.2C352.6,162,352.7,162.4,352.7,162.9z"/>
			<path id="XMLID_252_" d="M360.9,169.3c-0.1,0.1-0.3,0.2-0.5,0.2s-0.4-0.1-0.4-0.3c0-0.9,0-1.6-0.1-1.9c-0.1-0.8-0.2-1.2-0.4-1.2
				c-0.6-0.1-1-0.2-1.4-0.2s-0.6,0.1-0.9,0.3s-0.4,0.6-0.5,1.1s-0.2,1.2-0.3,2.1h-0.9c0-0.4,0-0.9,0-1.2s0-0.8,0-1.4s0-1.1-0.1-1.7
				c0-0.7-0.1-1.3-0.1-1.8s0-1,0.1-1.4c0.1-0.1,0.2-0.2,0.3-0.2c0.2,0,0.3,0.1,0.4,0.2s0.2,0.2,0.2,0.3l-0.1,1.9
				c0,0.7,0,1.3,0.1,1.6c0.7-0.5,1.4-0.7,2.2-0.7c0.2,0,0.5,0,0.8,0.1c0.6,0.3,1,0.6,1.1,1c0.1,0.2,0.1,0.4,0.2,0.6s0,0.4,0,0.7
				C360.7,168.2,360.8,168.8,360.9,169.3z"/>
			<path id="XMLID_254_" d="M365.9,167.5c-0.6,0.9-1.4,1.5-2.3,1.7c-0.2,0-0.4,0.1-0.6,0.1s-0.3,0-0.5,0s-0.3,0-0.4-0.1
				s-0.3-0.1-0.4-0.2c-0.3-0.2-0.4-0.4-0.4-0.7c0-0.1,0-0.3,0-0.5s0-0.4,0.1-0.7s0.2-0.6,0.4-0.9s0.5-0.6,0.8-0.9
				c0.6-0.6,1.3-1,2-1.1c0.2,0,0.4-0.1,0.6-0.1s0.3,0,0.5,0c0.5,0,0.8,0.3,0.9,0.9c0.1,0.4,0.2,0.9,0.2,1.6s0,1.2,0.1,1.6
				s0.1,0.7,0.1,1h-0.7c0-0.2-0.1-0.4-0.1-0.6s0-0.3,0-0.5C366,168,366,167.7,365.9,167.5z M365.9,165.7c0-0.5-0.2-0.7-0.7-0.7
				c-0.1,0-0.1,0-0.2,0c-0.6,0-1.2,0.3-1.8,0.8c-0.3,0.3-0.6,0.5-0.8,0.8c-0.3,0.4-0.5,0.8-0.5,1.2c0,0.5,0.3,0.7,0.8,0.8
				c0.7,0,1.4-0.3,2-1c0.3-0.3,0.5-0.6,0.7-0.9C365.7,166.4,365.9,166,365.9,165.7z"/>
			<path id="XMLID_257_" d="M369.2,168.3l0-1.9c0-0.3,0-0.6-0.1-0.8h-1.8l0-0.8h1.8v-3c0-0.1,0.1-0.1,0.1-0.2
				c0.1-0.1,0.2-0.2,0.3-0.2s0.1,0,0.2,0s0.1,0.1,0.2,0.2c0.1,0.5,0.2,1.3,0.2,2.3c0,0.3,0,0.5,0,0.8c0.3,0,0.5,0,0.8,0h0.6
				c0.1,0,0.3,0,0.4,0l0,0.8l-1.7,0l0.1,4c-0.1,0.1-0.3,0.1-0.4,0.1C369.4,169.6,369.2,169.2,369.2,168.3z"/>
			<path id="XMLID_259_" d="M379.1,169c0,0.2-0.1,0.2-0.4,0.2s-0.4-0.1-0.6-0.3s-0.3-0.4-0.5-0.6s-0.2-0.6-0.3-0.9s-0.2-0.6-0.2-0.9
				c-0.1-0.6-0.2-1-0.2-1.3s0-0.6,0.1-1s0.2-0.8,0.3-1.2s0.3-0.9,0.4-1.3s0.4-0.9,0.6-1.2c0.5-0.8,0.9-1.2,1.4-1.2
				c0.1,0,0.2,0,0.2,0s0.1,0.1,0.2,0.2c-0.7,1-1.2,1.8-1.5,2.3s-0.4,1-0.5,1.4s-0.2,0.9-0.2,1.4s0.1,0.9,0.2,1.2s0.3,0.7,0.4,1.1
				s0.3,0.7,0.4,1S379.1,168.7,379.1,169z"/>
			<path id="XMLID_261_" d="M384.6,166.4c0.9,0,1.3,0.2,1.3,0.7c0,0.3-0.2,0.7-0.7,1.1c-0.7,0.6-1.7,1.2-2.9,1.6
				c-0.1,0-0.1-0.1-0.2-0.2s-0.1-0.2-0.2-0.3s-0.1-0.1-0.1-0.1c0.9-0.3,1.6-0.7,2.2-1.1c0.4-0.3,0.6-0.5,0.6-0.7s-0.2-0.3-0.7-0.3
				s-1.1,0.1-2,0.3c-0.4,0-0.8-0.2-1.1-0.4c-0.3-0.2-0.4-0.5-0.4-0.7s0.1-0.5,0.2-0.7s0.3-0.4,0.6-0.6s0.5-0.3,0.8-0.5
				c0.8-0.4,1.6-0.6,2.4-0.6c0.2,0,0.5,0,0.7,0.1c0.2,0,0.3,0.1,0.3,0.2s0,0.4,0,0.8c-0.5-0.2-1-0.3-1.6-0.3c-0.7,0-1.3,0.1-1.8,0.4
				c-0.5,0.3-0.7,0.6-0.8,1.1c0,0.2,0.2,0.3,0.5,0.3l0.9-0.1C383.6,166.5,384.2,166.4,384.6,166.4z"/>
			<path id="XMLID_263_" d="M386.6,162.3c0-0.3,0.2-0.4,0.5-0.4c0.2,0,0.4,0,0.5,0.1c0,0.1,0,0.2,0,0.3s0,0.2-0.1,0.2
				s-0.2,0.1-0.3,0.1s-0.3,0-0.4-0.1S386.7,162.4,386.6,162.3z M387.7,163.9c0.1,1.5,0.2,3.2,0.3,5.1c0,0.2-0.2,0.4-0.6,0.4
				c-0.1,0-0.2,0-0.3-0.1s-0.1-0.1-0.2-0.1v-5.2H387.7z"/>
			<path id="XMLID_266_" d="M393.1,166.8c0-0.9-0.1-1.6-0.2-2.1c0.1-0.1,0-0.2-0.3-0.2c-0.3,0-0.6,0.1-1,0.2s-0.8,0.3-1,0.4
				c-0.6,0.3-1,0.6-1.1,0.9v3.2h-0.8c-0.1-0.3-0.2-1-0.2-2.2c0-1.1,0-1.9,0.1-2.4s0.1-0.8,0.1-0.9c0.2-0.1,0.4-0.2,0.5-0.2
				c0.2,0,0.3,0.2,0.3,0.7c0,0.2,0,0.4,0,0.5s0,0.3,0,0.3c1.3-0.9,2.2-1.4,2.9-1.4c0.8,0,1.2,0.6,1.3,1.9c0,0.4,0.1,1.1,0.1,1.9
				l0,0.9c0,0.3,0,0.7,0,1c-0.1,0-0.1,0.1-0.2,0.1c0,0-0.1,0-0.2,0s-0.2,0-0.3,0c-0.1-0.3-0.1-0.6-0.1-1s0-0.6,0-0.9L393.1,166.8z"
				/>
			<path id="XMLID_268_" d="M397.9,174.4l-0.2,0c-0.2,0-0.5,0-0.8,0h-0.4c-0.5,0-0.8-0.1-1.1-0.3c-0.1-0.1-0.2-0.2-0.2-0.4l2.7-0.1
				c0.8,0,1.2-0.5,1.2-1.3c0,0,0-0.1,0-0.2s0-0.2,0-0.5l0.1-3.8c0-0.1,0-0.2,0-0.3c-1.3,1.2-2.5,1.8-3.7,1.8c-0.1,0-0.2,0-0.3,0
				c-0.5,0-0.8-0.2-0.8-0.7c0-0.4,0.1-0.8,0.3-1.2s0.4-0.9,0.8-1.3s0.7-0.8,1-1.1c0.6-0.5,1.2-0.7,1.7-0.7c0.7,0,1.2,0.3,1.6,1
				c0.1,1.9,0.2,3.2,0.2,4s0,1.4,0,1.9s-0.1,1-0.2,1.4s-0.2,0.7-0.3,1s-0.3,0.4-0.5,0.5C398.8,174.3,398.4,174.4,397.9,174.4z
				 M398.6,165.2c-0.1,0-0.2,0-0.4,0s-0.4,0.1-0.7,0.2s-0.5,0.3-0.8,0.5s-0.5,0.5-0.7,0.7c-0.5,0.7-0.8,1.2-0.8,1.6
				c0,0.1,0,0.2,0.1,0.3c0.1,0,0.1,0,0.2,0s0.2,0,0.4,0s0.4-0.1,0.6-0.2s0.5-0.3,0.8-0.4s0.6-0.4,0.8-0.6c0.5-0.5,0.8-1,0.8-1.5
				C399.1,165.6,398.9,165.4,398.6,165.2z"/>
			<path id="XMLID_271_" d="M400.9,164.9c0-0.4,0-0.8,0-1.1s0-0.6,0-0.7s-0.1-0.6-0.2-1.2c0.1-0.1,0.1-0.2,0.2-0.3s0.2-0.1,0.3-0.1
				c0.3,0,0.5,1.2,0.6,3.5c0.1,1.3,0.1,2.7,0.1,4c0,0.4-0.3,0.5-0.8,0.5l-0.1,0c0-0.4,0-0.9,0-1.6s0-1.2-0.1-1.7
				S400.9,165.3,400.9,164.9z"/>
			<path id="XMLID_273_" d="M404.9,168.6c0.7,0,1.7-0.3,3.1-0.9c0.1,0,0.2,0,0.2,0.1s0.1,0.1,0.1,0.2c-0.3,0.5-0.9,0.9-1.8,1.2
				s-1.7,0.3-2.5,0.2c-0.9-0.2-1.4-0.7-1.6-1.5c0-0.1,0-0.3,0-0.6s0.1-0.6,0.2-1s0.3-0.8,0.7-1.2s0.7-0.7,1.1-0.9s0.9-0.3,1.3-0.3
				c0.5,0,1,0.2,1.5,0.5c0.3,0.1,0.5,0.3,0.6,0.5s0.2,0.4,0.2,0.6c0,0.1,0,0.1,0,0.2c0,0.5-0.2,0.8-0.7,0.9
				c-0.2,0.1-0.4,0.1-0.7,0.1l-1.7-0.1c-0.6,0-1,0.1-1.3,0.4c-0.2,0.1-0.3,0.3-0.4,0.6C403.6,168.2,404.1,168.6,404.9,168.6z
				 M407,165c-0.2-0.1-0.4-0.2-0.5-0.3s-0.3-0.1-0.5-0.1s-0.3,0-0.6,0.1s-0.5,0.2-0.8,0.3c-0.5,0.3-0.8,0.5-0.8,0.8
				c0.6,0.1,1.1,0.1,1.4,0.1c0.9,0,1.5-0.1,1.8-0.2c0.2-0.1,0.3-0.2,0.3-0.3C407.3,165.2,407.2,165.1,407,165z"/>
			<path id="XMLID_276_" d="M409.1,160.5l0-0.2c0-0.2,0-0.3,0.1-0.3s0.2-0.1,0.4-0.1c0.6,0,1.2,0.4,1.7,1.1c0.6,0.9,1,2.1,1.2,3.5
				c0.1,0.4,0.1,0.7,0.1,0.9s0,0.5-0.1,0.7s-0.1,0.5-0.2,0.8s-0.2,0.6-0.4,0.9s-0.3,0.6-0.5,0.8c-0.4,0.5-0.8,0.8-1.2,0.8
				c0,0-0.1,0-0.1-0.1s-0.1-0.1-0.1-0.1c0.1-0.3,0.3-0.6,0.5-0.9s0.4-0.6,0.6-0.9s0.3-0.6,0.5-0.9s0.2-0.7,0.2-1.2s-0.1-1-0.2-1.5
				s-0.3-0.9-0.6-1.3s-0.5-0.7-0.9-1.1S409.4,160.8,409.1,160.5z"/>
		</g>
	</g>
	<g id="XMLID_21_">
		<g id="XMLID_45_">
			<rect id="XMLID_497_" x="311.1" y="105.9" class="st1" width="102.3" height="29.7"/>
			<g id="XMLID_498_">
				<polygon id="XMLID_508_" class="st0" points="415.4,135.6 415.5,135.5 415.2,135.2 				"/>
				<path id="XMLID_507_" class="st0" d="M414.7,133.5c-0.1,0.1-0.2,0-0.2,0.1l0.9,1.2C415.9,134.3,414.3,133.9,414.7,133.5z"/>
				<path id="XMLID_506_" class="st0" d="M414.8,133.1c0.2-0.5-0.2-0.7-0.4-0.8C414.7,132.5,414.3,133.2,414.8,133.1z"/>
				<path id="XMLID_505_" class="st0" d="M398,104.7c0,0,0.1,0,0.2,0C398,104.7,398,104.7,398,104.7z"/>
				<path id="XMLID_504_" class="st0" d="M386.8,106.1l-0.1,0.3c2.1-0.6,4.4,0,6.6-0.2l-0.1,0.1c5.6,0.1,10.7-0.4,16.2-0.7
					c-0.1,0-0.1,0.1-0.2,0.2c0.3-0.1,0.6-0.3,0.9-0.3c0.1,0.1-0.1,0.2-0.2,0.2c0.5,0.2,1.1,0.2,1.7,0.1c0.6-0.1,1.4-0.2,2-0.2
					c0,0.3,0,0.6-0.1,0.9c0.1,0.3,0.3,0.4,0.5,0.1c0,1.2,0.1,2.4,0.1,3.6c0,1.1,0.1,2.2,0.1,3.4c0.1,2.2,0.2,4.5,0.4,6.7
					c-0.1,0.2-0.2,0.3-0.4,0.2c0.9,3.8,0.5,7.7,0.4,11.6c0.2,0.1,0.2-0.4,0.5,0c0.3-1.2-0.6-2.3-0.1-3.4l0.2,0.1
					c0.1-0.8-0.6-0.2-0.3-1c0.2-0.3,0.3,0.1,0.3-0.1c-0.1-1.7,0.1-3.6-0.4-5.2c0.5-0.4,0-1.9,0.5-2.5c-0.2-0.4-0.1-0.9-0.5-1.1
					c0.1-2.1,0.1-4.3,0.1-6.5c-0.1-2.6-0.1-5.2-0.2-7.8c-1.4,0-2.7,0-4.1,0.1l-2.8,0c-2.9,1-6.4-0.2-9.9,0.1c0,0,0-0.1,0-0.1
					c-1.1,0.2-2.8,0.3-4.1,0.2l-1.1,0.4c-8.1-0.8-16.4-0.2-24.6-0.6c-9.4-0.2-17.5-0.9-26.7,0.3c0-0.1-0.1-0.1,0.2-0.2
					c-2.6,0.2-5-0.2-7.5,0l0-0.1c-6.1,0.8-12.8-0.1-18.7,0.7c-1.5,0-3,0-4.7,0c0,1.6,0,3.2,0,4.9c0,1.5,0,3.1,0,4.7
					c0,3.1,0.1,6.3,0.2,9.4l-0.2,0c0.1,1.9,0.1,3.7,0,5.6c-0.1,2-0.2,4-0.3,6l2.1,0.1l1.8,0c1.2,0,2.3,0,3.5,0
					c6.3,0.4,12.9-1.1,19.2-0.5c3.9,0.9,9-1.1,12.7-0.1c7.5,1.4,14.9,0.5,22.4-0.4c7,0.5,13.9-0.8,20.6,0.2
					c3.2-0.7,6.7,0.8,10.3,0.6l-0.1-0.2c1.3,0.7,2.8-1,3.6,0.1l-0.1,0c0.7,0.5,1.6-1.3,2-0.6l0.1-0.3c0.8-0.1,0.1,0.3,0.7,0.4
					c0.2,0,0.1-0.5,0.6-0.3c0.1,1.1,2-0.2,2.1,1c-0.4,0,0.7,0.5-0.3,0.7c0.3,0.1,1.7,0.1,1.5-0.5c0.1-0.5,0.7-1-0.2-1.4l-0.2,0.4
					c-0.3-0.4-0.2-0.2-0.3-0.5c-1.1-0.1-1.2-0.6-2-0.9c0,0,0,0,0,0c-0.5,0.5-1.3,0.2-1.7,0.1l-0.2-0.2c-0.3-0.5-1.2,0.9-0.9,0.1
					c-2.2,0.2-4.7,0.2-7.2,0.2c-0.3,0.3-1.9,0-1.4,0.6c-0.6-0.7-2.5-0.8-3.1-0.8c0-0.1,0.1-0.1,0.2-0.1c-1.3-0.9-1.6,0.8-2.8-0.3
					c-0.2,0.7-2.3-0.2-3,0.6c-0.2-0.2-0.2-0.3-0.1-0.4c-2.2,0-4.7-0.3-6.6-0.3c-1.6,0.7-3.9-0.3-5.3,0.6c-1.2-0.2-3-0.6-4.6-0.2
					l0.2-0.1c-1.8,0.1-4.1,0.1-5.3,0.7c-0.5-0.9-1.3-0.7-2.1-1c-1.2,0.4-3.7,0.3-5.5,0.6c-0.3-0.4-1.5,0.2-1.6-0.4
					c-5.2,1.1-11.6,0.7-17.1-0.1l0.1,0c-0.7,0.3-1.5,1-2.3,1.4c-0.1-0.1-0.1-0.1,0.1-0.1c-1,0.1-2-0.5-3-0.4c0-0.1,0-0.1,0.2-0.2
					c-0.9,0.3-2-0.5-3.1,0l-0.1-0.2l-0.7,0.2c0-0.2,0-0.5,0.4-0.4c-3.8-0.1-7.6,0.1-11.4,0.2c-1.9,0.1-3.9,0.2-5.8,0.3
					c-1.6,0.1-3.2,0.1-4.8,0.2l0-0.9l0-1.5l0.2,0.3l-0.3-1.7c0.1,0,0.1,0.1,0.2,0.2c0.3-2.2-0.2-4.5-0.1-6.6c0.1,0,0.3,0.3,0.4,0
					c-0.5-1.6,0.7-2.5-0.4-3.3c0.1-0.1,0.3-0.1,0.4,0c-0.2-2.2-0.3-4.4-0.3-6.7c0-1.1,0-2.2,0-3.4l0-1.7l0-0.8l0-0.4l0-0.2
					c-0.2-0.3-0.3-0.7-0.3-1.2c0.2-0.1,0.5-0.1,0.7-0.1l0.4,0l0.5,0c0.8,0,1.7,0,2.5,0c1.7,0,3.3,0,5-0.4l0,0.2
					c5-0.7,10.3,0,15.4-0.1c2.1,0.1,3.6-0.2,5.7-0.2l0.1,0.2c3.6-0.9,7.6,0.8,11.4-0.2l-0.3,0.3c0.6-0.5,2.3,0.2,2.1-0.7l0.7,0.3
					c2.6-1.2,4.7,0.5,7.8-0.2l-0.2,0.2c0.8-0.2,1.8-0.3,2.4-0.1c-0.1,0-0.1,0.1-0.3,0.1c2.6,0.8,5.5-0.1,8.3-0.1l-0.3,0.4
					c1.3-0.5,3.8,0,5.5-0.2l-0.1,0.2l0.9-0.3l0,0.4C382.4,106.5,384.6,106.2,386.8,106.1z"/>
				<path id="XMLID_503_" class="st0" d="M409.9,105.7C409.9,105.7,409.9,105.7,409.9,105.7C409.8,105.7,409.8,105.7,409.9,105.7z"
					/>
				<path id="XMLID_502_" class="st0" d="M410.4,133.9c0.1,0,0.2,0,0.3,0.1C410.7,133.9,410.5,134,410.4,133.9z"/>
			</g>
		</g>
		<g id="XMLID_71_">
			<path id="XMLID_72_" d="M325.1,118.9h0.3c0.1,0,0.3,0,0.4,0s0.2,0.1,0.2,0.3c0.1,0.3-0.1,0.5-0.6,0.5c-0.1,0-0.2,0-0.3,0
				c-0.1,0-0.2,0-0.2,0s-0.1,0-0.1,0.1c0.1,0.2,0.2,0.5,0.3,0.8s0.2,0.6,0.3,0.8c0.3,0.7,0.5,1.2,0.8,1.5c-0.1,0.2-0.3,0.3-0.5,0.4
				s-0.3,0.2-0.3,0.2s0,0,0,0l-1.7-3.5l-3.2,0.8l-0.1,0.5c-0.2,0.9-0.5,1.5-0.8,1.9c0,0.1-0.1,0.1-0.3,0c-0.3-0.1-0.4-0.2-0.4-0.2
				c0,0,0.1-0.2,0.2-0.7s0.3-0.9,0.5-1.3s0.3-0.9,0.5-1.4s0.4-1,0.5-1.4s0.3-0.8,0.4-1.2s0.2-0.6,0.3-0.8s0.1-0.3,0.1-0.4
				s0-0.2,0.1-0.3c0.1-0.2,0.3-0.3,0.6-0.3c0.3,0.2,0.6,0.4,0.8,0.7s0.3,0.6,0.5,1s0.3,0.7,0.4,1s0.3,0.7,0.5,1
				c0.1,0.1,0.2,0.2,0.3,0.2S325,118.9,325.1,118.9z M322.2,116.4c-0.1,0.5-0.2,1-0.4,1.5s-0.4,0.9-0.5,1.2s-0.2,0.5-0.3,0.8
				c0.5,0,1.2-0.2,2-0.5c0.2-0.1,0.4-0.2,0.6-0.2C323,117.5,322.6,116.6,322.2,116.4z"/>
			<path id="XMLID_75_" d="M332.4,118.9c-0.3-0.2-0.8-0.4-1.3-0.4c-0.5,0-0.9,0.1-1.3,0.3c-0.8,0.3-1.3,0.8-1.6,1.3
				c-0.1,0.2-0.2,0.5-0.2,0.8c0,0,0,0.2,0,0.4s0,0.5,0.1,0.9s0.1,0.7,0.1,1.1c-0.2,0-0.3,0-0.4,0.1s-0.2,0-0.3,0s-0.1,0-0.2-0.1
				s-0.1-0.2-0.2-0.4c0,0,0-0.2,0-0.4s-0.1-0.5-0.1-0.8s-0.1-0.7-0.1-1s-0.1-0.7-0.1-1.1c-0.1-0.8-0.2-1.4-0.2-1.7
				c0-0.2,0.1-0.3,0.4-0.3c0.2,0,0.3,0.1,0.4,0.2s0.2,0.3,0.2,0.5s0.1,0.3,0.1,0.5s0,0.3,0.1,0.4c1-0.9,2.3-1.4,3.8-1.4
				c0.2,0,0.4,0,0.5,0c0,0,0.1,0,0.2,0s0.1,0,0.2,0.1c0.1,0.1,0.1,0.2,0.1,0.4C332.7,118.7,332.6,118.9,332.4,118.9z"/>
			<path id="XMLID_86_" d="M338,122c0.3-0.1,0.6-0.2,0.9-0.4s0.6-0.2,0.9-0.2s0.4,0.1,0.4,0.3c0,0,0,0.1,0,0.2s-0.1,0.2-0.3,0.3
				s-0.4,0.2-0.7,0.3s-0.6,0.2-0.9,0.3s-0.6,0.2-1,0.2c-0.6,0.1-1.1,0.2-1.4,0.2s-0.6,0-0.9-0.1s-0.6-0.2-0.9-0.3
				c-0.6-0.3-0.9-0.8-0.9-1.5c0,0,0-0.1,0-0.3s0.1-0.3,0.2-0.6s0.3-0.5,0.5-0.8s0.5-0.5,0.8-0.7c0.7-0.5,1.3-0.8,2.1-0.9
				c0.3-0.1,0.5-0.1,0.6-0.1s0.3,0,0.4,0s0.2,0,0.3,0s0.2,0,0.3,0.1c0.2,0.1,0.3,0.3,0.3,0.6c0,0.2-0.1,0.4-0.4,0.6
				c-0.1,0-0.1,0.1-0.2,0.1c0-0.2-0.1-0.3-0.2-0.5s-0.2-0.2-0.4-0.2c-0.9,0.2-1.7,0.5-2.4,0.9c-0.8,0.4-1.1,0.9-1.1,1.4
				c0,0.1,0,0.1,0,0.2c0,0.5,0.2,0.9,0.6,1.1c0.3,0.2,0.7,0.2,1.1,0.2s0.9-0.1,1.2-0.2S337.7,122.1,338,122z"/>
			<path id="XMLID_88_" d="M346.4,123.1c-0.1,0.1-0.3,0.2-0.5,0.2s-0.4-0.1-0.4-0.3c0-0.9,0-1.6-0.1-1.9c-0.1-0.8-0.2-1.2-0.4-1.2
				c-0.6-0.1-1-0.2-1.4-0.2s-0.6,0.1-0.9,0.3s-0.4,0.6-0.5,1.1s-0.2,1.2-0.3,2.1h-0.9c0-0.4,0-0.9,0-1.2s0-0.8,0-1.4s0-1.1-0.1-1.7
				c0-0.7-0.1-1.3-0.1-1.8s0-1,0.1-1.4c0.1-0.1,0.2-0.2,0.3-0.2c0.2,0,0.3,0.1,0.4,0.2s0.2,0.2,0.2,0.3l-0.1,1.9
				c0,0.7,0,1.3,0.1,1.6c0.7-0.5,1.4-0.7,2.2-0.7c0.2,0,0.5,0,0.8,0.1c0.6,0.3,1,0.6,1.1,1c0.1,0.2,0.1,0.4,0.2,0.6s0,0.4,0,0.7
				C346.2,122,346.3,122.6,346.4,123.1z"/>
			<path id="XMLID_90_" d="M346.8,116.1c0-0.3,0.2-0.4,0.5-0.4c0.2,0,0.4,0,0.5,0.1c0,0.1,0,0.2,0,0.3s0,0.2-0.1,0.2
				s-0.2,0.1-0.3,0.1s-0.3,0-0.4-0.1S346.8,116.2,346.8,116.1z M347.9,117.7c0.1,1.5,0.2,3.2,0.3,5.1c0,0.2-0.2,0.4-0.6,0.4
				c-0.1,0-0.2,0-0.3-0.1s-0.1-0.1-0.2-0.1v-5.2H347.9z"/>
			<path id="XMLID_138_" d="M348.7,118.7c0,0,0-0.1,0-0.1s0-0.1,0.1-0.2s0.1-0.2,0.2-0.2s0.2-0.1,0.2-0.1s0.2,0.1,0.2,0.2l2,3.7
				c0.1-0.1,0.2-0.3,0.3-0.5s0.3-0.5,0.5-0.9s0.4-0.7,0.6-1s0.4-0.7,0.5-1c0.4-0.7,0.6-1,0.7-1c0.2,0,0.3,0.1,0.4,0.2
				s0.1,0.2,0.1,0.3s0,0.1,0,0.1c-0.4,1-0.8,1.8-1.2,2.6s-0.6,1.3-0.7,1.6s-0.2,0.4-0.3,0.6c-0.2,0.2-0.3,0.4-0.5,0.4
				s-0.3-0.1-0.5-0.4s-0.4-0.6-0.7-1C349.9,121.1,349.4,120.1,348.7,118.7z"/>
			<path id="XMLID_169_" d="M357.2,122.4c0.7,0,1.7-0.3,3.1-0.9c0.1,0,0.2,0,0.2,0.1s0.1,0.1,0.1,0.2c-0.3,0.5-0.9,0.9-1.8,1.2
				s-1.7,0.3-2.5,0.2c-0.9-0.2-1.4-0.7-1.6-1.5c0-0.1,0-0.3,0-0.6s0.1-0.6,0.2-1s0.3-0.8,0.7-1.2s0.7-0.7,1.1-0.9s0.9-0.3,1.3-0.3
				c0.5,0,1,0.2,1.5,0.5c0.3,0.1,0.5,0.3,0.6,0.5s0.2,0.4,0.2,0.6c0,0.1,0,0.1,0,0.2c0,0.5-0.2,0.8-0.7,0.9
				c-0.2,0.1-0.4,0.1-0.7,0.1l-1.7-0.1c-0.6,0-1,0.1-1.3,0.4c-0.2,0.1-0.3,0.3-0.4,0.6C355.9,122,356.4,122.4,357.2,122.4z
				 M359.3,118.8c-0.2-0.1-0.4-0.2-0.5-0.3s-0.3-0.1-0.5-0.1s-0.3,0-0.6,0.1s-0.5,0.2-0.8,0.3c-0.5,0.3-0.8,0.5-0.8,0.8
				c0.6,0.1,1.1,0.1,1.4,0.1c0.9,0,1.5-0.1,1.8-0.2c0.2-0.1,0.3-0.2,0.3-0.3C359.6,119,359.5,118.9,359.3,118.8z"/>
			<path id="XMLID_214_" d="M366.8,120.7c-0.4,0-0.6-0.1-0.6-0.3c0-0.1,0-0.2,0.1-0.2s0.2-0.1,0.5-0.1s0.5-0.1,0.8-0.1
				s0.7-0.1,1.1-0.2c0.2,0,0.3,0,0.4,0.1c0.2,0.1,0.2,0.2,0.2,0.3c0,0,0,0.1-0.1,0.2s-0.1,0.1-0.3,0.2L366.8,120.7z"/>
			<path id="XMLID_230_" d="M380.5,116.7c-0.5-0.5-1.1-0.8-1.7-0.8c-0.6,0-1.1,0.2-1.7,0.7c-0.7,0.6-1.1,1.3-1.4,2.2
				c-0.1,0.3-0.1,0.6-0.1,0.8s0,0.4,0,0.5c0,0.8,0.3,1.4,0.8,1.8c0.5,0.4,1.1,0.6,1.9,0.6c1-0.1,2.1-0.5,3-1.2
				c0.3-0.2,0.5-0.4,0.8-0.6c0.1,0,0.2,0,0.3,0s0.2,0.1,0.2,0.3c-0.8,0.7-1.4,1.2-2,1.5c-1,0.5-1.9,0.8-2.7,0.8c-0.1,0-0.1,0-0.2,0
				c-0.9,0-1.6-0.3-2.2-0.8c-0.7-0.6-1-1.3-1-2.1c0-0.6,0.1-1.3,0.3-1.8s0.5-1.1,0.9-1.6s0.9-0.8,1.4-1.1s1.1-0.4,1.8-0.4
				c0.5,0,0.9,0.1,1.1,0.2C380.4,115.8,380.5,116.2,380.5,116.7z"/>
			<path id="XMLID_232_" d="M388.7,123.1c-0.1,0.1-0.3,0.2-0.5,0.2s-0.4-0.1-0.4-0.3c0-0.9,0-1.6-0.1-1.9c-0.1-0.8-0.2-1.2-0.4-1.2
				c-0.6-0.1-1-0.2-1.4-0.2s-0.6,0.1-0.9,0.3s-0.4,0.6-0.5,1.1s-0.2,1.2-0.3,2.1h-0.9c0-0.4,0-0.9,0-1.2s0-0.8,0-1.4s0-1.1-0.1-1.7
				c0-0.7-0.1-1.3-0.1-1.8s0-1,0.1-1.4c0.1-0.1,0.2-0.2,0.3-0.2c0.2,0,0.3,0.1,0.4,0.2s0.2,0.2,0.2,0.3l-0.1,1.9
				c0,0.7,0,1.3,0.1,1.6c0.7-0.5,1.4-0.7,2.2-0.7c0.2,0,0.5,0,0.8,0.1c0.6,0.3,1,0.6,1.1,1c0.1,0.2,0.1,0.4,0.2,0.6s0,0.4,0,0.7
				C388.6,122,388.6,122.6,388.7,123.1z"/>
			<path id="XMLID_234_" d="M393.7,121.3c-0.6,0.9-1.4,1.5-2.3,1.7c-0.2,0-0.4,0.1-0.6,0.1s-0.3,0-0.5,0s-0.3,0-0.4-0.1
				s-0.3-0.1-0.4-0.2c-0.3-0.2-0.4-0.4-0.4-0.7c0-0.1,0-0.3,0-0.5s0-0.4,0.1-0.7s0.2-0.6,0.4-0.9s0.5-0.6,0.8-0.9
				c0.6-0.6,1.3-1,2-1.1c0.2,0,0.4-0.1,0.6-0.1s0.3,0,0.5,0c0.5,0,0.8,0.3,0.9,0.9c0.1,0.4,0.2,0.9,0.2,1.6s0,1.2,0.1,1.6
				s0.1,0.7,0.1,1H394c0-0.2-0.1-0.4-0.1-0.6s0-0.3,0-0.5C393.8,121.8,393.8,121.5,393.7,121.3z M393.7,119.5c0-0.5-0.2-0.7-0.7-0.7
				c-0.1,0-0.1,0-0.2,0c-0.6,0-1.2,0.3-1.8,0.8c-0.3,0.3-0.6,0.5-0.8,0.8c-0.3,0.4-0.5,0.8-0.5,1.2c0,0.5,0.3,0.7,0.8,0.8
				c0.7,0,1.4-0.3,2-1c0.3-0.3,0.5-0.6,0.7-0.9C393.5,120.2,393.7,119.8,393.7,119.5z"/>
			<path id="XMLID_237_" d="M397,122.1l0-1.9c0-0.3,0-0.6-0.1-0.8h-1.8l0-0.8h1.8v-3c0-0.1,0.1-0.1,0.1-0.2c0.1-0.1,0.2-0.2,0.3-0.2
				s0.1,0,0.2,0s0.1,0.1,0.2,0.2c0.1,0.5,0.2,1.3,0.2,2.3c0,0.3,0,0.5,0,0.8c0.3,0,0.5,0,0.8,0h0.6c0.1,0,0.3,0,0.4,0l0,0.8l-1.7,0
				l0.1,4c-0.1,0.1-0.3,0.1-0.4,0.1C397.2,123.4,397,123,397,122.1z"/>
			<path id="XMLID_239_" d="M404.1,120.2c0.9,0,1.3,0.2,1.3,0.7c0,0.3-0.2,0.7-0.7,1.1c-0.7,0.6-1.7,1.2-2.9,1.6
				c-0.1,0-0.1-0.1-0.2-0.2s-0.1-0.2-0.2-0.3s-0.1-0.1-0.1-0.1c0.9-0.3,1.6-0.7,2.2-1.1c0.4-0.3,0.6-0.5,0.6-0.7s-0.2-0.3-0.7-0.3
				s-1.1,0.1-2,0.3c-0.4,0-0.8-0.2-1.1-0.4c-0.3-0.2-0.4-0.5-0.4-0.7s0.1-0.5,0.2-0.7s0.3-0.4,0.6-0.6s0.5-0.3,0.8-0.5
				c0.8-0.4,1.6-0.6,2.4-0.6c0.2,0,0.5,0,0.7,0.1c0.2,0,0.3,0.1,0.3,0.2s0,0.4,0,0.8c-0.5-0.2-1-0.3-1.6-0.3c-0.7,0-1.3,0.1-1.8,0.4
				c-0.5,0.3-0.7,0.6-0.8,1.1c0,0.2,0.2,0.3,0.5,0.3l0.9-0.1C403,120.3,403.6,120.2,404.1,120.2z"/>
		</g>
	</g>
</g>
</svg>
