<?xml version="1.0" encoding="utf-8"?>
<!-- Generator: Adobe Illustrator 18.0.0, SVG Export Plug-In . SVG Version: 6.00 Build 0)  -->
<!DOCTYPE svg PUBLIC "-//W3C//DTD SVG 1.1//EN" "http://www.w3.org/Graphics/SVG/1.1/DTD/svg11.dtd">
<svg version="1.1" id="Layer_1" xmlns="http://www.w3.org/2000/svg" xmlns:xlink="http://www.w3.org/1999/xlink" x="0px" y="0px"
	 viewBox="0 0 212.6 166" enable-background="new 0 0 212.6 166" xml:space="preserve">
<path fill="#2A2728" d="M106.3,72.9L0,0v111.4h0C0.6,141.7,25.3,166,55.7,166c22.4,0,41.7-13.3,50.6-32.3
	c8.8,19.1,28.2,32.3,50.6,32.3c30.4,0,55.1-24.3,55.7-54.6h0V0L106.3,72.9z M54.9,145.3c-18.5,0-33.4-15-33.4-33.4h66.9
	C88.3,130.3,73.3,145.3,54.9,145.3z M157.8,145.3c-18.5,0-33.4-15-33.4-33.4h66.9C191.2,130.3,176.2,145.3,157.8,145.3z"/>
</svg>
